<?xml version="1.0" encoding="UTF-8" standalone="no"?>
<!-- Created with Inkscape (http://www.inkscape.org/) -->

<svg
   width="95.076096mm"
   height="122.81843mm"
   viewBox="0 0 95.076095 122.81843"
   version="1.1"
   id="svg1"
   xml:space="preserve"
   inkscape:export-filename="englandLeague.svg"
   inkscape:export-xdpi="96"
   inkscape:export-ydpi="96"
   sodipodi:docname="juventus.svg"
   xmlns:inkscape="http://www.inkscape.org/namespaces/inkscape"
   xmlns:sodipodi="http://sodipodi.sourceforge.net/DTD/sodipodi-0.dtd"
   xmlns="http://www.w3.org/2000/svg"
   xmlns:svg="http://www.w3.org/2000/svg"><sodipodi:namedview
     id="namedview1"
     pagecolor="#ffffff"
     bordercolor="#000000"
     borderopacity="0.25"
     inkscape:showpageshadow="2"
     inkscape:pageopacity="0.0"
     inkscape:pagecheckerboard="0"
     inkscape:deskcolor="#d1d1d1"
     inkscape:document-units="mm"><inkscape:page
       x="0"
       y="0"
       width="95.076096"
       height="122.81843"
       id="page2"
       margin="0"
       bleed="0" /></sodipodi:namedview><defs
     id="defs1" /><path
     style="fill:#c3a970;fill-opacity:1"
     d="m 41.702579,118.52862 c -7.152801,-0.50053 -13.243108,-1.91642 -13.833942,-3.21616 -0.146051,-0.32129 0.105153,-1.07011 1.430001,-4.26274 1.248999,-3.00984 4.122064,-10.03653 4.694042,-11.480274 0.06408,-0.161734 0.17726,-0.152696 0.467245,0.03731 1.906898,1.249445 8.695023,1.956285 17.277182,1.799035 7.101272,-0.13011 12.596632,-0.86845 13.682973,-1.83841 0.277868,-0.248098 0.318902,-0.23083 0.484122,0.20373 0.09929,0.26114 0.18052,0.50254 0.18052,0.53643 0,0.0685 5.292987,12.99076 5.758267,14.05815 0.214065,0.49109 0.244687,0.75522 0.112253,0.96825 -0.734584,1.18162 -4.085875,2.11623 -10.271629,2.86456 -2.588163,0.31311 -4.263047,0.38112 -10.474639,0.42533 -4.066625,0.0289 -8.344503,-0.0139 -9.506395,-0.0952 z m 3.167877,-18.17359 c 0.07078,-0.20482 0.45728,-3.055909 1.067946,-7.877988 1.017017,-8.030807 1.686499,-15.457496 2.03131,-22.53368 0.229165,-4.702905 0.1207,-19.005073 -0.182907,-24.118078 -0.520019,-8.757583 -0.942539,-13.822596 -1.621142,-19.433611 l -0.551232,-4.557861 0.420673,-0.327491 c 1.411315,-1.0987 6.144159,-2.605773 6.141593,-1.95566 -2.87e-4,0.07262 -0.119245,1.359943 -0.264353,2.860721 -0.521073,5.389221 -0.613249,6.682649 -0.878204,12.323106 -0.620755,13.214873 -0.824343,32.854744 -0.437586,42.213448 0.195124,4.721604 0.77396,13.604257 1.052101,16.145261 0.09539,0.87142 0.2545,2.653869 0.353586,3.960999 0.09909,1.307129 0.222191,2.634064 0.273566,2.948744 l 0.09341,0.57214 h -3.787406 c -2.953122,0 -3.770654,-0.0485 -3.711355,-0.22005 z m 9.342476,-0.955278 c -0.06634,-0.660697 -0.195417,-1.676588 -0.286845,-2.257534 -0.481523,-3.05967 -1.404958,-13.671536 -1.741246,-20.009948 -0.234033,-4.411067 -0.236511,-17.126354 -0.0041,-20.920369 0.559264,-9.128912 2.05027,-18.492825 4.24675,-26.670722 0.786143,-2.926952 1.005307,-3.68828 2.635256,-9.154307 0.08662,-0.290473 0.217886,-0.621644 0.291706,-0.735935 0.08289,-0.128329 1.339793,-0.313109 3.286497,-0.483154 1.733754,-0.151444 3.169974,-0.255983 3.1916,-0.232309 0.02163,0.02367 -0.394569,0.835243 -0.924877,1.803487 -5.466098,9.980073 -8.921682,21.576226 -10.203501,34.24063 -0.406024,4.011525 -0.403495,12.491677 0.005,16.90026 0.783456,8.454427 1.971557,14.320833 4.688448,23.149834 0.566108,1.839664 1.148738,3.67773 1.294734,4.084592 0.243864,0.679602 0.241274,0.746788 -0.03184,0.826315 -0.327823,0.09546 -2.893363,0.378678 -4.98458,0.550278 l -1.342447,0.11015 z m -18.264217,-0.109863 -1.17671,-0.387227 0.267762,-0.616156 C 38.901682,89.399763 41.638905,80.092515 42.653328,72.398484 43.530902,65.742398 43.509035,59.550029 42.584668,52.955081 41.707276,46.695275 39.597846,39.055119 37.103479,33.10273 35.126083,28.384005 30.412052,19.422372 29.685363,19.000481 c -0.204653,-0.118815 -0.06857,-0.250159 0.594578,-0.573857 1.273788,-0.621768 2.877064,-1.186632 3.004985,-1.058711 0.06164,0.06164 -0.02259,0.260868 -0.187179,0.442733 -0.284773,0.314671 -0.22966,0.47013 1.139393,3.213889 0.791252,1.585774 2.021502,4.212908 2.733888,5.838076 4.749196,10.834353 6.945196,18.498485 8.10679,28.293024 0.37232,3.139402 0.421866,11.949552 0.08663,15.403883 -0.740871,7.63399 -2.489771,15.284093 -5.376695,23.518943 -1.61854,4.616826 -2.04087,5.617328 -2.367042,5.607528 -0.162405,-0.0049 -0.824801,-0.183124 -1.471992,-0.3961 z M 61.162623,96.445514 C 58.393297,88.039559 57.010456,81.887876 56.135158,74.080405 55.638981,69.65462 55.547399,67.476662 55.605873,61.493233 c 0.04653,-4.76102 0.12877,-6.423315 0.426782,-8.626175 1.260009,-9.313784 2.753657,-15.292698 5.688358,-22.76989 1.236421,-3.150225 4.182558,-9.263844 5.654971,-11.734806 0.667583,-1.120321 0.751264,-1.360352 0.552398,-1.58451 -0.162994,-0.183724 -0.182465,-0.356927 -0.06393,-0.568731 0.254156,-0.454151 2.073319,-0.230178 3.325561,0.409438 0.532534,0.272006 0.879855,0.498367 0.771823,0.503024 -0.240298,0.01036 -2.41961,3.103431 -4.036704,5.729246 -1.319444,2.142494 -3.484605,6.395602 -4.7054,9.242994 -4.197875,9.791158 -6.323682,20.985854 -6.050793,31.864031 0.271421,10.819625 1.7619,19.180859 5.021086,28.167099 0.515383,1.421018 2.084787,5.198387 2.488957,5.990626 0.192213,0.376768 0.349478,0.720422 0.349478,0.763675 0,0.09748 -2.264239,0.815607 -2.571606,0.815607 -0.134204,0 -0.652107,-1.300272 -1.294227,-3.249347 z M 51.895282,31.234796 c 0.143086,-2.669966 0.566317,-7.842979 0.801105,-9.791658 0.09333,-0.774595 0.223905,-2.072588 0.29017,-2.884429 l 0.120483,-1.476073 -0.861011,0.121322 c -1.930836,0.272068 -4.615289,1.199091 -5.538934,1.912762 -0.152248,0.117637 -0.617172,0.798358 -1.033164,1.512713 l -0.75635,1.298827 0.367691,2.838215 c 0.540371,4.171144 0.906438,7.270526 0.906438,7.67455 v 0.35554 l -0.870394,-0.330723 c -3.308074,-1.25697 -6.11029,-3.918507 -7.662302,-7.277634 -0.969289,-2.097899 -1.383875,-3.965219 -1.378689,-6.209691 0.0095,-4.113456 1.498202,-7.663979 4.439271,-10.587613 3.26443,-3.2450785 8.082438,-4.7115804 12.639334,-3.8471519 5.398749,1.0241252 9.785438,5.1641041 11.313095,10.6768399 0.196037,0.707425 0.356431,1.602499 0.356431,1.989053 v 0.702825 l -0.355077,-0.355077 -0.355077,-0.355077 -2.912375,0.291379 c -1.601806,0.160258 -2.974559,0.361853 -3.050562,0.447989 -0.128742,0.145906 -2.575119,8.637171 -3.747629,13.00785 -0.285722,1.065069 -0.573181,1.991781 -0.638796,2.059361 -0.06562,0.06758 -0.585821,0.195948 -1.156012,0.285262 l -1.036712,0.162389 z M 40.637518,24.97627 c -0.0673,-0.579892 -0.208844,-1.192815 -0.314534,-1.362052 -0.152277,-0.243833 -0.111258,-0.393824 0.197615,-0.722605 0.455891,-0.485273 0.49373,-1.13514 0.135418,-2.325721 -0.243878,-0.810345 -0.235995,-0.881427 0.191255,-1.724564 0.245089,-0.483661 0.68109,-1.077521 0.96889,-1.319689 0.486576,-0.409427 1.55345,-2.048309 1.557186,-2.392076 9.09e-4,-0.08361 -0.341518,-0.10056 -0.760948,-0.03766 l -0.762601,0.114359 -0.337677,-0.752293 c -0.322257,-0.717939 -0.358376,-1.364431 -0.199379,-3.568655 0.02887,-0.400262 -0.04503,-0.539056 -0.314342,-0.590319 -0.193649,-0.03686 -0.481624,-0.181715 -0.639944,-0.3218964 -0.256618,-0.2272177 -0.346395,-0.1838581 -0.827301,0.3995644 -0.296695,0.359942 -0.77838,1.102729 -1.070413,1.650638 -0.419707,0.787452 -0.50902,1.131444 -0.426228,1.641631 0.113779,0.701141 -0.22752,1.391189 -0.48335,0.977248 -0.08158,-0.132 -0.237965,0.155646 -0.402238,0.739855 -0.322888,1.148299 -0.38665,1.898189 -0.198857,2.338714 0.07658,0.179645 0.04834,0.720424 -0.06276,1.20173 -0.244595,1.059645 -0.259228,1.728462 -0.03782,1.728462 0.145874,0 0.420232,-0.57198 0.44332,-0.924232 0.01906,-0.290814 0.364854,-0.17284 0.423697,0.144552 0.03463,0.186763 0.149287,0.445748 0.254805,0.575522 0.158096,0.19444 0.229655,0.184249 0.406738,-0.05793 0.172231,-0.235539 0.28765,-0.254939 0.581407,-0.09773 0.288373,0.154333 0.366517,0.365882 0.366517,0.992226 0,0.437839 -0.08415,1.130264 -0.187002,1.538722 -0.166431,0.66096 -0.125504,0.912605 0.372068,2.287714 l 0.55907,1.545064 0.344886,-0.312117 c 0.299785,-0.271302 0.328883,-0.449994 0.222516,-1.366467 z m 1.912814,-1.200544 c 0.470902,-1.260859 0.517712,-1.635864 0.233625,-1.871636 -0.355925,-0.295391 -0.982093,0.09447 -1.024164,0.637661 -0.09708,1.253406 -0.08397,1.563321 0.07452,1.762108 0.286726,0.359628 0.421624,0.260128 0.716022,-0.528133 z m 13.675906,-3.21281 C 56.050861,20.3516 56.04413,20.234495 56.19849,20.080135 c 0.518727,-0.518726 -0.08015,-1.77764 -1.129831,-2.375044 -0.921287,-0.524331 -1.034381,-0.500057 -0.656828,0.14098 0.305971,0.519499 0.306031,0.54671 0.0016,0.717602 -0.289326,0.162409 -0.262933,0.236846 0.308077,0.868886 0.343482,0.380194 0.624513,0.767166 0.624513,0.85994 0,0.09277 0.173846,0.330642 0.386326,0.528597 0.451616,0.420745 0.874075,0.199908 0.493895,-0.25818 z m 0.176045,-3.168798 c 0.120535,-0.145237 0.319067,-0.264067 0.441181,-0.264067 0.235208,0 1.495307,-1.308886 1.495307,-1.553199 0,-0.07911 -0.23766,-0.410027 -0.528133,-0.735378 -0.752237,-0.842559 -0.702735,-1.126044 0.176044,-1.008175 0.387297,0.05195 0.704177,0.02081 0.704177,-0.0692 0,-0.09001 0.201882,-0.240405 0.448626,-0.334217 0.741398,-0.281879 1.233602,-1.83889 0.716879,-2.267732 -0.133568,-0.110851 -0.305087,-0.457236 -0.381153,-0.769744 l -0.138303,-0.5681964 -0.07423,0.5281334 c -0.04083,0.290473 -0.186886,0.591875 -0.324575,0.669781 -0.137688,0.07791 -0.555164,0.553227 -0.927724,1.056266 -0.730625,0.98651 -2.136228,1.948793 -2.136228,1.462473 0,-0.146781 0.351205,-0.508509 0.780456,-0.803842 0.429251,-0.295332 0.829141,-0.690359 0.888644,-0.877837 0.0595,-0.187477 0.401472,-0.597221 0.759932,-0.91054 0.894432,-0.781797 1.03315,-1.5713932 0.452698,-2.5768004 C 58.518307,7.9603398 58.401094,7.623655 58.495406,7.623655 c 0.240011,0 0.899631,0.9621496 0.899631,1.3122401 0,0.4068343 0.423509,1.1791729 0.866358,1.5799459 0.278997,0.252488 0.42509,0.287892 0.573904,0.139079 0.148814,-0.148814 0.148154,-0.261661 -0.0026,-0.443298 C 60.721485,10.077606 60.603182,9.7185726 60.569814,9.4137691 60.497831,8.7562417 60.152163,8.3402163 58.913842,7.420739 54.856588,4.4081494 49.514762,3.8841061 44.846757,6.0407309 c -1.25843,0.5813966 -3.408245,1.9954453 -3.408245,2.241786 0,0.048635 0.112622,-0.00504 0.250272,-0.11928 0.193221,-0.1603595 0.333675,-0.1556201 0.616155,0.020791 0.201236,0.125674 0.365884,0.288662 0.365884,0.3621957 0,0.073534 0.083,0.1336974 0.18445,0.1336974 0.238482,0 1.048591,0.8725092 1.045456,1.1259838 -0.01214,0.981488 -0.645323,1.3098 -1.053862,0.546438 -0.284769,-0.5320964 -0.422386,-0.5458581 -0.880222,-0.08802 -0.269581,0.269581 -0.352089,0.586814 -0.352089,1.353746 0,0.784372 0.301423,2.929461 0.447061,3.181531 0.07286,0.126106 2.810618,-1.304607 3.596642,-1.879553 0.48177,-0.352396 0.537547,-0.457718 0.32631,-0.616155 -0.140134,-0.105107 -0.301957,-0.317095 -0.359606,-0.471085 -0.07348,-0.196287 -0.260687,-0.257104 -0.626247,-0.203452 -0.452825,0.06646 -0.546237,0.0054 -0.70997,-0.464315 -0.255803,-0.733796 0.08427,-0.931405 0.535913,-0.311404 0.235084,0.322719 0.500453,0.466953 0.859126,0.466953 0.298912,0 0.561943,0.111973 0.620307,0.264066 0.06606,0.172153 0.33988,0.264067 0.786674,0.264067 0.660769,0 1.38952,0.458395 1.38952,0.874028 0,0.09342 0.160659,0.255832 0.35702,0.360921 0.196361,0.105089 0.309356,0.268192 0.251101,0.362451 -0.113467,0.183593 0.561032,2.400292 0.836538,2.749234 0.09102,0.115275 0.278521,0.166214 0.416678,0.113198 0.165562,-0.06353 0.251196,0.02271 0.251196,0.252975 0,0.484115 0.422996,0.821389 0.660546,0.526684 0.183323,-0.227432 0.02172,-0.898385 -0.258017,-1.071274 -0.08265,-0.05108 -0.119994,-0.395874 -0.08298,-0.766203 0.05479,-0.548199 0.203356,-0.77471 0.79945,-1.218885 0.402684,-0.300057 0.984012,-0.6758 1.29184,-0.834984 l 0.559687,-0.289426 0.345494,0.485201 c 0.190022,0.266861 0.373306,0.682214 0.407299,0.923007 0.03931,0.278469 0.168537,0.4298 0.355068,0.415809 0.232447,-0.01743 0.318027,0.201611 0.412682,1.056267 0.176826,1.596607 0.748465,2.293119 1.318396,1.606395 z m -0.572144,-0.396466 c -0.219957,-0.04959 -0.308078,-0.242013 -0.308078,-0.672709 0,-0.736818 0.212218,-0.766007 0.690077,-0.09492 0.278869,0.391635 0.311931,0.546066 0.144021,0.672709 -0.119869,0.09041 -0.356578,0.13312 -0.52602,0.09492 z M 45.55672,8.5775008 c 0.05877,-0.1531556 0.106857,-0.460796 0.106857,-0.6836452 0,-0.2271259 0.135383,-0.4529339 0.308077,-0.5138481 0.169443,-0.059767 0.426908,-0.1564429 0.572145,-0.2148347 0.145236,-0.058392 0.0805,0.029098 -0.143859,0.194423 -0.236802,0.1744932 -0.366305,0.4090529 -0.308709,0.5591442 0.118288,0.3082552 -0.185506,0.9372256 -0.452683,0.9372256 -0.103777,0 -0.1406,-0.1253092 -0.08183,-0.2784648 z M 43.198956,7.6425573 c 0.519647,-0.4287927 1.23231,-0.4906286 1.23231,-0.1069245 0,0.1557716 -0.162442,0.2650524 -0.3961,0.2664704 -0.217855,0.00132 -0.594149,0.047677 -0.83621,0.10301 l -0.440111,0.1006061 z m 18.308613,3.9760797 c 0,-0.126545 0.214103,-0.305378 0.475785,-0.397407 l 0.475785,-0.167325 -0.56512,-0.614848 c -0.310817,-0.338166 -0.515312,-0.4732619 -0.454434,-0.300213 0.06325,0.179785 -0.0088,0.446647 -0.168062,0.622647 -0.167294,0.184859 -0.23801,0.463792 -0.176863,0.697621 0.109853,0.420076 0.412909,0.537161 0.412909,0.159525 z"
     id="path33" /></svg>
