<?xml version="1.0" encoding="UTF-8" standalone="no"?>
<!-- Created with Inkscape (http://www.inkscape.org/) -->

<svg
   width="95.076096mm"
   height="122.81843mm"
   viewBox="0 0 95.076095 122.81843"
   version="1.1"
   id="svg1"
   xml:space="preserve"
   inkscape:export-filename="clubSupercup.png"
   inkscape:export-xdpi="96"
   inkscape:export-ydpi="96"
   sodipodi:docname="juventus.svg"
   xmlns:inkscape="http://www.inkscape.org/namespaces/inkscape"
   xmlns:sodipodi="http://sodipodi.sourceforge.net/DTD/sodipodi-0.dtd"
   xmlns="http://www.w3.org/2000/svg"
   xmlns:svg="http://www.w3.org/2000/svg"><sodipodi:namedview
     id="namedview1"
     pagecolor="#ffffff"
     bordercolor="#000000"
     borderopacity="0.25"
     inkscape:showpageshadow="2"
     inkscape:pageopacity="0.0"
     inkscape:pagecheckerboard="0"
     inkscape:deskcolor="#d1d1d1"
     inkscape:document-units="mm"><inkscape:page
       x="0"
       y="0"
       width="95.076096"
       height="122.81843"
       id="page2"
       margin="0"
       bleed="0" /></sodipodi:namedview><defs
     id="defs1" /><path
     style="fill:#c3a970;fill-opacity:1"
     d="m 42.430851,120.67164 c -4.741605,-0.30231 -9.749472,-1.21493 -11.253034,-2.05072 -1.006534,-0.55951 -1.804732,-1.96456 -1.804732,-3.17682 0,-0.73373 0.03906,-0.79087 0.406256,-0.59435 1.204119,0.64442 5.242169,1.27941 10.83614,1.70399 8.435835,0.64027 20.509442,-0.11923 25.436126,-1.60008 0.429992,-0.12925 0.477723,-0.0714 0.477723,0.5793 0,1.13104 -0.825615,2.54369 -1.804732,3.08796 -1.097313,0.60997 -3.958185,1.27831 -7.196848,1.6813 -2.466629,0.30691 -12.302258,0.54759 -15.096899,0.36942 z m 1.380089,-4.66871 c -4.939385,-0.19745 -9.000663,-0.67542 -10.934552,-1.28688 -1.652825,-0.52259 -1.804732,-0.73667 -1.804732,-2.54338 0,-0.85773 0.07166,-1.55943 0.159241,-1.55933 0.08758,9e-5 0.828054,0.13936 1.645491,0.30948 6.568184,1.36695 25.659377,1.24059 31.370487,-0.20763 l 0.583884,-0.14806 v 1.73352 1.73353 l -0.918678,0.40638 c -1.062336,0.46992 -3.748304,0.95551 -6.937214,1.25415 -2.496263,0.23378 -10.397887,0.41879 -13.163927,0.30822 z m -2.865254,-4.96877 c -5.521886,-0.26396 -9.790233,-0.8883 -10.858569,-1.5883 -0.76059,-0.49836 -0.664614,-1.41134 0.255421,-2.42971 0.856163,-0.94767 1.978533,-1.42807 2.581941,-1.10514 0.213052,0.11403 1.722559,0.37973 3.354459,0.59047 4.283955,0.55319 18.767652,0.55761 23.226967,0.007 1.684013,-0.20791 3.241292,-0.47405 3.46062,-0.59143 0.618609,-0.33107 1.730189,0.14361 2.605737,1.11274 0.603842,0.66838 0.755421,0.99724 0.704051,1.52749 -0.05159,0.53251 -0.222957,0.75189 -0.80859,1.03513 -0.947524,0.45827 -3.865388,0.95956 -7.117335,1.22275 -3.817076,0.30894 -13.083472,0.4255 -17.404702,0.21893 z m 1.750567,-4.8123 c -1.25535,-0.045 -2.282455,-0.15242 -2.282455,-0.23871 0,-0.0863 0.288913,-0.9072 0.642028,-1.82423 1.022589,-2.65562 2.859164,-6.383522 3.96335,-8.044852 1.108569,-1.667923 3.786996,-4.609832 4.196969,-4.609832 0.140528,0 0.708147,-0.229156 1.261376,-0.509236 0.80231,-0.406181 0.979435,-0.44035 0.875247,-0.168841 -0.07184,0.187218 -0.175849,0.774666 -0.231126,1.305442 l -0.100504,0.965045 0.318459,-1.114544 c 0.175152,-0.612999 0.535409,-1.503794 0.80057,-1.979543 1.422018,-2.551371 1.431698,-2.580546 1.405428,-4.236205 -0.01971,-1.242422 0.07434,-1.79302 0.423035,-2.476522 0.369617,-0.724509 3.311163,-4.528398 5.286235,-6.835948 0.287957,-0.33643 -0.02816,0.508088 -0.802102,2.142821 -2.388789,5.045659 -3.412587,9.120106 -3.430039,13.650656 -0.01509,3.918072 0.94419,7.651286 3.040393,11.832209 0.452454,0.90242 0.822643,1.69067 0.822643,1.75165 0,0.061 -0.661403,0.11087 -1.469784,0.11087 h -1.469784 l -0.257759,-0.78102 c -0.141768,-0.42956 -0.863617,-2.14601 -1.604109,-3.81433 -1.490557,-3.358208 -2.110696,-5.068848 -2.52899,-6.976165 l -0.279386,-1.273929 -0.01688,1.304644 c -0.02091,1.61658 0.462329,3.215553 2.012015,6.65741 1.310595,2.91083 2.087465,4.87337 1.972868,4.98387 -0.126695,0.12217 -10.146854,0.26534 -12.547699,0.17929 z m -5.767374,-0.46234 c -0.06206,-0.10042 0.27806,-0.98421 0.755824,-1.96398 2.521606,-5.171141 4.367334,-10.758826 4.578288,-13.860126 l 0.128377,-1.887305 0.383191,0.746917 c 0.684358,1.333951 2.425193,2.481795 4.282579,2.823778 l 0.804502,0.148125 -1.157043,1.213039 c -2.130721,2.233838 -4.294885,6.041179 -6.19128,10.892112 l -0.809238,2.07001 h -1.331181 c -0.73215,0 -1.381958,-0.0822 -1.444019,-0.18257 z m -2.46008,-0.1828 c -0.831471,-0.14917 -0.893763,-0.34495 -0.443765,-1.39475 0.795449,-1.85571 2.5829,-7.40917 3.214857,-9.988298 0.872883,-3.562386 1.187525,-7.176317 0.874439,-10.043677 -0.237712,-2.177059 -1.019422,-5.487029 -1.655253,-7.008785 -0.17412,-0.41673 -0.285908,-0.788366 -0.248417,-0.825858 0.122831,-0.12283 2.661484,3.798751 3.332256,5.147498 2.138673,4.300314 2.462448,8.334019 1.053111,13.120046 -0.603675,2.050047 -2.137971,5.903664 -3.487052,8.758254 -1.204534,2.54875 -1.150322,2.50284 -2.640176,2.23557 z m 25.019287,-0.30948 c -0.556588,-0.869 -2.248144,-4.69402 -2.706226,-6.119434 -0.617272,-1.920767 -1.080921,-4.843381 -1.080921,-6.813593 0,-1.608631 0.544583,-5.777391 0.820078,-6.277668 0.07445,-0.1352 0.153853,0.555664 0.176445,1.535252 0.05176,2.244187 0.537668,5.091591 1.348853,7.904183 0.719921,2.496157 1.23805,3.799465 2.908111,7.3151 0.652004,1.37253 1.145982,2.53215 1.097728,2.57693 -0.04825,0.0448 -0.573874,0.14684 -1.168045,0.22679 -0.979454,0.13179 -1.109787,0.0993 -1.396023,-0.34756 z M 45.827994,90.150172 c -1.265076,-0.59658 -1.841715,-1.183656 -2.423855,-2.467721 -0.766421,-1.690548 -0.504865,-3.388694 0.747252,-4.851511 1.034683,-1.208795 2.115666,-1.730453 3.585856,-1.730453 1.366762,0 2.50673,0.417387 3.365146,1.232112 2.077188,1.971463 2.010409,5.499275 -0.135074,7.135714 -1.681085,1.282226 -3.386434,1.508483 -5.139325,0.681859 z m 3.634111,-0.750703 c 1.088223,-0.494182 1.902877,-1.537869 2.185798,-2.800319 0.836312,-3.731792 -3.985393,-6.253002 -6.590172,-3.445919 -1.090252,1.174927 -1.370595,2.336681 -0.925522,3.835403 0.679379,2.287718 3.145068,3.403006 5.329896,2.410835 z M 46.252636,89.0813 c -0.925539,-0.41136 -1.530556,-1.159963 -1.823583,-2.25637 -0.32613,-1.220268 -0.121104,-2.340714 0.581005,-3.175122 1.394626,-1.657419 3.644081,-1.83107 5.266509,-0.406559 1.839275,1.614904 1.404043,4.740615 -0.806132,5.789412 -0.878684,0.416962 -2.339409,0.439042 -3.217799,0.04864 z M 41.724473,82.888091 C 41.227864,81.86592 40.303259,80.516523 36.281065,74.943805 35.05918,73.250892 33.543949,70.957821 32.913887,69.848091 29.265062,63.421412 26.450359,54.683577 24.979894,45.218171 c -0.564379,-3.632912 -0.547738,-12.341469 0.0284,-14.862498 0.469364,-2.053816 1.439603,-4.722229 1.755268,-4.82745 0.12995,-0.04332 0.269583,1.117806 0.361305,3.004452 0.133218,2.740163 0.102746,3.232327 -0.279798,4.51916 -1.632288,5.49083 -0.914111,12.926712 2.127115,22.023786 3.599905,10.768224 7.893852,17.483048 13.545187,21.181806 3.847434,2.518118 7.085329,2.446734 11.04694,-0.243544 4.83123,-3.280826 8.90066,-9.281854 12.172475,-17.950268 2.497454,-6.616808 3.708974,-11.954131 3.910104,-17.225877 0.127234,-3.334877 -0.206554,-6.426904 -0.908594,-8.416697 -0.248584,-0.704562 -0.265425,-1.262971 -0.08973,-2.97511 0.118962,-1.159263 0.217759,-2.599237 0.219547,-3.199942 0.0038,-1.282618 0.160936,-1.128025 0.939972,0.924863 1.21247,3.195062 1.720299,7.246568 1.53025,12.20848 -0.173409,4.527487 -1.078789,10.483958 -2.16227,14.225534 -3.347221,11.558919 -5.839096,16.582531 -12.156698,24.507856 -1.34966,1.693125 -2.738217,3.535738 -3.085684,4.094694 -0.347466,0.558957 -0.689134,1.012559 -0.759262,1.008005 -0.07013,-0.0046 -0.423748,-0.411551 -0.785824,-0.904436 -0.367706,-0.50055 -1.164401,-1.176413 -1.804732,-1.531017 -0.987005,-0.546585 -1.367834,-0.634866 -2.738822,-0.634894 -1.388549,-2.9e-5 -1.741909,0.08429 -2.760178,0.658647 -1.02739,0.579499 -1.970526,1.547883 -2.655603,2.726693 -0.182419,0.313889 -0.286166,0.219337 -0.704793,-0.642323 z m 3.251603,-6.74786 c -4.248316,-1.37677 -8.280174,-5.707455 -11.788683,-12.66242 -0.795786,-1.577497 -2.540379,-5.722996 -2.540379,-6.036443 0,-0.11507 0.489666,0.646674 1.088147,1.692764 2.071176,3.620228 4.055189,6.28038 6.661584,8.931808 3.931038,3.998959 6.083359,5.178656 9.448302,5.178656 3.271415,0 5.401934,-1.133527 9.152457,-4.869495 2.452586,-2.443068 4.922044,-5.62623 6.62496,-8.539654 0.597455,-1.022152 1.117555,-1.827185 1.155778,-1.788962 0.137757,0.137757 -1.285034,3.464998 -2.504687,5.857289 -1.699584,3.333652 -3.488967,5.989235 -5.415813,8.037485 -3.797286,4.036538 -7.904271,5.487943 -11.881666,4.198972 z m 1.807364,-4.590475 c -3.262701,-0.478147 -6.579557,-3.768789 -9.871182,-9.793169 -2.509083,-4.59216 -4.94271,-11.027423 -6.350919,-16.793793 -1.827293,-7.482451 -2.443858,-13.976421 -2.364555,-24.904709 0.04032,-5.556009 0.151084,-8.397413 0.40557,-10.403749 0.447418,-3.5273899 0.923084,-5.8698644 1.260447,-6.2072281 0.739994,-0.739994 17.888733,-1.3503772 26.050459,-0.9272265 5.999474,0.3110472 9.817407,0.6440173 10.062015,0.8775297 0.280574,0.2678471 0.935509,4.3182469 1.30354,8.0616569 0.675829,6.874146 0.322909,19.489163 -0.745463,26.646336 -1.832392,12.275451 -7.158168,25.127936 -12.677278,30.593578 -2.377542,2.354509 -4.532352,3.22305 -7.072634,2.850774 z M 29.442044,65.114405 C 23.22647,54.646219 19.492473,40.53083 19.886492,28.992168 c 0.159385,-4.667528 0.700412,-7.216339 1.716129,-8.084798 0.282884,-0.241871 0.70265,-1.064344 0.975264,-1.910892 0.688238,-2.137191 2.048644,-4.666965 2.922111,-5.433879 0.665536,-0.584348 0.775946,-0.620145 0.95053,-0.30818 0.108641,0.19413 0.251943,2.539906 0.318449,5.212835 l 0.12092,4.859871 -0.78327,1.606309 c -1.778535,3.64737 -2.34937,6.601619 -2.340026,12.110363 0.01158,6.828673 1.13586,13.766941 3.389145,20.915496 0.713153,2.262481 2.323039,6.607348 2.764531,7.461098 0.562078,1.086939 0.218183,0.866905 -0.478231,-0.305986 z m 36.958611,-1.006114 c 3.706634,-9.00992 5.685754,-18.261626 5.698784,-26.639851 0.0086,-5.501092 -0.653138,-8.961675 -2.375156,-12.421789 l -0.792996,-1.593398 0.08147,-4.457762 c 0.0918,-5.023421 0.173117,-5.837852 0.582865,-5.837852 0.369149,0 1.415191,1.193278 2.159705,2.463695 0.32049,0.546876 0.893554,1.898666 1.273476,3.003978 0.412274,1.199436 0.865274,2.131889 1.123614,2.312837 0.554679,0.388513 1.169762,2.388847 1.524774,4.958774 0.780241,5.648157 -0.263885,15.350888 -2.46761,22.930711 -1.330684,4.576956 -2.600361,7.820374 -4.779162,12.208481 -2.475496,4.985648 -3.380429,6.355325 -2.029759,3.072176 z m -1.569896,-6.469318 c 0,-0.05839 0.04777,-0.106161 0.106161,-0.106161 0.05839,0 0.10616,0.04777 0.10616,0.106161 0,0.05839 -0.04777,0.10616 -0.10616,0.10616 -0.05839,0 -0.106161,-0.04777 -0.106161,-0.10616 z M 65.04308,57.21433 c 0,-0.05839 0.04777,-0.106161 0.106161,-0.106161 0.05839,0 0.106161,0.04777 0.106161,0.106161 0,0.05839 -0.04777,0.10616 -0.106161,0.10616 -0.05839,0 -0.106161,-0.04777 -0.106161,-0.10616 z"
     id="path33"
     sodipodi:nodetypes="sssssssssssssssscccssscssscssssssccsssssssscsssssssssscssscssssscsscsscsscscsssssssssscsssssssscssssssssssssssssssssssssssssssssscssssscsssssssssssssssssssssssssssssssssssssscsssssscscssssssssssssssssssss" /></svg>
