<?xml version="1.0" encoding="UTF-8" standalone="no"?>
<!-- Created with Inkscape (http://www.inkscape.org/) -->

<svg
   width="95.076096mm"
   height="122.81843mm"
   viewBox="0 0 95.076095 122.81843"
   version="1.1"
   id="svg1"
   xml:space="preserve"
   inkscape:export-filename="clubSupercup.svg"
   inkscape:export-xdpi="96"
   inkscape:export-ydpi="96"
   sodipodi:docname="juventus.svg"
   xmlns:inkscape="http://www.inkscape.org/namespaces/inkscape"
   xmlns:sodipodi="http://sodipodi.sourceforge.net/DTD/sodipodi-0.dtd"
   xmlns="http://www.w3.org/2000/svg"
   xmlns:svg="http://www.w3.org/2000/svg"><sodipodi:namedview
     id="namedview1"
     pagecolor="#ffffff"
     bordercolor="#000000"
     borderopacity="0.25"
     inkscape:showpageshadow="2"
     inkscape:pageopacity="0.0"
     inkscape:pagecheckerboard="0"
     inkscape:deskcolor="#d1d1d1"
     inkscape:document-units="mm"><inkscape:page
       x="0"
       y="0"
       width="95.076096"
       height="122.81843"
       id="page2"
       margin="0"
       bleed="0" /></sodipodi:namedview><defs
     id="defs1" /><path
     style="fill:#c3a970;fill-opacity:1"
     d="m 26.591236,118.61562 c 0,-0.80444 0.751109,-2.05189 1.466486,-2.43555 0.606,-0.325 1.508452,-0.33971 20.846933,-0.33971 h 20.213511 l 0.639939,0.39551 c 0.620602,0.38355 1.135825,1.26637 1.398758,2.39673 l 0.117124,0.50352 H 48.932611 26.591236 Z m 2.635323,-3.79727 c 0.06113,-0.15929 0.111138,-0.32054 0.111138,-0.35832 0,-0.0378 1.067633,-0.40427 2.372518,-0.8144 4.171559,-1.31116 7.011292,-3.02784 8.475471,-5.12363 0.380373,-0.54446 0.782144,-1.32459 0.892826,-1.73364 0.252116,-0.93174 0.111914,-2.60744 -0.281872,-3.36894 l -0.299403,-0.57898 h 8.355225 c 7.88705,0 8.347611,0.018 8.219357,0.32042 -0.707921,1.66952 -0.772224,2.28041 -0.377943,3.59051 0.857256,2.84844 3.830583,5.0961 8.887084,6.71811 2.108733,0.67643 2.939589,1.09581 2.939589,1.48377 0,0.0851 -8.866154,0.15472 -19.702564,0.15472 -17.890937,0 -19.692345,-0.0266 -19.591426,-0.28962 z M 39.8658,101.9142 c -0.302111,-0.1926 -0.652285,-0.4907 -0.778164,-0.66245 -0.290514,-0.39638 -0.295467,-1.20103 -0.0092,-1.487344 0.316838,-0.316838 19.201349,-0.316838 19.518187,0 0.266371,0.266374 0.285428,0.963254 0.03894,1.423834 -0.09943,0.18578 -0.459329,0.50994 -0.799776,0.72035 l -0.618994,0.38256 -8.400871,-0.0134 c -7.946489,-0.0127 -8.43058,-0.0323 -8.950162,-0.36357 z M 38.094693,96.294709 C 29.04457,80.030273 23.243144,60.093974 22.52891,42.803706 22.47518,41.50299 22.493293,41.43453 22.989136,41.06428 l 0.516157,-0.385419 24.094591,-0.05161 c 13.969782,-0.02992 24.74418,0.01977 25.640453,0.118257 0.891887,0.098 1.657077,0.281079 1.808751,0.432753 0.223413,0.223413 0.2336,0.727063 0.06784,3.354081 -0.801758,12.706751 -3.872428,25.620807 -9.238549,38.85379 -1.746783,4.30761 -4.54581,10.055963 -6.796632,13.958224 l -0.846708,1.467941 h -9.369735 -9.369736 z m 26.397712,-7.800933 c 0,-0.03579 0.377014,-0.92152 0.837809,-1.968297 3.830457,-8.701561 8.15898,-21.037906 11.589352,-33.029797 5.198511,-18.172947 6.182659,-33.613515 2.612069,-40.98147 -1.771001,-3.6544804 -5.15988,-6.3476708 -8.713248,-6.924542 -2.547775,-0.4136184 -4.686542,0.6743272 -5.912344,3.0074847 -0.438778,0.8351596 -0.502027,1.162626 -0.503501,2.6068683 -0.0015,1.492046 0.05508,1.766411 0.585463,2.838011 0.716373,1.447372 1.754719,2.550845 3.671089,3.901348 2.829072,1.993701 4.722923,4.600893 5.183447,7.135854 0.429492,2.364137 -0.724839,4.938454 -3.002271,6.69548 -0.966271,0.745473 -1.953526,2.199705 -1.953526,2.877553 0,0.532438 -0.290742,0.07815 -0.641526,-1.002403 -0.309792,-0.954279 -0.309026,-0.993032 0.02327,-1.176647 0.581283,-0.321197 2.643259,-2.370416 3.208547,-3.188695 0.294345,-0.426076 0.667721,-1.31181 0.829725,-1.968297 0.270673,-1.096842 0.270673,-1.290383 0,-2.387225 -0.496607,-2.01239 -1.669097,-3.419212 -3.694546,-4.43293 -3.711411,-1.857525 -5.571174,-4.128871 -6.221242,-7.59806 -0.262744,-1.402179 -0.264803,-1.697 -0.02005,-2.870852 0.355962,-1.7072043 1.049501,-2.9626856 2.368436,-4.2874684 1.926735,-1.9352787 4.358919,-2.6933578 6.875228,-2.1429167 4.353292,0.9522801 7.839841,3.8359914 9.814406,8.1174571 1.594452,3.457265 2.181649,6.968352 2.180008,13.035152 -0.0021,7.745745 -1.020965,14.655961 -3.536555,23.985765 -3.733464,13.84664 -9.46383,28.884849 -14.590473,38.289801 -0.727381,1.334398 -0.989567,1.723564 -0.989567,1.468826 z M 31.824639,86.205857 C 25.905001,75.529692 18.12981,53.451832 15.527714,39.930304 14.321056,33.660031 13.757057,26.235907 14.113302,21.311892 14.588158,14.748446 16.059967,10.759729 19.252646,7.3838671 22.084046,4.390014 26.864001,2.7318175 29.808598,3.721941 c 1.869255,0.6285385 3.993259,2.4332868 4.857533,4.1274047 1.71974,3.3709693 0.722903,7.8332063 -2.371379,10.6152323 -0.501671,0.451045 -1.741613,1.256175 -2.755428,1.789177 -2.822815,1.484065 -4.021451,3.013746 -4.188857,5.345758 -0.163913,2.283347 0.714538,3.999812 3.046296,5.952364 0.774513,0.648557 1.282668,1.215075 1.288862,1.436892 0.0056,0.201407 -0.165498,0.736967 -0.38027,1.190133 l -0.390495,0.823939 -0.119376,-0.646148 c -0.156422,-0.846671 -0.660135,-1.504308 -2.266737,-2.959401 -3.332724,-3.018437 -3.558593,-6.582676 -0.665341,-10.499127 0.743067,-1.005854 1.693626,-1.849488 3.790225,-3.363879 2.186803,-1.579546 3.296217,-3.175768 3.735872,-5.375158 0.174402,-0.872457 0.160022,-1.261355 -0.08307,-2.246423 C 32.85004,8.063267 31.838231,6.7999381 30.070087,5.8718515 29.157583,5.3928845 26.69319,5.4347701 25.250891,5.9537599 21.311572,7.371265 18.340777,10.781156 17.01111,15.411414 c -1.391175,4.844445 -1.362744,13.660501 0.07204,22.337888 1.488955,9.005015 4.917775,21.228304 9.553264,34.056124 1.636102,4.527594 4.866498,12.733389 5.976033,15.180211 0.315445,0.695642 0.540582,1.297759 0.500304,1.338037 -0.04028,0.04028 -0.619927,-0.912739 -1.28811,-2.117817 z M 25.928512,39.615283 c 2.248765,-1.424479 3.77278,-3.113149 4.535657,-5.025689 0.348371,-0.873368 0.42032,-1.40054 0.424647,-3.111379 l 0.0052,-2.059846 h 18.044604 18.044604 l -0.179027,1.0825 c -0.515076,3.114442 1.28454,6.674862 4.371256,8.648236 l 1.098584,0.702339 -23.344923,-0.009 c -18.134783,-0.007 -23.268079,-0.0577 -23.000611,-0.227133 z m 3.536249,-11.300275 c -0.58475,-0.459965 -0.757748,-0.965801 -0.49696,-1.453088 l 0.199683,-0.37311 h 19.639913 c 15.031358,0 19.69147,0.05156 19.85963,0.219716 0.356309,0.35631 0.252683,1.045644 -0.229704,1.528032 l -0.449421,0.449421 H 48.962138 29.936374 Z"
     id="path33" /></svg>
