<?xml version="1.0" standalone="no"?>
<!DOCTYPE svg PUBLIC "-//W3C//DTD SVG 20010904//EN"
 "http://www.w3.org/TR/2001/REC-SVG-20010904/DTD/svg10.dtd">
<svg version="1.0" xmlns="http://www.w3.org/2000/svg"
 width="500.000000pt" height="500.000000pt" viewBox="0 0 500.000000 500.000000"
 preserveAspectRatio="xMidYMid meet">

<g transform="translate(0.000000,500.000000) scale(0.100000,-0.100000)"
fill="#000000" stroke="none">
<path d="M0 2500 l0 -2500 2500 0 2500 0 0 2500 0 2500 -2500 0 -2500 0 0
-2500z m2413 1416 c-56 -29 -128 -74 -160 -98 -32 -24 -84 -64 -116 -87 -56
-43 -109 -105 -141 -168 -22 -44 -62 -47 -51 -5 13 54 86 161 150 220 73 66
192 133 300 168 122 40 129 28 18 -30z m447 -54 c20 -8 8 -11 -65 -16 -330
-24 -499 -99 -608 -272 -36 -57 -42 -84 -21 -84 26 0 104 -49 104 -65 0 -20
-52 -45 -96 -45 -33 0 -36 -2 -29 -22 4 -13 10 -79 14 -148 5 -85 12 -135 23
-156 17 -32 76 -89 123 -120 15 -10 53 -56 84 -103 31 -47 75 -100 99 -118 52
-40 163 -76 302 -98 58 -9 150 -25 204 -36 119 -23 155 -24 203 -4 20 8 38 13
41 10 13 -13 -56 -91 -114 -127 -46 -29 -63 -45 -60 -57 3 -9 10 -47 16 -86
22 -142 39 -186 98 -264 50 -66 56 -78 54 -118 -1 -38 7 -58 59 -145 75 -126
129 -232 129 -256 0 -28 -20 -42 -61 -42 -27 0 -39 5 -43 18 -2 9 -12 49 -22
87 -37 153 -58 181 -234 315 -140 106 -214 172 -252 224 -22 30 -29 35 -34 22
-11 -29 5 -64 41 -86 l34 -21 -6 -63 c-6 -72 4 -99 47 -121 21 -11 31 -25 36
-51 11 -58 -6 -61 -76 -14 -69 47 -83 72 -78 147 l3 52 -60 -2 c-47 -1 -68 3
-96 21 -53 32 -92 122 -53 122 19 0 116 41 111 47 -3 2 -38 -5 -78 -17 -40
-11 -97 -20 -126 -20 -43 0 -53 3 -58 20 -12 38 -46 60 -91 60 -37 0 -47 6
-82 43 -77 80 -104 128 -66 113 8 -3 61 -15 116 -26 71 -15 104 -18 112 -10 5
5 11 40 13 78 l3 67 -14 -58 c-7 -33 -19 -62 -26 -67 -15 -9 -53 -4 -158 20
-41 10 -75 13 -78 8 -6 -9 39 -82 84 -137 24 -28 39 -36 93 -45 54 -10 66 -16
77 -39 7 -15 10 -37 7 -48 -6 -19 -12 -21 -61 -16 -29 3 -66 13 -81 22 -52 31
-212 263 -213 308 0 21 46 43 109 53 23 4 43 10 46 13 2 4 -7 29 -21 57 -13
27 -21 38 -17 24 17 -64 13 -71 -60 -89 -37 -10 -73 -23 -79 -29 -15 -15 11
-75 69 -159 23 -35 41 -63 39 -63 -2 0 -20 7 -39 15 -52 22 -75 19 -107 -13
l-28 -29 46 -93 c53 -105 79 -130 146 -137 55 -7 68 -20 64 -65 -3 -31 -6 -33
-43 -36 -54 -5 -107 12 -140 45 -15 16 -48 70 -72 122 -24 52 -58 115 -74 140
l-31 45 20 40 c43 87 44 113 11 185 -41 88 -69 210 -69 299 0 46 -4 71 -10 67
-6 -4 -10 11 -10 37 0 33 -3 40 -11 28 -8 -11 -9 -4 -6 30 3 25 8 53 12 63 6
13 3 16 -9 11 -25 -10 -20 5 33 98 63 110 70 148 26 148 -15 0 -39 7 -56 15
-33 18 -52 12 -107 -36 -37 -33 -58 -38 -47 -11 17 41 17 55 1 64 -9 5 -16 14
-16 20 0 6 -8 20 -17 30 -16 17 -15 20 3 46 26 35 91 67 184 90 42 11 86 24
97 31 12 6 38 11 57 11 37 0 35 -2 104 101 91 139 243 220 492 263 43 8 294
-2 320 -12z"/>
<path d="M2698 2193 c7 -3 16 -2 19 1 4 3 -2 6 -13 5 -11 0 -14 -3 -6 -6z"/>
</g>
</svg>
