<?xml version="1.0" encoding="UTF-8" standalone="no"?>
<svg
   version="1.0"
   width="760.000000pt"
   height="1032.000000pt"
   viewBox="0 0 760.000000 1032.000000"
   preserveAspectRatio="xMidYMid meet"
   id="svg2"
   sodipodi:docname="descarga (1).svg"
   inkscape:version="1.4.4 (dcaf3e7, 2026-05-05)"
   xmlns:inkscape="http://www.inkscape.org/namespaces/inkscape"
   xmlns:sodipodi="http://sodipodi.sourceforge.net/DTD/sodipodi-0.dtd"
   xmlns="http://www.w3.org/2000/svg"
   xmlns:svg="http://www.w3.org/2000/svg">
  <defs
     id="defs2" />
  <sodipodi:namedview
     id="namedview2"
     pagecolor="#505050"
     bordercolor="#eeeeee"
     borderopacity="1"
     inkscape:showpageshadow="0"
     inkscape:pageopacity="0"
     inkscape:pagecheckerboard="0"
     inkscape:deskcolor="#505050"
     inkscape:document-units="pt"
     inkscape:zoom="0.56177326"
     inkscape:cx="507.32212"
     inkscape:cy="688"
     inkscape:window-width="2400"
     inkscape:window-height="1411"
     inkscape:window-x="-9"
     inkscape:window-y="1341"
     inkscape:window-maximized="1"
     inkscape:current-layer="svg2" />
  <g
     transform="translate(0.000000,1032.000000) scale(0.100000,-0.100000)"
     fill="#000000"
     stroke="none"
     id="g2"
     style="fill:#c3a970;fill-opacity:1">
    <path
       d="M3580 10296 c-607 -160 -1272 -527 -1600 -884 -231 -253 -456 -602 -505 -784 -28 -105 -2 -154 67 -124 49 21 98 79 161 192 100 180 254 375 405 515 78 71 634 494 772 586 133 89 306 191 521 308 218 119 329 189 329 205 0 16 -58 10 -150 -14z"
       id="path1"
       style="fill:#c3a970;fill-opacity:1" />
    <path
       d="M4015 9930 c-167 -14 -567 -105 -818 -186 -441 -144 -780 -338 -1038 -594 -110 -109 -182 -202 -329 -419 -204 -302 -224 -321 -342 -321 -94 -1 -202 -24 -301 -64 -49 -19 -163 -56 -255 -81 -394 -109 -598 -187 -740 -284 -96 -66 -192 -180 -192 -229 0 -12 22 -52 50 -88 27 -35 54 -82 60 -103 7 -26 27 -54 65 -88 67 -62 69 -82 25 -215 -16 -49 -30 -98 -30 -110 0 -45 74 -1 265 157 173 143 231 155 401 86 61 -25 131 -45 180 -52 101 -14 129 -24 143 -55 35 -78 -20 -223 -223 -588 -145 -259 -186 -341 -186 -373 0 -26 5 -27 49 -12 53 19 63 8 45 -48 -24 -78 -54 -270 -54 -341 1 -67 1 -67 19 -44 40 47 47 31 55 -123 6 -113 18 -158 40 -149 25 10 36 -60 45 -297 6 -130 19 -282 31 -362 42 -273 141 -613 248 -852 86 -192 97 -235 96 -360 0 -98 -4 -119 -33 -198 -17 -48 -65 -158 -106 -244 l-75 -156 79 -116 c97 -144 162 -262 334 -608 241 -481 310 -576 483 -662 125 -62 282 -88 425 -72 139 16 152 28 165 154 17 165 -48 224 -281 257 -148 21 -223 53 -309 131 -85 78 -178 228 -338 543 l-142 283 66 72 c81 89 156 147 211 162 84 23 151 7 395 -90 34 -13 51 -17 46 -9 -4 7 -77 121 -162 252 -162 251 -236 384 -271 488 -27 78 -28 149 -3 171 30 27 134 65 321 119 96 27 192 58 212 69 72 36 88 86 64 199 -9 41 -18 87 -22 103 -11 55 16 25 65 -71 61 -120 102 -222 102 -255 0 -22 -7 -28 -54 -41 -29 -9 -110 -27 -179 -41 -190 -38 -299 -80 -368 -142 -57 -52 -54 -81 25 -240 208 -414 685 -1044 847 -1117 139 -64 447 -109 511 -75 23 13 48 67 48 107 0 48 -29 140 -57 183 -43 66 -94 86 -340 135 -134 26 -192 47 -257 92 -105 72 -428 545 -438 642 -3 24 -1 25 69 28 51 2 114 -6 215 -27 79 -16 208 -44 287 -60 212 -45 329 -58 381 -42 38 11 44 18 72 79 17 37 51 150 76 252 25 102 48 189 53 194 15 17 -15 -426 -36 -529 -9 -40 -22 -75 -32 -82 -23 -17 -127 -16 -243 2 -129 21 -554 110 -665 139 -50 14 -94 21 -99 16 -33 -32 121 -241 350 -476 139 -142 161 -154 331 -170 100 -9 145 -18 186 -37 94 -43 153 -108 192 -210 28 -74 51 -82 220 -81 173 0 294 19 570 89 250 63 309 74 303 54 -10 -33 -278 -152 -426 -190 -43 -10 -83 -27 -90 -37 -37 -48 29 -219 132 -343 61 -74 177 -158 254 -183 78 -26 194 -35 376 -29 149 6 169 4 164 -9 -14 -36 -20 -374 -8 -433 28 -138 123 -250 331 -388 243 -162 320 -165 303 -14 -17 158 -51 216 -170 288 -180 109 -210 202 -179 562 9 109 15 200 13 201 -1 2 -41 27 -88 56 -157 96 -221 180 -228 298 -6 82 11 124 47 120 20 -2 48 -30 113 -113 200 -250 447 -470 1068 -947 425 -327 570 -457 688 -616 120 -162 175 -308 292 -772 54 -213 77 -291 94 -307 47 -49 219 -54 308 -10 53 27 88 77 88 127 0 106 -170 450 -520 1050 -238 407 -250 438 -259 637 -7 138 -8 143 -44 215 -21 40 -94 149 -162 241 -266 362 -323 503 -410 1020 -19 116 -47 275 -62 351 -25 135 -25 140 -8 172 20 38 93 97 215 176 219 141 468 394 495 501 11 40 -10 42 -111 6 -189 -66 -211 -71 -349 -71 -148 0 -233 11 -635 87 -157 29 -449 81 -650 115 -201 34 -444 80 -540 102 -325 74 -648 194 -796 296 -117 80 -286 273 -464 532 -185 269 -261 355 -408 466 -199 150 -406 364 -453 470 -40 89 -68 297 -94 694 -18 280 -42 521 -55 556 -15 40 -12 81 7 88 9 4 69 11 132 16 122 9 195 29 282 77 53 28 99 74 99 98 0 27 -61 84 -155 145 -109 70 -185 106 -259 122 -28 6 -54 16 -58 22 -29 44 32 194 152 375 369 560 885 856 1760 1010 179 32 403 59 726 86 163 14 304 29 312 34 59 33 -222 63 -758 81 -321 11 -379 11 -515 0z"
       id="path2"
       style="fill:#c3a970;fill-opacity:1" />
  </g>
</svg>
