<?xml version="1.0" encoding="UTF-8" standalone="no"?>
<!-- Created with Inkscape (http://www.inkscape.org/) -->

<svg
   width="95.076096mm"
   height="122.81843mm"
   viewBox="0 0 95.076095 122.81843"
   version="1.1"
   id="svg1"
   xml:space="preserve"
   inkscape:export-filename="spainLeague.svg"
   inkscape:export-xdpi="96"
   inkscape:export-ydpi="96"
   sodipodi:docname="juventus.svg"
   xmlns:inkscape="http://www.inkscape.org/namespaces/inkscape"
   xmlns:sodipodi="http://sodipodi.sourceforge.net/DTD/sodipodi-0.dtd"
   xmlns="http://www.w3.org/2000/svg"
   xmlns:svg="http://www.w3.org/2000/svg"><sodipodi:namedview
     id="namedview1"
     pagecolor="#ffffff"
     bordercolor="#000000"
     borderopacity="0.25"
     inkscape:showpageshadow="2"
     inkscape:pageopacity="0.0"
     inkscape:pagecheckerboard="0"
     inkscape:deskcolor="#d1d1d1"
     inkscape:document-units="mm"><inkscape:page
       x="0"
       y="0"
       width="95.076096"
       height="122.81843"
       id="page2"
       margin="0"
       bleed="0" /></sodipodi:namedview><defs
     id="defs1" /><path
     style="fill:#c3a970;fill-opacity:1"
     d="m 44.793869,118.00827 c -8.338404,-0.26772 -16.384302,-1.56122 -19.511955,-3.13686 -1.408049,-0.70934 -1.501047,-0.90501 -1.501047,-3.15821 0,-2.08 0.131929,-2.62459 0.807328,-3.33257 l 0.445388,-0.46687 0.335552,0.36017 c 1.126395,1.20904 6.504,2.42732 13.554705,3.07076 3.27925,0.29926 16.408636,0.29957 19.566763,4.6e-4 6.91746,-0.65516 12.164174,-1.84012 13.335964,-3.01191 0.361023,-0.36102 0.651251,-0.24119 1.20296,0.49668 0.301358,0.40304 0.356485,0.76724 0.405078,2.67615 l 0.05625,2.20962 -0.601194,0.567 c -2.547764,2.40285 -15.558416,4.1281 -28.095788,3.72558 z m 1.020875,-6.97472 c -9.156966,-0.2489 -17.679441,-1.53792 -19.833378,-2.99979 -0.548395,-0.37219 -0.583924,-0.45413 -0.581012,-1.33997 0.0025,-0.76827 0.09154,-1.05949 0.47923,-1.56777 0.26187,-0.34333 0.670617,-0.75167 0.908325,-0.90742 0.389229,-0.25503 0.446973,-0.25679 0.580812,-0.0176 0.164657,0.29423 1.441165,0.83792 2.877685,1.22567 7.137596,1.92662 23.123627,2.30107 32.838133,0.7692 3.272768,-0.51607 5.883985,-1.27565 6.49874,-1.8904 l 0.334427,-0.33443 0.636898,0.44137 c 1.322438,0.91645 1.825314,2.78209 0.938029,3.48003 -0.981207,0.77182 -4.160414,1.62988 -8.298561,2.23978 -4.043682,0.59597 -12.493028,1.03419 -17.379328,0.90136 z m 29.640792,-2.73069 c -0.0556,-0.82341 -0.296097,-3.98549 -0.534433,-7.02684 -0.743907,-9.49284 -0.910302,-12.484961 -0.706097,-12.697124 0.172928,-0.179667 8.737498,-1.119878 8.9668,-0.984368 0.05783,0.03417 0.196352,0.925228 0.307833,1.98012 0.212186,2.007801 0.259027,2.43907 1.379176,12.698062 0.381714,3.49596 0.670595,6.54248 0.641958,6.77003 -0.05036,0.40021 -0.134726,0.36624 -2.580323,-1.03923 -1.390541,-0.79914 -2.591805,-1.45297 -2.669475,-1.45297 -0.07767,0 -1.072267,0.69441 -2.210215,1.54314 -1.137948,0.84873 -2.164651,1.57986 -2.281563,1.62472 -0.155717,0.0597 -0.239605,-0.31883 -0.313661,-1.41554 z m -56.261967,-0.57974 c -1.629441,-1.29358 -2.199861,-1.65788 -2.464415,-1.57391 -0.189326,0.0601 -1.364529,0.7191 -2.611562,1.46447 -1.247032,0.74536 -2.292009,1.3279 -2.322171,1.29452 -0.03016,-0.0334 0.04536,-0.90292 0.16782,-1.9323 0.436217,-3.6667 1.759405,-15.176584 1.970828,-17.143446 0.11827,-1.10026 0.265739,-2.082512 0.32771,-2.182783 0.126435,-0.204576 8.636523,0.581588 8.839495,0.816594 0.12859,0.148886 0.0082,2.070994 -0.509057,8.130742 -0.337498,3.953463 -1.197335,12.736003 -1.2517,12.785103 -0.01472,0.0133 -0.980846,-0.73325 -2.146948,-1.65899 z m 23.24376,-1.36023 c -6.490363,-0.30864 -13.316881,-1.48336 -14.584363,-2.5097 -0.34937,-0.28291 -0.368952,-0.36823 -0.185922,-0.81011 0.230823,-0.55725 1.037313,-1.47055 1.657294,-1.87678 0.908797,-0.59547 1.942943,-3.698101 1.942943,-5.829199 0,-0.895699 -0.0395,-1.000436 -0.447352,-1.186267 -0.246043,-0.112105 -0.41694,-0.234238 -0.379771,-0.271407 0.03717,-0.03717 0.908426,0.07584 1.936127,0.251132 5.462242,0.931679 14.09268,1.364179 20.980835,1.051421 6.113052,-0.277565 11.571819,-0.857872 13.069937,-1.38943 l 0.485762,-0.172357 -0.568369,0.492776 -0.568368,0.492775 0.113683,1.165777 c 0.137032,1.405222 0.654245,3.426262 1.096182,4.283389 0.177405,0.34408 0.686438,0.96997 1.131185,1.39086 0.878945,0.83182 1.431308,1.62768 1.43231,2.06373 0.0012,0.5322 -2.520884,1.3665 -5.78432,1.91342 -5.756269,0.96468 -13.568132,1.30897 -21.327793,0.93997 z M 41.816318,94.464747 C 38.785682,94.280274 36.603646,94.0644 33.011275,93.593643 l -2.764869,-0.362318 v -0.727821 c 0,-0.969763 0.11959,-1.231206 0.700618,-1.531668 0.271135,-0.140209 0.602878,-0.524979 0.744155,-0.863102 0.222175,-0.531741 0.310609,-0.596133 0.688463,-0.501297 3.190673,0.800808 8.295136,1.184489 15.902215,1.195302 6.910843,0.0098 10.153455,-0.172219 14.037026,-0.78805 3.101228,-0.491772 3.01524,-0.496045 3.20606,0.159315 0.08856,0.304136 0.220624,0.552974 0.293487,0.552974 0.07286,0 0.368049,0.19822 0.65597,0.440489 0.44997,0.378625 0.523492,0.554592 0.523492,1.252929 v 0.812439 l -2.764869,0.369335 c -1.520678,0.203135 -4.028201,0.48395 -5.572274,0.624034 -3.371058,0.305835 -13.404578,0.447925 -16.844431,0.238543 z m 0.850729,-4.350375 c -0.421111,-0.03578 -1.91414,-0.145207 -3.317842,-0.243175 -1.403703,-0.09797 -3.574296,-0.328322 -4.82354,-0.511899 C 33.27642,89.17572 32.223643,89.02552 32.18616,89.02552 c -0.03748,0 -0.06815,-0.0746 -0.06815,-0.165776 0,-0.09118 0.236406,-0.288027 0.525348,-0.437445 0.324848,-0.167985 0.646394,-0.545313 0.842512,-0.988669 0.17444,-0.394351 0.377727,-0.777565 0.451749,-0.851587 0.07402,-0.07402 0.211708,-0.446993 0.305971,-0.828825 0.193009,-0.781824 0.759509,-1.292106 1.638521,-1.47592 0.400285,-0.08371 0.627148,-0.05052 0.747769,0.10937 0.836365,1.108682 22.560354,1.192582 23.661553,0.09138 0.174669,-0.174669 0.428573,-0.219281 0.82488,-0.144933 0.841982,0.157957 1.427058,0.692858 1.558086,1.424468 0.06212,0.34687 0.209045,0.745522 0.326493,0.885892 0.117449,0.140371 0.269938,0.446633 0.338866,0.680583 0.161173,0.547048 0.579063,1.021103 1.063411,1.206336 0.210555,0.08052 0.382828,0.217009 0.382828,0.303299 0,0.241665 -3.274,0.748341 -6.805831,1.053253 -2.091345,0.180551 -13.815413,0.35467 -15.313119,0.227422 z m 31.402652,-2.438994 c -0.0305,-0.05285 -0.106488,-1.014884 -0.168872,-2.137846 -0.06238,-1.122962 -0.187692,-3.151951 -0.278462,-4.508863 -0.279122,-4.172572 -0.66715,-11.5937 -0.66829,-12.78121 l -0.0011,-1.126224 1.573849,-0.202195 c 2.79145,-0.358622 6.456701,-0.716071 6.535415,-0.637357 0.08051,0.08051 2.099482,19.680379 2.099482,20.381414 0,0.183701 -0.646375,0.281646 -3.828279,0.580095 -1.497283,0.14044 -3.281679,0.316755 -3.965324,0.391813 -0.683645,0.07506 -1.267942,0.09323 -1.298437,0.04037 z M 21.994337,87.574405 c -0.09358,-0.03469 -1.812916,-0.225281 -3.820746,-0.423523 -2.00783,-0.198241 -3.69675,-0.388962 -3.753156,-0.423823 -0.05641,-0.03486 -0.0085,-0.967573 0.106529,-2.072694 0.114997,-1.105121 0.519261,-4.99537 0.898364,-8.644997 0.787855,-7.584676 1.027405,-9.658085 1.127394,-9.758074 0.168481,-0.168481 7.729739,0.778422 7.967753,0.99781 0.07925,0.07305 0.01911,2.073995 -0.13364,4.446542 -0.353093,5.484136 -0.916546,13.52206 -1.044851,14.905297 l -0.09864,1.063411 -0.539431,-0.01343 c -0.296687,-0.0074 -0.615997,-0.04182 -0.709577,-0.07652 z m 18.388867,-3.175346 c -1.209324,-0.0845 -2.31114,-0.216516 -2.448479,-0.293375 -0.16762,-0.09381 0.188084,-0.237143 1.082047,-0.43603 1.714112,-0.381354 2.357245,-0.940147 2.259668,-1.963339 l -0.06435,-0.674786 1.961036,0.126179 c 2.526264,0.162548 8.95508,0.162528 11.157115,-3.4e-5 l 1.709666,-0.126214 -0.0695,0.59535 c -0.129737,1.111292 0.591356,1.745593 2.410782,2.120611 0.54809,0.112973 0.930918,0.270307 0.850729,0.349632 -0.45078,0.445921 -13.741281,0.658871 -18.848709,0.302006 z m 1.688333,-3.877884 c -1.193342,-0.07609 -2.308609,-0.242266 -2.683965,-0.399916 -0.353219,-0.148352 -0.749305,-0.228637 -0.880192,-0.178411 -0.394515,0.15139 -2.304904,-0.411396 -3.752111,-1.105343 -2.57798,-1.236161 -4.413957,-2.972033 -5.52188,-5.220804 -0.668673,-1.357218 -0.91716,-2.586224 -0.82088,-4.060039 0.08748,-1.339023 0.486657,-2.284683 1.284065,-3.04194 0.456861,-0.433857 0.578252,-0.466832 1.34439,-0.3652 l 0.842183,0.111719 -0.310797,0.920611 c -0.482696,1.429798 -0.554906,2.716297 -0.239761,4.271604 0.152857,0.754381 0.440083,1.743527 0.638279,2.198101 0.594968,1.364593 1.803935,3.054497 2.885261,4.033041 0.951349,0.860921 2.976749,2.109707 3.146464,1.939992 0.04161,-0.04161 -0.365758,-0.368123 -0.905254,-0.725592 -1.237219,-0.819778 -2.851938,-2.440583 -3.641561,-3.655286 -1.370965,-2.109001 -2.055036,-4.840352 -1.719465,-6.86546 0.259935,-1.568659 0.529687,-2.069747 1.107109,-2.056559 0.256084,0.0058 1.212123,0.02499 2.124529,0.04254 l 1.658922,0.0319 0.0036,2.679796 c 0.0042,3.166827 0.194182,4.031787 1.459063,6.644016 0.669157,1.381942 1.089755,1.996504 1.989897,2.907567 1.661173,1.681327 2.248736,1.719416 0.702845,0.04556 -1.407275,-1.523764 -2.676953,-3.904575 -3.235308,-6.06662 -0.39542,-1.531133 -0.611019,-4.63903 -0.381866,-5.504663 l 0.151008,-0.570435 11.219673,0.0124 11.219673,0.0124 0.15071,0.387893 c 0.240143,0.618077 -0.004,4.162445 -0.390051,5.662412 -0.617014,2.397398 -1.810316,4.578581 -3.468448,6.33982 -0.463513,0.492335 -0.799115,0.93879 -0.745783,0.992123 0.367074,0.367074 2.588264,-2.052993 3.49734,-3.810478 0.372563,-0.720263 0.888054,-1.960378 1.145536,-2.755809 0.412844,-1.275391 0.475604,-1.766561 0.531265,-4.157779 0.03471,-1.491346 0.08073,-2.728547 0.102268,-2.749334 0.02153,-0.02079 1.034503,-0.06242 2.251045,-0.09251 l 2.211895,-0.05472 0.290308,0.847376 c 0.60937,1.778684 0.259251,4.80778 -0.795287,6.880502 -1.082272,2.127235 -3.256094,4.374643 -5.194904,5.370755 -0.843826,0.433538 -0.384865,0.501197 0.583653,0.08604 1.106538,-0.474317 2.65599,-1.725483 3.674792,-2.967354 1.917151,-2.336916 2.96891,-5.663261 2.550456,-8.066197 -0.106457,-0.611324 -0.296161,-1.357059 -0.421563,-1.65719 l -0.228005,-0.545692 0.876223,-0.0894 c 0.583569,-0.05954 0.997656,-0.0123 1.239803,0.141447 0.943439,0.599022 1.708034,2.874661 1.506908,4.484962 -0.156,1.248997 -0.774369,2.86541 -1.533983,4.009817 -0.829488,1.249676 -2.550956,2.825118 -3.929133,3.595839 -1.503968,0.841067 -3.876796,1.652729 -4.54494,1.554666 -0.286764,-0.04209 -0.936374,0.06933 -1.443578,0.247599 -0.540309,0.189904 -1.389625,0.326215 -2.050988,0.329173 -0.620839,0.0028 -3.46405,0.02895 -6.318245,0.05815 -2.854195,0.02921 -6.108233,-0.0055 -7.231195,-0.07708 z M 23.355503,66.306302 C 23.16841,66.237066 19.609931,65.79808 17.763175,65.616414 l -1.168537,-0.114949 0.113832,-1.381734 c 0.213449,-2.590892 0.952589,-8.52214 1.391375,-11.165115 0.5212,-3.139386 1.636168,-7.576795 2.671987,-10.634111 l 0.74939,-2.211896 0.491776,0.08058 c 0.646148,0.105879 2.251345,0.107267 2.788744,0.0024 l 0.425364,-0.083 0.09323,2.382041 c 0.122552,3.13119 -0.386983,22.16292 -0.627494,23.437581 -0.07498,0.397377 -0.169594,0.465876 -0.627741,0.454468 -0.2967,-0.0074 -0.61602,-0.04177 -0.7096,-0.0764 z M 72.735622,64.758397 C 72.517641,60.674091 72.230805,44.00341 72.347367,42.193265 l 0.128712,-1.998843 1.131723,0.104826 c 0.648207,0.06004 1.419273,0.02527 1.804767,-0.08139 0.509466,-0.140959 0.703684,-0.136643 0.799108,0.01776 0.158278,0.2561 1.156811,3.385169 1.834929,5.750054 0.595487,2.076719 1.035907,4.144761 1.520375,7.139095 0.613246,3.790272 1.544032,12.146042 1.372148,12.317927 -0.04149,0.04149 -1.491654,0.23529 -3.222592,0.430672 -1.730937,0.195382 -3.539579,0.402469 -4.019203,0.460193 l -0.872043,0.104952 z m -38.775146,0.969034 c -1.560099,-0.05418 -2.885656,-0.147628 -2.945682,-0.207654 -0.06003,-0.06003 0.245525,-0.508473 0.679004,-0.996547 l 0.788144,-0.887407 -0.390134,-0.415278 c -0.270651,-0.288096 -0.505145,-0.386413 -0.765668,-0.321026 -0.54401,0.136538 -1.224422,-0.17471 -1.446252,-0.661573 -0.254679,-0.55896 0.185822,-1.258847 0.879642,-1.397611 0.301579,-0.06032 0.545132,-0.242399 0.618107,-0.462103 0.203116,-0.611523 0.09053,-2.308794 -0.21431,-3.230927 -0.485205,-1.46771 -1.694629,-3.11949 -2.643254,-3.610043 -0.431984,-0.223387 -0.530273,-0.220903 -0.902214,0.0228 -0.741212,0.485661 -1.472749,-0.08554 -1.202011,-0.93856 0.07261,-0.228768 -0.0037,-0.401477 -0.243753,-0.551365 -0.528311,-0.329936 -0.455344,-1.104333 0.15941,-1.691825 0.595126,-0.568735 0.844298,-0.600031 1.372425,-0.172381 0.27381,0.221719 0.383484,0.484121 0.373348,0.893266 -0.01283,0.518011 0.09124,0.654987 0.983381,1.294231 1.290916,0.924981 2.412403,2.364894 3.087472,3.964102 0.474754,1.124672 0.54775,1.512098 0.615171,3.265009 0.0555,1.443092 0.138679,2.012777 0.303077,2.075862 0.257049,0.09864 1.04314,-0.76354 1.292792,-1.417927 0.831688,-2.180009 0.186838,-11.416496 -1.231143,-17.634224 -0.593772,-2.603641 -1.885998,-5.430858 -2.151413,-4.707 -0.04289,0.116975 -0.262625,0.212682 -0.488297,0.212682 -0.321056,0 -0.490596,0.170792 -0.779361,0.785114 -0.586554,1.24784 -1.912486,1.802891 -2.808166,1.175532 -0.445344,-0.311931 -0.634634,-1.007291 -0.395723,-1.4537 0.230396,-0.430499 0.508569,-0.434082 0.508569,-0.0065 0,0.421642 0.2567,0.578349 0.746156,0.455503 0.881918,-0.221347 1.059741,-2.039521 0.340612,-3.482625 -0.411332,-0.825436 -0.424043,-0.914734 -0.170146,-1.195288 0.305843,-0.337952 0.379137,-0.956737 0.09233,-0.77948 -0.100138,0.06189 -0.239017,0.266469 -0.308619,0.454622 -0.07817,0.211321 -0.44656,0.448577 -0.963661,0.620636 -0.745454,0.248041 -0.869678,0.362372 -1.134552,1.044195 -0.234756,0.604294 -0.2762,1.058105 -0.196648,2.153317 0.0949,1.306583 0.07896,1.399346 -0.272887,1.587649 -0.589358,0.315415 -2.051967,0.377213 -2.981738,0.125985 l -0.850729,-0.229871 -0.03869,-1.180493 c -0.05452,-1.66348 -0.39234,-3.610644 -0.665788,-3.837586 -0.127226,-0.105589 -0.232435,-0.316594 -0.233797,-0.468901 -0.0014,-0.152307 -0.109193,-0.583184 -0.239624,-0.957505 -0.130431,-0.374321 -0.289207,-0.958312 -0.352836,-1.297759 l -0.115688,-0.617176 1.163504,-0.773664 c 1.74414,-1.159754 2.892828,-1.356028 4.141056,-0.707575 0.679306,0.3529 3.434321,3.067561 3.378331,3.328848 -0.02799,0.130609 0.15454,0.456004 0.405617,0.7231 0.251077,0.267096 0.619498,0.841338 0.818714,1.276094 0.199216,0.434755 0.444819,0.962737 0.545785,1.173292 0.197574,0.412024 0.729664,0.517929 0.854857,0.170146 0.13896,-0.386029 -0.539349,-1.880715 -1.075888,-2.370767 -1.089786,-0.995366 -0.27975,-1.713322 2.729143,-2.418912 4.551872,-1.067422 8.247875,-1.466567 14.632536,-1.580224 7.326544,-0.130425 13.480646,0.429506 18.191355,1.655138 3.09939,0.806399 3.621909,1.308436 2.514456,2.41589 -0.579272,0.579272 -1.258655,2.180379 -1.060931,2.500303 0.221317,0.358098 0.634629,-0.08066 1.172391,-1.244577 0.309102,-0.669011 0.800751,-1.417276 1.092552,-1.662811 0.291802,-0.245535 0.489521,-0.487455 0.439375,-0.537601 -0.202677,-0.202677 0.16045,-0.800801 0.68179,-1.123006 0.304798,-0.188376 0.932512,-0.728639 1.394918,-1.200586 1.680033,-1.714691 3.319099,-1.803495 5.456695,-0.295642 0.292852,0.206577 0.67568,0.460871 0.850729,0.565098 l 0.318272,0.189505 -0.303867,1.086589 c -0.167128,0.597623 -0.333365,1.265305 -0.369418,1.483737 -0.03605,0.218432 -0.183509,0.527492 -0.327682,0.686801 -0.369246,0.408013 -0.779592,2.285705 -0.785654,3.595059 -0.0028,0.608271 -0.06137,1.186241 -0.130124,1.284377 -0.167485,0.239066 -1.393946,0.587227 -2.068613,0.587227 -0.630005,0 -2.026767,-0.327402 -2.133496,-0.500092 -0.04009,-0.06487 0.0097,-0.674383 0.110633,-1.354473 0.284407,-1.916213 -0.226857,-3.249808 -1.245887,-3.249808 -0.389411,0 -0.546492,-0.129143 -0.827816,-0.680584 -0.343993,-0.674282 -0.680583,-0.895999 -0.680583,-0.44831 0,0.12775 0.158508,0.433784 0.35224,0.680074 l 0.35224,0.447801 -0.328623,0.46841 c -0.510827,0.728119 -0.763187,1.705543 -0.675628,2.616792 0.130453,1.35765 0.996979,2.000921 1.346141,0.999315 0.216892,-0.622177 0.439959,-0.650905 0.655344,-0.0844 0.224754,0.59115 -0.08555,1.196382 -0.7831,1.527391 -0.495174,0.234975 -0.636891,0.238561 -1.138878,0.02882 -0.625971,-0.261547 -1.263623,-0.968392 -1.413963,-1.567396 -0.05254,-0.209324 -0.261429,-0.416734 -0.464204,-0.460912 -0.202775,-0.04418 -0.486805,-0.130556 -0.631177,-0.19195 -0.464054,-0.197339 -1.595729,2.224555 -2.098811,4.491656 -1.347511,6.07245 -2.129297,15.171516 -1.491121,17.354869 0.208613,0.713717 0.93253,1.701458 1.247,1.701458 0.07607,0 0.138313,-0.791952 0.138313,-1.759894 0,-1.278222 0.08739,-2.013906 0.319308,-2.687981 0.718266,-2.087676 1.771343,-3.55626 3.395956,-4.73588 0.89353,-0.648786 1.048817,-0.839206 1.048817,-1.28611 0,-0.288514 0.101678,-0.663624 0.225952,-0.833577 0.325502,-0.445151 1.129214,-0.395209 1.530259,0.09509 0.181794,0.222253 0.396976,0.384955 0.478183,0.36156 0.08121,-0.0234 0.147647,0.213743 0.147647,0.526973 0,0.421416 -0.09661,0.612616 -0.371508,0.735281 -0.284368,0.126889 -0.374164,0.317967 -0.382828,0.814629 -0.015,0.85985 -0.420627,1.138389 -1.095919,0.752558 -0.643747,-0.367807 -1.267074,-0.107635 -2.137616,0.892225 -1.293949,1.486163 -2.141421,4.043547 -1.833868,5.533995 0.112065,0.543088 0.21358,0.66449 0.592698,0.708807 0.470979,0.05506 1.145543,0.742976 1.145543,1.168223 0,0.132004 -0.194194,0.434201 -0.431543,0.67155 -0.364441,0.364441 -0.531479,0.414657 -1.074261,0.322955 -0.571419,-0.09654 -0.664224,-0.06139 -0.836566,0.31686 -0.175819,0.385881 -0.121365,0.506063 0.585552,1.292325 0.42867,0.476783 0.725768,0.920509 0.66022,0.986058 -0.06555,0.06555 -1.664063,0.170437 -3.552253,0.233084 -4.099988,0.136033 -25.04495,0.126415 -29.069148,-0.01335 z M 78.676922,45.96736 78.389958,44.935207 78.798314,43.798002 c 1.184848,-3.299609 0.999077,-6.385649 -0.516532,-8.580673 l -0.440272,-0.637636 0.363147,-0.873829 c 0.19973,-0.480606 0.363147,-1.093315 0.363147,-1.361577 0,-0.665701 0.290464,-0.613089 1.149218,0.208162 1.557008,1.489008 2.160846,3.204113 2.151126,6.109921 -0.0068,2.046582 -0.330219,3.602647 -1.121769,5.397943 -0.317517,0.720151 -1.631617,2.9392 -1.740568,2.9392 -0.02306,0 -0.171059,-0.464468 -0.328889,-1.032153 z m -60.571728,-0.03092 c -0.7813,-1.213366 -1.589084,-3.204409 -1.905251,-4.696101 -0.318447,-1.50245 -0.31111,-4.12726 0.01504,-5.379424 0.14345,-0.550742 0.462884,-1.37261 0.709853,-1.826374 0.445535,-0.818595 1.914288,-2.348146 2.254809,-2.348146 0.09759,0 0.177435,0.247358 0.177435,0.549685 0,0.302327 0.166993,0.952586 0.371096,1.44502 l 0.371095,0.895335 -0.355339,0.384047 c -0.611748,0.661171 -1.081185,1.759036 -1.36232,3.186036 -0.248503,1.261369 -0.248238,1.515231 0.0032,3.0469 0.150851,0.918986 0.429896,2.122772 0.620101,2.675079 l 0.345826,1.004195 -0.30789,1.020875 -0.307891,1.020875 z M 65.46658,30.984671 c -1.860644,-0.543178 -4.322384,-0.997327 -7.464399,-1.377054 -4.057968,-0.490425 -13.534137,-0.536312 -17.490267,-0.08469 -3.148633,0.359437 -6.017764,0.850577 -7.692522,1.316813 -0.690412,0.192204 -1.286288,0.318467 -1.32417,0.280585 -0.08197,-0.08197 1.681378,-0.738039 2.409318,-0.896411 0.280741,-0.06108 0.8167,-0.404214 1.191021,-0.762521 0.739831,-0.708183 1.557418,-0.987336 4.168571,-1.423299 3.209666,-0.535891 5.314618,-0.683145 9.698308,-0.678452 4.718291,0.0051 7.754106,0.261238 10.993113,0.92769 2.028372,0.417354 2.649704,0.684226 3.115279,1.338066 0.207444,0.291328 0.488243,0.529688 0.623999,0.529688 0.35676,0 2.664613,0.824805 2.863027,1.02322 0.09229,0.09229 0.133346,0.159121 0.09123,0.148514 -0.04211,-0.01061 -0.574242,-0.164572 -1.182513,-0.342145 z M 36.371654,27.513572 c 0,-0.928509 0.551632,-1.694377 1.582654,-2.197304 3.969053,-1.936082 18.087099,-1.939362 22.140617,-0.0051 1.052809,0.502369 1.612559,1.2715 1.582223,2.174072 -0.02042,0.60747 -0.04889,0.64084 -0.455678,0.534051 -6.096237,-1.600382 -16.427049,-1.757522 -23.063286,-0.350812 -0.655061,0.138856 -1.32501,0.303954 -1.488775,0.366885 -0.250887,0.09641 -0.297755,0.01428 -0.297755,-0.521749 z m 7.87701,-4.543031 c -0.150255,-0.166031 -0.364686,-0.301874 -0.476511,-0.301874 -0.366617,0 -1.597646,-1.003164 -1.864658,-1.519508 -0.540843,-1.045874 -0.201055,-2.258016 0.807738,-2.881484 1.016072,-0.627967 2.449155,-0.896289 5.311406,-0.994474 5.761088,-0.197625 8.56657,0.731452 8.585696,2.84328 0.0076,0.836923 -0.515235,1.596784 -1.471448,2.138608 -0.45037,0.255196 -1.010269,0.58554 -1.244219,0.734098 -0.360019,0.228612 -1.112788,0.271114 -4.900089,0.276667 -4.073789,0.006 -4.499201,-0.02049 -4.747915,-0.295313 z m 1.14699,-6.179463 c 0.1051,-0.126639 0.472088,-0.320712 0.815528,-0.431275 0.34344,-0.110563 0.732587,-0.286752 0.86477,-0.391531 0.403318,-0.319704 0.884146,-1.588741 0.771705,-2.036742 -0.05709,-0.227486 -0.02438,-0.462698 0.07269,-0.522694 0.340607,-0.210507 -0.03286,-0.636866 -0.894964,-1.021702 -1.203655,-0.537303 -1.550958,-0.972723 -1.550821,-1.944289 8.8e-5,-0.6220315 0.123469,-0.968081 0.579401,-1.6250523 0.318609,-0.4590976 0.720528,-1.2064335 0.893154,-1.6607464 0.384857,-1.0128621 0.406625,-2.5314947 0.04628,-3.2283346 -0.24551,-0.4747637 -0.244055,-0.5434635 0.01764,-0.8326354 0.156877,-0.1733473 0.500593,-0.3624781 0.763812,-0.4202908 0.445494,-0.097847 0.774843,-0.4871763 0.698196,-0.8253489 -0.0574,-0.2532602 0.348271,-0.6201371 0.685715,-0.6201371 0.330705,0 0.380136,0.078356 0.554965,0.8797112 0.07128,0.3267237 0.237591,0.4847593 0.592079,0.5626177 0.271125,0.059549 0.621308,0.2501006 0.778185,0.4234479 0.261697,0.2891719 0.263153,0.3578717 0.01764,0.8326354 -0.321482,0.6216774 -0.341485,2.2445341 -0.03804,3.0865442 0.118035,0.3275306 0.535785,1.1266354 0.928334,1.7757883 0.392549,0.649153 0.713439,1.3765258 0.713089,1.6163848 -0.001,0.71644 -0.58459,1.465911 -1.471513,1.889923 -0.993294,0.474865 -1.114173,0.621507 -1.005154,1.219383 0.04626,0.253717 0.01163,0.506105 -0.07697,0.560862 -0.09189,0.05679 -0.100249,0.224076 -0.01946,0.389425 0.0779,0.159427 0.278388,0.574371 0.445542,0.922098 0.244156,0.507917 0.463965,0.685392 1.117887,0.90259 0.447686,0.148698 0.897425,0.370912 0.999422,0.49381 0.150938,0.18187 0.05047,0.197345 -0.53988,0.08316 -0.969762,-0.187572 -5.493504,-0.185544 -6.304936,0.0028 -0.534224,0.124018 -0.61247,0.110165 -0.454291,-0.08043 z m 6.572695,-7.1669202 c -0.06239,-0.062387 -0.164474,-0.062387 -0.226861,0 -0.06239,0.062387 -0.01134,0.1134306 0.11343,0.1134306 0.124774,0 0.175818,-0.051044 0.113431,-0.1134306 z M 51.231111,9.3851718 C 50.529981,9.1261902 48.495736,9.0679273 47.431129,9.2763364 l -1.105948,0.2165019 2.608962,0.00379 c 1.434929,0.00208 2.468565,-0.048071 2.296968,-0.1114551 z M 49.260196,2.4741799 c -0.163766,-0.042796 -0.431745,-0.042796 -0.595511,0 -0.163765,0.042796 -0.02978,0.077812 0.297755,0.077812 0.327531,0 0.461521,-0.035015 0.297756,-0.077812 z"
     id="path32" /></svg>
