<?xml version="1.0" encoding="UTF-8" standalone="no"?>
<!-- Created with Inkscape (http://www.inkscape.org/) -->

<svg
   width="95.076096mm"
   height="122.81843mm"
   viewBox="0 0 95.076095 122.81843"
   version="1.1"
   id="svg1"
   xml:space="preserve"
   inkscape:export-filename="englandLeague.png"
   inkscape:export-xdpi="96"
   inkscape:export-ydpi="96"
   sodipodi:docname="juventus.svg"
   xmlns:inkscape="http://www.inkscape.org/namespaces/inkscape"
   xmlns:sodipodi="http://sodipodi.sourceforge.net/DTD/sodipodi-0.dtd"
   xmlns="http://www.w3.org/2000/svg"
   xmlns:svg="http://www.w3.org/2000/svg"><sodipodi:namedview
     id="namedview1"
     pagecolor="#ffffff"
     bordercolor="#000000"
     borderopacity="0.25"
     inkscape:showpageshadow="2"
     inkscape:pageopacity="0.0"
     inkscape:pagecheckerboard="0"
     inkscape:deskcolor="#d1d1d1"
     inkscape:document-units="mm"><inkscape:page
       x="0"
       y="0"
       width="95.076096"
       height="122.81843"
       id="page2"
       margin="0"
       bleed="0" /></sodipodi:namedview><defs
     id="defs1" /><path
     style="fill:#c3a970;fill-opacity:1"
     d="m 42.655923,118.6789 c -4.651523,-0.22049 -10.930491,-0.92583 -12.058025,-1.35451 -0.213659,-0.0812 -0.483768,-0.26253 -0.600244,-0.40287 -0.269452,-0.32467 -0.435365,-1.83768 -0.2339,-2.133 0.124257,-0.18215 0.783942,-0.1916 3.542039,-0.0507 6.221121,0.31775 15.820794,0.38703 24.081787,0.1738 4.449301,-0.11485 8.511151,-0.2158 9.026333,-0.22434 l 0.936695,-0.0155 0.05245,0.54121 c 0.09114,0.94038 -0.255118,1.86556 -0.777387,2.07717 -0.70922,0.28736 -4.785847,0.84111 -8.262064,1.12229 -3.865594,0.31267 -11.868966,0.44846 -15.707685,0.26649 z M 34.3114,114.04608 c -2.34142,-0.0924 -4.28962,-0.20045 -4.329333,-0.24016 -0.110445,-0.11045 1.404231,-3.08164 2.206656,-4.32858 0.391805,-0.60885 1.137678,-1.70095 1.657496,-2.42689 l 0.945124,-1.31989 H 48.52389 62.256437 l 1.035991,1.40504 c 0.569796,0.77277 1.306184,1.83039 1.63642,2.35027 0.683643,1.07622 2.166298,3.96002 2.166298,4.2135 0,0.0949 -0.83559,0.21238 -1.915967,0.26936 -3.574881,0.18856 -26.587334,0.24623 -30.867779,0.0774 z m 6.138082,-9.11965 -4.931371,-0.0528 1.094518,-1.10433 1.094517,-1.10434 h 10.85483 10.85483 l 1.033205,1.04612 c 0.568263,0.57536 1.012192,1.06326 0.986508,1.08421 -0.0983,0.0802 -16.288923,0.18134 -20.987037,0.13109 z m -1.795801,-3.19606 c 0,-0.16274 2.604005,-2.149176 3.248069,-2.477752 0.614564,-0.313528 1.028709,-0.334386 6.63932,-0.334386 6.738232,0 6.07542,-0.117413 8.250432,1.461508 2.170321,1.57552 2.985138,1.43373 -8.239093,1.43373 -5.444301,0 -9.898728,-0.0374 -9.898728,-0.0831 z m -1.43643,-1.55768 C 35.991416,98.688152 33.596051,95.311118 32.247524,93.166267 26.637783,84.243897 22.141426,73.552155 19.413919,62.649648 16.809287,52.238306 15.857407,43.696425 15.902091,31.135576 l 0.01545,-4.342858 10.090759,-0.04393 c 5.549918,-0.02416 10.09076,1.13e-4 10.09076,0.05394 0,0.05383 -0.207657,0.380149 -0.461459,0.72516 -0.253802,0.345011 -0.483538,0.659045 -0.510524,0.697853 -0.02699,0.03881 -3.747061,0.06221 -8.266835,0.052 -4.519774,-0.01021 -8.44074,0.02429 -8.713258,0.07666 l -0.495487,0.09523 0.109399,5.612257 c 0.06017,3.086741 0.153545,5.683685 0.2075,5.770985 0.05839,0.09448 3.420105,0.15989 8.305418,0.161598 l 8.207318,0.0029 -0.538755,0.345135 c -0.296315,0.189824 -0.662116,0.533407 -0.81289,0.763518 l -0.274135,0.418382 h -7.239516 c -6.202819,0 -7.253234,0.03575 -7.335308,0.249629 -0.123624,0.32216 0.363816,5.616936 0.80015,8.691551 2.61254,18.409185 9.568085,35.742274 19.535253,48.681488 l 0.766609,0.995196 -0.599877,0.59988 -0.599876,0.59987 z m 21.050245,0.56722 -0.567703,-0.58989 1.526264,-2.020935 C 67.409516,87.2933 73.748775,72.686479 76.807336,57.618573 c 0.572989,-2.822812 1.272699,-7.052334 1.521457,-9.196716 0.198711,-1.712958 0.517617,-5.662984 0.517617,-6.411289 v -0.486193 h -7.233616 -7.233615 l -0.766387,-0.766386 -0.766387,-0.766387 h 8.090502 c 6.974896,0 8.103798,-0.03465 8.186934,-0.2513 0.05304,-0.138216 0.108112,-2.76309 0.122386,-5.833056 l 0.02595,-5.581754 -8.507227,-0.02864 -8.507228,-0.02864 -0.578,-0.780323 -0.578,-0.780322 h 10.087481 10.08748 l -0.09754,7.110366 c -0.101744,7.41701 -0.233207,9.779297 -0.812721,14.603927 -1.914878,15.941923 -7.391686,31.793499 -15.380769,44.516702 -1.699965,2.707319 -4.243627,6.263862 -5.413147,7.568648 L 58.8352,101.3298 Z M 42.466424,96.235878 C 38.638636,88.203428 35.245447,78.561184 32.952073,69.199455 31.215914,62.112324 30.351036,56.658234 29.961697,50.341567 c -0.32344,-5.247522 0.184414,-6.896708 2.38527,-7.745838 0.708585,-0.273385 1.948671,-0.302128 15.162739,-0.351445 9.209933,-0.03437 14.9102,0.0097 15.833056,0.122464 1.876675,0.229275 2.811027,0.768402 3.411768,1.968613 l 0.42577,0.85064 -0.02044,3.235856 C 67.07892,61.235086 61.854823,81.155475 54.66536,96.06557 l -1.047036,2.171429 H 48.519181 43.420039 Z M 34.071509,41.081416 c 0.196889,-0.20958 0.752794,-0.558436 1.235342,-0.775236 l 0.877362,-0.394183 12.262188,-0.0028 c 11.314149,-0.0026 12.32919,0.02062 13.128805,0.299818 0.476639,0.166425 1.075462,0.520579 1.330717,0.787008 l 0.4641,0.484417 -14.828247,-0.009 -14.828248,-0.009 z m -0.643783,-1.679247 c -0.917325,-0.399744 -1.361597,-1.692072 -0.825401,-2.400986 0.137525,-0.181825 0.252483,-0.390823 0.255462,-0.464441 0.003,-0.07362 -0.695918,-0.08091 -1.553104,-0.0162 -1.687744,0.127408 -3.042192,0.675484 -3.03729,1.229035 0.0051,0.571111 0.431242,1.133055 0.924727,1.219297 0.820644,0.143415 0.743986,0.513244 -0.104081,0.502127 -0.691227,-0.0091 -0.790147,-0.07384 -1.560707,-1.022053 -0.499405,-0.614543 -1.001352,-1.053441 -1.277311,-1.116871 -0.250034,-0.05747 -0.932115,-0.361668 -1.515735,-0.675994 l -1.061129,-0.571501 -0.194042,0.378158 c -0.106723,0.207987 -0.424453,0.621722 -0.706067,0.919411 -0.662393,0.700205 -0.561059,1.339554 0.245437,1.548538 0.803415,0.208186 0.813736,0.549986 0.01661,0.549986 -0.553138,0 -0.762308,-0.111429 -1.293344,-0.68899 -0.516236,-0.561465 -0.601625,-0.748527 -0.46134,-1.010653 0.09468,-0.176914 0.172149,-0.40463 0.172149,-0.506036 0,-0.21626 -1.544297,0.531835 -1.844449,0.893496 -0.26213,0.315847 -0.100337,0.742862 0.323456,0.853686 0.552109,0.14438 0.366132,0.458497 -0.271458,0.458497 -0.48767,0 -0.631456,-0.08196 -0.766387,-0.436857 -0.308701,-0.811944 -0.194139,-1.253121 0.496419,-1.911702 0.43294,-0.412893 0.733471,-0.8974 0.867291,-1.398221 0.112629,-0.421512 0.308556,-1.009476 0.435393,-1.306586 0.193446,-0.453137 0.1936,-0.570917 9.59e-4,-0.730795 -0.333053,-0.27641 -0.458731,-0.939318 -0.271462,-1.431873 0.110793,-0.291406 0.368213,-0.484838 0.809242,-0.608083 0.543365,-0.151843 0.898483,-0.109673 2.221244,0.263774 1.65703,0.467818 2.087148,0.453025 2.087148,-0.07178 0,-0.790604 -1.416503,-1.253213 -3.421324,-1.117354 l -1.122163,0.07604 -0.453187,-0.65395 c -0.577635,-0.833528 -0.569499,-0.923021 0.05557,-0.611196 0.279815,0.13959 0.58974,0.203749 0.688722,0.142575 0.09898,-0.06117 0.349033,-5.62e-4 0.555671,0.134694 0.206637,0.135256 0.912013,0.303274 1.567502,0.373373 1.392983,0.148968 2.298134,0.559267 2.639041,1.196259 0.211454,0.395105 0.21073,0.512243 -0.0055,0.895107 -0.136856,0.242281 -0.512439,0.528931 -0.834627,0.636998 -1.062403,0.356349 -0.720996,0.761211 0.646595,0.766774 0.43842,0.0018 0.548897,-0.05716 0.473823,-0.252798 -0.05956,-0.155202 0.06269,-0.360345 0.312118,-0.523778 0.22551,-0.14776 0.371175,-0.369877 0.323701,-0.493593 -0.04747,-0.123716 0.08916,-0.347849 0.303634,-0.498071 0.214473,-0.150223 0.319026,-0.273133 0.232339,-0.273133 -0.08669,0 0.125451,-0.289883 0.471418,-0.644185 l 0.62903,-0.644186 -0.343972,-0.641776 -0.343971,-0.641777 0.335248,0.17942 c 0.241313,0.129146 0.369287,0.124341 0.456734,-0.01715 0.08406,-0.136013 0.19542,-0.0968 0.361482,0.127271 0.2273,0.306708 0.251693,0.308073 0.461126,0.0258 0.271216,-0.365544 0.439042,-0.38182 0.439042,-0.04258 0,0.140504 0.114958,0.255462 0.255463,0.255462 0.140504,0 0.255462,-0.08303 0.255462,-0.184501 0,-0.101475 0.0958,-0.15015 0.212885,-0.108167 0.117087,0.04198 0.357069,0.002 0.533293,-0.08892 0.251993,-0.129972 0.224719,-0.0398 -0.127731,0.422282 -0.246476,0.323147 -0.448139,0.707911 -0.448139,0.85503 0,0.14712 0.341601,0.568179 0.759113,0.935688 0.701168,0.617193 0.740626,0.694589 0.516937,1.013951 -0.133197,0.190164 -0.187402,0.412483 -0.120457,0.494042 0.06695,0.08156 -0.04434,0.0089 -0.247308,-0.161511 -0.295616,-0.248171 -0.439602,-0.272027 -0.723809,-0.119924 -0.475517,0.254489 -0.447134,0.458403 0.0823,0.591283 0.295043,0.07405 0.417452,0.20458 0.376668,0.401656 -0.03323,0.160575 -0.181769,0.282949 -0.330087,0.271941 -0.190188,-0.01411 -0.243103,0.08158 -0.179533,0.324671 0.06093,0.232984 0.02625,0.305201 -0.106998,0.222847 -0.330241,-0.204099 -0.224133,0.382194 0.133981,0.740308 0.411896,0.411896 1.362594,0.601441 2.190445,0.436718 1.12526,-0.223899 1.370917,-0.149646 2.162988,0.653791 0.657677,0.667114 0.765311,0.875077 0.765311,1.47867 0,0.549233 -0.108543,0.81092 -0.497823,1.2002 -0.273804,0.273804 -0.61241,0.497824 -0.752458,0.497824 -0.140049,0 -0.3567,0.03552 -0.481448,0.07894 -0.124748,0.04342 -0.470931,-0.02743 -0.769295,-0.157452 z m -9.132857,-6.319581 c 0.03026,-0.09079 -0.526437,-0.345574 -1.237114,-0.56618 -1.033027,-0.320667 -1.374758,-0.363457 -1.704132,-0.213384 -0.358126,0.163173 -0.554249,0.677224 -0.340085,0.891388 0.150321,0.150321 3.228921,0.04541 3.281331,-0.111824 z m 6.865253,-1.521241 c 0,-0.04684 -0.03832,-0.08515 -0.08516,-0.08515 -0.04683,0 -0.08515,0.03832 -0.08515,0.08515 0,0.04683 0.03832,0.08515 0.08515,0.08515 0.04683,0 0.08516,-0.03832 0.08516,-0.08515 z m 30.996282,7.791334 c -1.260506,-0.6299 -1.313728,-1.98727 -0.123658,-3.153776 0.559497,-0.54842 0.813523,-0.682145 1.223728,-0.644198 0.284714,0.02634 0.990588,0.05827 1.568608,0.07096 0.896074,0.01967 1.115674,-0.03777 1.490196,-0.389806 0.472667,-0.44429 0.593593,-0.912967 0.196216,-0.760479 -0.177463,0.0681 -0.218054,-0.0023 -0.150445,-0.260808 0.06557,-0.250725 0.01223,-0.354069 -0.182735,-0.354069 -0.439521,0 -0.318012,-0.493721 0.150445,-0.611296 0.492936,-0.123719 0.533969,-0.279049 0.156479,-0.592338 -0.217711,-0.180685 -0.335061,-0.182419 -0.612663,-0.0091 -0.188854,0.117941 -0.357595,0.189969 -0.374979,0.160062 -0.01738,-0.02991 -0.134856,-0.189211 -0.26105,-0.354006 -0.203649,-0.265945 -0.140795,-0.37766 0.559116,-0.993746 0.433708,-0.381765 0.788559,-0.835002 0.788559,-1.007193 0,-0.172192 -0.198409,-0.548872 -0.440909,-0.837067 -0.48013,-0.570602 -0.371748,-0.682249 0.243777,-0.251118 0.361667,0.253321 0.406221,0.250271 0.62181,-0.04258 0.218509,-0.296815 0.239054,-0.297844 0.347767,-0.01741 0.141138,0.364075 0.590021,0.396467 0.590021,0.04258 0,-0.140505 0.07664,-0.255463 0.170308,-0.255463 0.09367,0 0.170308,0.116926 0.170308,0.259836 0,0.231937 0.05486,0.231468 0.510925,-0.0044 0.522436,-0.270163 0.700564,-0.11394 0.273866,0.240188 -0.485821,0.403195 -0.431739,0.842448 0.168623,1.369573 0.318648,0.279776 0.57936,0.578281 0.57936,0.663343 0,0.08506 0.118446,0.252959 0.263213,0.373105 0.144767,0.120146 0.22603,0.315343 0.180585,0.43377 -0.04545,0.118428 0.103861,0.337516 0.331792,0.486862 0.22793,0.149345 0.395742,0.361334 0.372916,0.471086 -0.05466,0.262808 0.449726,0.362509 1.159913,0.229277 0.675354,-0.126697 0.639355,-0.513082 -0.06416,-0.688632 -0.54865,-0.136906 -1.052103,-0.562069 -1.052103,-0.888495 0,-0.527668 0.52188,-1.194649 1.137841,-1.454201 0.357717,-0.150734 1.142757,-0.318255 1.744534,-0.37227 0.601777,-0.05401 1.215829,-0.208336 1.364561,-0.342937 0.148732,-0.1346 0.515899,-0.237748 0.815928,-0.229218 0.300028,0.0085 0.664873,-0.08356 0.810767,-0.204637 0.227543,-0.188843 0.248179,-0.174342 0.145132,0.101982 -0.06607,0.17717 -0.27742,0.537735 -0.469666,0.801253 -0.336978,0.461911 -0.388564,0.475389 -1.435772,0.375111 -1.947403,-0.186477 -3.564374,0.393398 -3.400184,1.219368 0.0805,0.404958 0.683923,0.374833 2.338905,-0.116765 1.061504,-0.315311 1.365652,-0.344891 1.900024,-0.184789 0.843905,0.25284 1.109677,0.921499 0.694284,1.74676 -0.268711,0.533848 -0.268113,0.635041 0.0098,1.656305 0.343636,1.262816 0.623713,1.740636 1.323581,2.25807 0.531498,0.392954 0.550723,0.631463 0.138711,1.72088 -0.149132,0.394325 -0.274801,0.467379 -0.79512,0.462222 l -0.617994,-0.0061 0.468347,-0.383466 c 0.257591,-0.210907 0.468348,-0.50739 0.468348,-0.658851 0,-0.283536 -1.829172,-1.430736 -2.003423,-1.256485 -0.05258,0.05258 -0.0096,0.284444 0.0956,0.515247 0.171196,0.375735 0.122031,0.491634 -0.469907,1.107723 -0.536382,0.558265 -0.778764,0.688081 -1.284732,0.688081 -0.764119,0 -0.731905,-0.346639 0.05107,-0.549528 0.295892,-0.07667 0.621685,-0.295799 0.723984,-0.486946 0.158886,-0.296881 0.08498,-0.457128 -0.506993,-1.099348 -0.381145,-0.413493 -0.692991,-0.868477 -0.692991,-1.011074 0,-0.346195 -0.03791,-0.337018 -0.976714,0.236446 -0.446337,0.272642 -1.121894,0.578019 -1.501238,0.678616 -0.530746,0.140747 -0.884028,0.418746 -1.532773,1.206149 -0.795489,0.965508 -0.885076,1.023314 -1.587721,1.024465 -0.642679,0.0011 -0.715627,-0.03377 -0.532649,-0.254242 0.116609,-0.140504 0.344031,-0.255462 0.505383,-0.255462 0.370265,0 0.78018,-0.464504 0.915959,-1.037937 0.07849,-0.331486 0.0037,-0.536668 -0.299399,-0.821418 -0.297021,-0.279037 -0.424843,-0.319881 -0.482638,-0.15422 -0.06213,0.178075 -0.146347,0.167568 -0.401538,-0.05009 -0.216638,-0.18478 -0.819695,-0.311712 -1.832285,-0.385661 -1.400534,-0.10228 -1.499855,-0.08856 -1.37748,0.190278 0.07254,0.165279 0.165948,0.58892 0.20758,0.941426 0.09476,0.802362 -0.288542,1.428895 -1.075292,1.75762 -0.723028,0.302101 -0.720728,0.302192 -1.439648,-0.05707 z M 76.228313,32.94066 c 0.241068,-0.759537 -0.862763,-0.920801 -2.299062,-0.335881 -0.315865,0.128634 -0.718218,0.233879 -0.894118,0.233879 -0.296127,0 -0.420935,0.18273 -0.244985,0.35868 0.04116,0.04116 0.807908,0.07483 1.70389,0.07483 1.464567,0 1.639682,-0.03347 1.734275,-0.33151 z m -37.771962,5.545191 c 1.016039,-1.01604 1.239856,-2.322475 0.870532,-5.081368 -0.226771,-1.694014 -0.602605,-2.883374 -1.13758,-3.599981 -0.231858,-0.310578 -0.376937,-0.60931 -0.322398,-0.66385 0.136537,-0.136537 21.375922,-0.123686 21.512625,0.01302 0.06042,0.06042 -0.05283,0.283041 -0.251683,0.494707 -0.536698,0.571288 -0.899809,1.566876 -1.163181,3.189243 -0.505793,3.115669 -0.224084,4.857825 0.94452,5.84114 l 0.548226,0.461302 H 48.629776 37.80214 Z M 32.195644,32.66835 c 0.248278,-0.521319 0.326943,-0.617936 0.326943,-0.401552 0,0.09138 -0.119186,0.314908 -0.264858,0.496732 -0.249736,0.311716 -0.25328,0.306282 -0.06208,-0.09518 z m 32.719557,0.136247 c -0.112403,-0.112404 -0.195479,-0.361479 -0.184613,-0.553502 l 0.01976,-0.349132 0.08372,0.340617 c 0.04605,0.187339 0.161501,0.436414 0.25656,0.553501 0.220471,0.27156 0.09377,0.27771 -0.175427,0.0085 z M 36.071846,28.145352 c 0.0618,-0.09908 0.457241,-0.690639 0.878753,-1.314584 0.706443,-1.045713 0.826331,-1.14447 1.532774,-1.262616 1.062613,-0.177711 18.735376,-0.16869 20.096364,0.01026 l 1.107003,0.145554 0.867813,1.300764 0.867813,1.300764 H 48.690923 c -8.908118,0 -12.697699,-0.0541 -12.619077,-0.18014 z M 37.3318,24.61919 c -0.0011,-0.209602 -0.132367,-0.826224 -0.291715,-1.370271 -0.225514,-0.769957 -0.38691,-1.026128 -0.728261,-1.155909 -0.257215,-0.09779 -0.374259,-0.228015 -0.283075,-0.314947 0.308802,-0.294403 9.903026,-0.57331 15.822323,-0.459961 8.887494,0.170189 10.477296,0.304804 9.22458,0.781086 -0.299952,0.114042 -0.469477,0.401846 -0.681232,1.156538 -0.15505,0.552593 -0.281903,1.114645 -0.281896,1.249004 1.1e-5,0.209646 -1.551761,0.24429 -10.9423,0.24429 -6.018272,0 -11.14349,0.05653 -11.389372,0.125633 -0.386493,0.108612 -0.447329,0.074 -0.449052,-0.255463 z M 35.624506,19.85266 C 35.435675,19.173556 34.468898,15.787522 33.476112,12.328141 32.483326,8.8687589 31.671046,5.9424939 31.671046,5.8253293 c 0,-0.1171645 -0.151278,-0.2610402 -0.336174,-0.3197238 -0.564336,-0.1791133 -1.026291,-0.9242467 -1.026291,-1.6554059 0,-1.5162975 1.826825,-2.2507045 2.908339,-1.1691897 0.712457,0.7124567 0.701815,1.7087006 -0.02603,2.4365422 l -0.52385,0.5238503 1.342689,1.3790161 c 1.669477,1.7146459 3.40219,3.5634685 4.827899,5.1514215 0.601348,0.66978 1.134575,1.225411 1.184948,1.234734 0.05037,0.0093 0.290966,-0.576998 0.53465,-1.302937 0.243684,-0.725938 0.863619,-2.4915408 1.377634,-3.9235609 L 42.869435,5.5764032 42.403474,5.3354456 c -0.580578,-0.3002288 -0.923627,-1.087604 -0.772882,-1.7739417 0.15486,-0.7050716 0.98844,-1.3783179 1.706564,-1.3783179 0.710648,0 1.55123,0.6710905 1.702339,1.3590863 0.135887,0.6186887 -0.320876,1.6504511 -0.797648,1.8017727 -0.211097,0.066999 -0.310568,0.2144758 -0.262684,0.389454 0.133326,0.4871983 4.566032,7.434565 4.743559,7.434565 0.093,0 1.270205,-1.677438 2.616014,-3.7276394 l 2.446926,-3.727639 -0.583355,-0.550175 C 52.717586,4.7054597 52.618951,4.4912382 52.618951,3.8956347 c 0,-0.9151608 0.711473,-1.7124487 1.528131,-1.7124487 1.852311,0 2.515167,1.9693219 1.0647,3.1631875 l -0.428996,0.3531026 1.225098,3.6491396 c 0.673804,2.0070273 1.256435,3.7422233 1.294737,3.8559933 0.06435,0.191156 0.6298,-0.370424 4.409541,-4.379404 0.750663,-0.7961908 1.747877,-1.8488402 2.21603,-2.339221 L 64.77938,5.5943825 64.338468,5.1235185 C 64.095967,4.8645434 63.847249,4.4858431 63.785761,4.2819625 63.639623,3.7974019 64.058653,2.8123627 64.560428,2.4609063 c 0.769178,-0.5387532 1.926806,-0.2652762 2.421417,0.5720331 0.513534,0.8693445 0.25766,1.8076155 -0.641414,2.3520209 -0.436883,0.2645399 -0.579739,0.6498625 -1.654291,4.4620938 -0.646863,2.2949029 -1.512252,5.3221309 -1.923087,6.7271729 -0.410834,1.405043 -0.871111,2.996155 -1.022837,3.535806 -0.263897,0.938612 -0.295956,0.976366 -0.7389,0.87016 -0.254669,-0.06106 -0.49763,-0.141225 -0.539913,-0.178137 -0.0759,-0.06625 0.547165,-3.527525 0.768713,-4.270406 0.06285,-0.210756 0.04786,-0.379016 -0.03332,-0.373911 -0.08118,0.0051 -0.972585,1.035983 -1.980908,2.29084 l -1.833314,2.281558 -0.891617,-0.100696 c -0.490389,-0.05538 -0.902099,-0.109118 -0.914911,-0.119411 -0.01281,-0.01029 -0.568954,-1.110816 -1.235872,-2.445606 -0.666917,-1.334791 -1.24867,-2.426892 -1.292784,-2.426892 -0.04411,0 -0.630213,0.823866 -1.302441,1.830813 -2.068774,3.09887 -2.016167,3.047783 -3.11994,3.0298 l -0.94955,-0.01547 -1.628076,-2.438533 c -0.895441,-1.341193 -1.653928,-2.41219 -1.685527,-2.379994 -0.0316,0.0322 -0.603738,1.150639 -1.271422,2.48543 l -1.21397,2.426891 -0.546967,0.0023 c -0.300832,0.0013 -0.702461,0.04411 -0.892509,0.09517 -0.281931,0.07575 -0.703302,-0.347201 -2.288927,-2.297527 -1.068862,-1.314705 -1.961096,-2.372662 -1.982742,-2.351016 -0.02165,0.02165 0.101517,0.630647 0.273696,1.353335 0.172179,0.722687 0.365476,1.80349 0.429548,2.401783 0.111669,1.042749 0.09991,1.092246 -0.28393,1.195004 -0.220234,0.05896 -0.449109,0.108244 -0.508613,0.109523 -0.0595,0.0013 -0.262686,-0.553305 -0.451518,-1.232408 z m 15.30233,-4.813816 c 1.234205,-1.73432 2.309397,-3.193722 2.389316,-3.243115 0.07992,-0.04939 0.86069,1.339372 1.735045,3.086144 l 1.589737,3.17595 2.927946,-3.072122 c 2.380632,-2.497857 2.927411,-3.161802 2.925087,-3.551883 -0.0027,-0.453113 -0.0709,-0.408813 -1.227807,0.797551 -3.020781,3.149913 -4.443595,4.59998 -4.472569,4.558238 -0.01721,-0.02479 -0.701591,-1.347929 -1.520852,-2.940311 -0.819262,-1.592381 -1.58522,-2.994441 -1.702129,-3.115687 -0.21835,-0.22645 -0.397145,-0.0038 -3.839713,4.780876 l -1.075557,1.49488 -0.263163,-0.387877 c -1.840794,-2.713155 -4.360922,-6.087399 -4.46464,-5.977785 -0.188623,0.199347 -0.618119,0.993247 -2.047865,3.785373 l -1.25618,2.453171 -2.867273,-2.964095 c -2.596406,-2.684082 -2.85625,-2.907929 -2.750593,-2.369546 0.09114,0.464407 0.732096,1.237952 2.928174,3.533895 1.546323,1.61664 2.838637,2.939346 2.87181,2.939346 0.03317,0 0.775899,-1.429586 1.650505,-3.176858 l 1.590192,-3.176858 0.428539,0.579658 c 0.235696,0.318812 1.038889,1.461003 1.784873,2.538202 2.048124,2.957487 2.354061,3.392664 2.390049,3.3997 0.01818,0.0036 1.042863,-1.412526 2.277068,-3.146847 z"
     id="path33"
     sodipodi:nodetypes="ccsscsccssscccssscccssssccccccccssccsssssssssscsssssccssccsscsssscccsccsssscccccssscccccccssssccssssscscsscccscsccsscccccscscscssscsssssssssssssssssssscsssssscscsssssscccsssssssscssssscsssssssssssssccsssssssssscssssssssscssssssssssscssssssssssssscsssssssssssccssscssssssssscssssssssssccssssssssssssssscccsssssscscssccsssscccsssssssssssssscsssssscsscsscsssssssscsssscsssscssssssssssssscsssssscsssccsssssscccssscssssssscssscssssscsscs" /></svg>
