<?xml version="1.0" encoding="UTF-8" standalone="no"?>
<!-- Created with Inkscape (http://www.inkscape.org/) -->

<svg
   width="95.076096mm"
   height="122.81843mm"
   viewBox="0 0 95.076095 122.81843"
   version="1.1"
   id="svg1"
   xml:space="preserve"
   inkscape:export-filename="italyLeague.svg"
   inkscape:export-xdpi="96"
   inkscape:export-ydpi="96"
   sodipodi:docname="juventus.svg"
   xmlns:inkscape="http://www.inkscape.org/namespaces/inkscape"
   xmlns:sodipodi="http://sodipodi.sourceforge.net/DTD/sodipodi-0.dtd"
   xmlns="http://www.w3.org/2000/svg"
   xmlns:svg="http://www.w3.org/2000/svg"><sodipodi:namedview
     id="namedview1"
     pagecolor="#ffffff"
     bordercolor="#000000"
     borderopacity="0.25"
     inkscape:showpageshadow="2"
     inkscape:pageopacity="0.0"
     inkscape:pagecheckerboard="0"
     inkscape:deskcolor="#d1d1d1"
     inkscape:document-units="mm"><inkscape:page
       x="0"
       y="0"
       width="95.076096"
       height="122.81843"
       id="page2"
       margin="0"
       bleed="0" /></sodipodi:namedview><defs
     id="defs1" /><path
     style="fill:#c3a970;fill-opacity:1"
     d="m 41.83209,120.57117 c -7.016449,-0.38435 -13.239918,-1.16353 -13.570897,-1.69906 -0.09696,-0.15689 1.118064,-3.45058 1.363402,-3.69592 0.103323,-0.10332 0.741232,-0.0423 1.794468,0.17176 3.545616,0.72048 7.710027,0.93813 17.949605,0.93813 7.869513,0 10.071028,-0.0515 12.671389,-0.29651 2.735669,-0.25774 5.087607,-0.58806 6.32371,-0.88812 0.281123,-0.0682 0.420688,0.0284 0.632582,0.43819 0.317469,0.61392 1.077203,2.88726 1.077203,3.2233 0,0.31388 -0.69825,0.50912 -3.229962,0.90318 -3.94267,0.61367 -8.345167,0.8609 -16.315449,0.91624 -4.145118,0.0288 -8.058341,0.0238 -8.696051,-0.0112 z m 0.205971,-5.04544 c -2.073151,-0.062 -4.160203,-0.15528 -4.637894,-0.20725 -0.47769,-0.052 -1.688441,-0.17709 -2.690557,-0.27805 -2.830275,-0.28515 -4.073695,-0.50696 -4.164213,-0.74284 -0.04546,-0.11847 0.06986,-0.57671 0.256273,-1.01831 0.374237,-0.88653 0.771543,-2.6783 1.426816,-6.43463 0.581615,-3.33408 0.563286,-3.25754 0.752062,-3.14087 0.09134,0.0565 1.45425,0.20285 3.028685,0.32532 8.21176,0.63876 18.606185,0.64034 26.412961,0.004 1.758901,-0.14336 3.26398,-0.21988 3.344621,-0.17004 0.08064,0.0498 0.194973,0.44293 0.254071,0.87354 0.0591,0.4306 0.254633,1.6401 0.434522,2.68777 0.179888,1.04767 0.440848,2.57569 0.57991,3.3956 0.139063,0.81991 0.428828,1.93213 0.643922,2.47158 0.215095,0.53946 0.358138,1.03414 0.317872,1.09929 -0.222224,0.35957 -6.647781,0.97078 -12.148761,1.15561 -5.110262,0.17171 -7.497235,0.16813 -13.81029,-0.0207 z m 0.983641,-0.77716 c 0.143389,-0.0912 0.156756,-0.43402 0.04995,-1.28116 l -0.145826,-1.15667 0.571194,-1.10949 c 0.314157,-0.61023 0.571194,-1.31304 0.571194,-1.56182 0,-0.36664 0.278235,-1.43745 0.440369,-1.69478 0.02061,-0.0327 0.272722,0.10803 0.560246,0.31276 0.502355,0.35771 0.544992,0.36165 1.09181,0.10089 0.726243,-0.34632 1.048912,-0.34261 1.310449,0.0151 0.194249,0.26565 0.233667,0.25665 0.543721,-0.12423 l 0.334288,-0.41064 0.178506,0.46629 c 0.290937,0.75998 0.213508,1.07274 -0.484051,1.95522 -0.364406,0.46101 -0.662556,0.91493 -0.662556,1.00871 0,0.0938 0.260881,0.59996 0.579736,1.12485 0.595183,0.97978 0.704254,1.39425 0.414098,1.57357 -0.205286,0.12688 -0.218014,0.4141 -0.01835,0.4141 0.08101,0 0.312712,-0.13395 0.514896,-0.29767 l 0.367607,-0.29767 -0.276773,-0.82039 c -0.152225,-0.45122 -0.391872,-0.99761 -0.532548,-1.2142 -0.242219,-0.37293 -0.230699,-0.41431 0.217385,-0.78083 0.260237,-0.21286 0.518936,-0.3897 0.574885,-0.39298 0.05595,-0.003 0.230166,0.33036 0.387148,0.74141 0.205902,0.53915 0.496165,0.89236 1.041844,1.2678 1.159591,0.79782 1.388174,1.07661 1.269712,1.5486 -0.134471,0.53577 0.148212,0.52997 0.502215,-0.0103 l 0.276422,-0.42188 -0.679748,-0.81188 c -0.373862,-0.44654 -0.821286,-0.85681 -0.994275,-0.91171 -0.17299,-0.0549 -0.352783,-0.22646 -0.39954,-0.38123 -0.130092,-0.43061 -0.452716,-2.32213 -0.577719,-3.38712 l -0.11179,-0.95243 h 0.645369 0.645368 l -0.07443,0.53833 c -0.04094,0.29608 -0.104997,0.64081 -0.142351,0.76608 -0.03735,0.12526 0.01204,0.25751 0.109758,0.29388 0.158812,0.0591 0.567702,-1.27234 0.567702,-1.84858 0,-0.15097 -0.407272,-0.29345 -1.237543,-0.43296 -1.131124,-0.19007 -1.230022,-0.23791 -1.150091,-0.55638 0.124343,-0.49542 -0.487413,-1.04259 -0.839221,-0.75062 -0.279479,0.23195 -0.339519,0.92251 -0.09343,1.0746 0.08707,0.0538 -0.05076,0.40409 -0.306707,0.77946 -0.377254,0.55327 -0.570908,0.68784 -1.027741,0.71417 -0.309593,0.0178 -0.794609,0.0887 -1.077812,0.15735 -0.465161,0.11284 -0.548795,0.0701 -0.865537,-0.44241 -0.192842,-0.31202 -0.537382,-0.65241 -0.765644,-0.75641 -0.343628,-0.15657 -0.398686,-0.27077 -0.320064,-0.66388 0.126961,-0.63481 -0.307389,-1.10456 -0.784979,-0.84896 -0.243761,0.13045 -0.316162,0.31347 -0.278365,0.70363 0.04247,0.4384 -0.04094,0.59018 -0.4946,0.90001 -0.300125,0.20498 -0.575142,0.37269 -0.611147,0.37269 -0.03601,0 -0.0886,-0.27657 -0.116874,-0.6146 -0.04031,-0.48197 -0.133078,-0.63389 -0.429852,-0.70397 -0.208144,-0.0491 -0.469025,-0.26734 -0.579736,-0.48487 -0.204082,-0.401 -0.558285,-0.49497 -0.501725,-0.13312 0.01697,0.10854 0.162045,0.54193 0.322398,0.96307 0.401317,1.05401 0.153271,1.91866 -0.678995,2.36686 -0.632459,0.3406 -0.65875,0.38726 -0.425814,0.7556 0.130903,0.207 0.214001,0.1881 0.546467,-0.12423 0.215648,-0.20259 0.517724,-0.36835 0.67128,-0.36835 0.153556,0 0.279193,-0.10695 0.279193,-0.23767 0,-0.13073 0.07978,-0.44751 0.177286,-0.70397 0.156872,-0.4126 0.195967,-0.43291 0.339509,-0.17642 0.198602,0.35487 0.533281,0.37281 0.806804,0.0432 0.315922,-0.38066 0.498431,-0.13701 0.498431,0.66542 0,0.7044 -0.03256,0.75134 -0.911015,1.31328 -0.697344,0.44608 -0.911015,0.67785 -0.911015,0.98814 0,0.22296 -0.07269,0.59657 -0.161539,0.83025 -0.13454,0.35387 -0.267427,0.42488 -0.795068,0.42488 -0.701169,0 -1.031062,0.23081 -1.031062,0.72136 0,0.30831 0.01516,0.3101 0.316564,0.0373 0.245924,-0.22256 0.478129,-0.26226 1.040601,-0.17791 l 0.724037,0.10857 0.367331,-0.73551 c 0.202032,-0.40453 0.367331,-0.82236 0.367331,-0.92851 0,-0.15273 0.637795,-0.51609 0.905885,-0.51609 0.03087,0 -0.09125,0.38786 -0.271373,0.8619 l -0.327495,0.8619 0.325879,0.9544 c 0.276621,0.81014 0.290973,0.98337 0.09495,1.14605 -0.127011,0.10541 -0.230929,0.25706 -0.230929,0.33701 0,0.17704 0.505751,0.18734 0.775515,0.0158 z m 8.3999,-0.24311 c 0.399853,-0.6386 -0.734107,-1.29514 -1.22186,-0.70743 -0.353302,0.4257 0.04351,1.11644 0.602961,1.04958 0.24057,-0.0288 0.519075,-0.18272 0.618899,-0.34215 z m -15.981029,-0.25139 c -0.148135,-0.2372 -0.06976,-0.46454 0.412694,-1.19711 0.627112,-0.95222 0.742565,-1.70146 0.459559,-2.98234 -0.08541,-0.38656 -0.03782,-0.91091 0.142798,-1.57358 l 0.270889,-0.99383 0.339301,0.76541 c 0.403896,0.91112 0.644737,1.10316 0.793942,0.63306 0.06819,-0.21485 0.01083,-0.45477 -0.151644,-0.63431 -0.143725,-0.15881 -0.34287,-0.52269 -0.442544,-0.80862 -0.09967,-0.28592 -0.407079,-0.66286 -0.683122,-0.83764 -0.310035,-0.1963 -0.431507,-0.36128 -0.317762,-0.43158 0.289281,-0.17879 0.223968,-1.0832 -0.08684,-1.20247 -0.432713,-0.16604 -0.805681,0.1866 -0.805681,0.76177 0,0.4113 -0.116186,0.59817 -0.538327,0.86584 -0.519249,0.32924 -0.538327,0.33019 -0.538327,0.0269 0,-0.17293 -0.07306,-0.38747 -0.162344,-0.47676 -0.106033,-0.10603 -0.101845,-0.38146 0.01207,-0.79404 0.09593,-0.34743 0.125622,-0.68049 0.06598,-0.74013 -0.175634,-0.17563 -0.578268,0.49713 -0.578268,0.96623 0,0.23767 -0.08629,0.51842 -0.191747,0.62388 -0.145237,0.14524 -0.136032,0.25888 0.03795,0.46851 0.147942,0.17826 0.2163,0.60817 0.192062,1.2079 -0.02447,0.6055 0.0453,1.03832 0.199491,1.2376 0.306125,0.39563 0.657658,0.21146 0.425251,-0.2228 -0.274516,-0.51294 -0.179261,-1.06035 0.237171,-1.36299 0.349323,-0.25387 0.403785,-0.257 0.491565,-0.0282 0.178274,0.46458 -0.10095,1.5487 -0.679501,2.63825 -0.312818,0.5891 -0.656945,1.07217 -0.764728,1.07349 -0.271949,0.003 -1.106985,1.56341 -1.106985,2.06818 0,0.57044 0.204489,0.51829 0.487473,-0.12431 0.229756,-0.52174 2.113245,-2.60882 2.354329,-2.60882 0.06567,0 0.164048,0.31679 0.218615,0.70397 0.07878,0.55898 0.01264,0.87179 -0.321129,1.51882 -0.59697,1.15727 -0.561106,1.75255 0.105587,1.75255 0.250249,0 0.272213,-0.0526 0.122216,-0.2928 z m 23.550048,-0.0534 0.346166,-0.34616 0.381736,0.35862 c 0.425224,0.39948 0.710278,0.20413 0.409595,-0.2807 -0.136107,-0.21946 -0.132125,-0.42585 0.01531,-0.79352 l 0.199261,-0.49692 0.316624,0.70397 c 0.21369,0.4751 0.420391,0.70396 0.635808,0.70396 0.476227,0 0.655133,-0.49829 0.548802,-1.52854 -0.0723,-0.70054 -0.03037,-1.01421 0.17473,-1.30703 l 0.269862,-0.38528 v 0.58396 c 0,0.38249 0.165052,0.80952 0.478405,1.23774 0.263123,0.35958 0.516104,0.80285 0.56218,0.98506 0.07974,0.31531 0.08954,0.31331 0.20347,-0.0414 0.143407,-0.44652 0.335657,-0.47906 0.489264,-0.0828 0.106249,0.27407 0.124397,0.27353 0.333098,-0.01 0.139686,-0.18971 0.260664,-0.23516 0.329501,-0.12378 0.07669,0.12409 0.206641,0.12362 0.440587,-0.002 0.238477,-0.12763 0.394577,-0.12549 0.554938,0.008 0.389986,0.32366 0.415943,-0.0829 0.05223,-0.81799 -0.213623,-0.43177 -0.362665,-1.07641 -0.379738,-1.64244 -0.01593,-0.52828 -0.166861,-1.21862 -0.348556,-1.59428 -0.244013,-0.50451 -0.299881,-0.87987 -0.234213,-1.57357 l 0.08624,-0.91102 0.223183,0.76753 c 0.169635,0.58337 0.178172,0.85163 0.03558,1.11806 -0.235108,0.43931 -0.04844,0.44018 0.477764,0.002 0.275566,-0.22934 0.343682,-0.37533 0.212854,-0.45618 -0.105818,-0.0654 -0.277409,-0.51531 -0.381314,-0.9998 -0.103904,-0.48449 -0.330129,-1.0221 -0.502722,-1.19469 -0.188437,-0.18844 -0.313806,-0.54542 -0.313806,-0.89355 0,-0.46257 -0.0647,-0.57973 -0.320116,-0.57973 -0.339368,0 -0.605649,0.53632 -0.417461,0.84081 0.208048,0.33663 -0.447734,1.27869 -0.940455,1.351 -0.40835,0.0599 -0.464204,0.0115 -0.508421,-0.44109 -0.03735,-0.38233 -0.142107,-0.52156 -0.422362,-0.56136 -0.295129,-0.0419 -0.37216,0.027 -0.370152,0.33128 0.0014,0.21131 0.07053,0.49167 0.153636,0.62302 0.105491,0.16673 0.02973,0.38305 -0.250995,0.71667 -0.226482,0.26916 -0.402094,0.69089 -0.402094,0.96562 0,0.35662 -0.108893,0.53738 -0.404986,0.67229 -0.383459,0.17471 -0.679959,0.60067 -0.525578,0.75505 0.03909,0.0391 0.376262,-0.12159 0.749275,-0.35706 0.59322,-0.37449 0.679037,-0.50571 0.684838,-1.0472 l 0.0066,-0.61907 0.224934,0.4141 c 0.400682,0.73764 0.354908,1.2107 -0.214834,2.22023 -0.511348,0.90606 -0.536225,1.01977 -0.368676,1.68517 0.336701,1.33716 0.188976,1.55643 -0.326107,0.48403 -0.651968,-1.35739 -1.088305,-2.78149 -1.229588,-4.01308 -0.114402,-0.99726 -0.104195,-1.03802 0.306806,-1.22529 0.249535,-0.11369 0.501045,-0.42369 0.608897,-0.75048 0.261946,-0.79371 0.107429,-1.04999 -0.218696,-0.36273 -0.150913,0.31802 -0.459226,0.66244 -0.685139,0.76538 -0.393637,0.17935 -0.412874,0.16159 -0.461689,-0.42611 -0.04036,-0.48585 -0.119763,-0.61325 -0.382217,-0.61325 -0.269265,0 -0.331278,0.11042 -0.331278,0.5899 0,0.45425 -0.166551,0.78888 -0.724252,1.45515 l -0.724251,0.86525 0.281789,0.73785 c 0.472262,1.2366 0.89356,1.26225 0.523267,0.0319 -0.210412,-0.69914 -0.204417,-0.78713 0.07058,-1.03601 0.282427,-0.25559 0.31664,-0.2408 0.568135,0.24553 0.229258,0.44334 0.239636,0.65969 0.07242,1.50966 -0.107357,0.54568 -0.25712,1.03042 -0.332808,1.0772 -0.07569,0.0468 -0.44892,-0.0738 -0.829406,-0.26788 -0.590708,-0.30136 -0.748858,-0.32239 -1.082335,-0.14391 -0.554051,0.29652 -0.521681,0.71877 0.04421,0.57674 0.318333,-0.0799 0.609718,0.007 1.088119,0.32326 0.35935,0.23781 0.776628,0.40864 0.927285,0.37962 0.150657,-0.029 0.434057,-0.33823 0.629778,-0.68715 l 0.355856,-0.6344 0.184724,0.5299 c 0.136365,0.39118 0.135547,0.73108 -0.0031,1.29836 -0.232992,0.95315 -0.256597,0.98027 -0.52901,0.60772 -0.317828,-0.43466 -1.100715,-0.22383 -1.100715,0.29641 0,0.3741 0.274307,0.77535 0.530045,0.77535 0.07288,0 0.288286,-0.15577 0.478677,-0.34617 z m 4.623007,-1.2274 c 0,-0.0455 0.03727,-0.0828 0.08282,-0.0828 0.04555,0 0.08282,0.0373 0.08282,0.0828 0,0.0456 -0.03727,0.0828 -0.08282,0.0828 -0.04555,0 -0.08282,-0.0373 -0.08282,-0.0828 z m 0.595286,-0.0577 c -0.05405,-0.0875 0.04268,-0.48296 0.214957,-0.87888 0.309112,-0.71037 0.376961,-0.70234 0.565657,0.0669 0.06644,0.27087 -0.652717,1.01889 -0.780614,0.81195 z m -1.058703,-0.69122 c -0.34726,-0.43986 -0.363842,-0.54425 -0.189306,-1.19172 0.110334,-0.4093 0.146482,-1.09158 0.08541,-1.61215 -0.05823,-0.49639 -0.04758,-0.84415 0.02367,-0.77279 0.07125,0.0713 0.252679,-0.26789 0.403175,-0.75387 l 0.27363,-0.8836 0.01624,1.18006 c 0.0089,0.64903 0.127095,1.49426 0.262585,1.87828 0.154861,0.43892 0.192761,0.80035 0.102055,0.97325 -0.07936,0.15126 -0.196767,0.59181 -0.260905,0.97899 -0.06414,0.38719 -0.165966,0.69985 -0.226285,0.69481 -0.06032,-0.005 -0.280938,-0.22611 -0.490267,-0.49126 z m -0.199139,-4.47853 c 0,-0.27868 0.06454,-0.4668 0.143425,-0.41805 0.133433,0.0825 0.06064,0.92475 -0.07992,0.92475 -0.03493,0 -0.06351,-0.22802 -0.06351,-0.5067 z m -28.518616,6.00508 c 0.108412,-0.76476 -0.777171,-1.18993 -1.124951,-0.5401 -0.2224,0.41556 -0.219771,0.43584 0.09764,0.75325 0.378879,0.37888 0.960494,0.2582 1.027313,-0.21315 z m 20.937565,-0.002 0.275412,-0.46624 -0.677435,-0.69795 -0.677436,-0.69796 0.272097,-0.8425 c 0.149654,-0.46337 0.272098,-0.94961 0.272098,-1.08053 0,-0.18684 0.343985,-0.93116 0.782783,-1.69379 0.02057,-0.0358 0.154215,0.0319 0.296981,0.15042 0.230453,0.19126 0.199216,0.2777 -0.278425,0.7705 -0.506983,0.52307 -0.521718,0.57136 -0.255572,0.8375 0.255317,0.25532 0.282428,0.25659 0.282428,0.0132 0,-0.14807 0.223613,-0.45738 0.496918,-0.68735 0.273304,-0.22997 0.496917,-0.56568 0.496917,-0.74603 0,-0.18054 -0.331939,-0.62007 -0.738675,-0.9781 -0.531582,-0.46791 -0.688227,-0.70065 -0.558736,-0.83014 0.101104,-0.10111 0.131888,-0.37139 0.07026,-0.61692 -0.0834,-0.33229 -0.197556,-0.42448 -0.476508,-0.38481 -0.293149,0.0417 -0.366512,0.16029 -0.365232,0.59049 0.0018,0.60517 -0.274253,0.68588 -1.219177,0.35648 -0.601151,-0.20956 -0.700954,-0.70437 -0.196525,-0.97433 0.196248,-0.10503 0.286639,-0.27425 0.228051,-0.42693 -0.132248,-0.34463 -0.254793,-0.27157 -0.952526,0.5679 -0.472257,0.56819 -0.56097,0.77317 -0.412198,0.95242 0.104263,0.12563 0.331913,0.22842 0.505887,0.22842 0.173974,0 0.574804,0.10801 0.890733,0.24001 0.519246,0.21695 0.574417,0.30342 0.574417,0.90023 0,0.98981 -0.222454,1.4014 -1.13999,2.10923 -0.458463,0.35368 -0.836743,0.73919 -0.840624,0.8567 -0.0039,0.1175 0.14202,0.50586 0.324223,0.863 0.182203,0.35715 0.331278,0.80141 0.331278,0.98724 0,0.33803 0.237151,0.45854 0.396137,0.2013 0.04643,-0.0751 -0.01812,-0.57763 -0.143427,-1.1167 -0.125309,-0.53906 -0.214798,-0.98427 -0.198863,-0.98936 0.01593,-0.005 0.230039,-0.0955 0.475786,-0.2009 l 0.446814,-0.19166 -0.07717,0.77927 -0.07717,0.77927 0.70701,0.51019 c 0.555798,0.40106 0.70034,0.60476 0.675826,0.95242 -0.04025,0.5708 0.137486,0.56198 0.483628,-0.024 z m -10.878348,-1.70117 c 0.369552,-0.25005 0.874998,-0.47961 1.123213,-0.51014 0.622416,-0.0765 0.571714,-0.36254 -0.08912,-0.50268 -0.361778,-0.0767 -0.602529,-0.0461 -0.712174,0.0905 -0.0911,0.11354 -0.405415,0.30416 -0.698474,0.42359 -0.660587,0.26921 -0.942821,0.5943 -0.811978,0.93527 0.10823,0.28204 0.148115,0.26739 1.188532,-0.43658 z m 2.06113,-1.97357 c 0.388191,-0.36263 0.457128,-0.49692 0.255087,-0.49692 -0.469213,0 -0.917643,0.32662 -0.917643,0.66838 0,0.42436 0.03421,0.4155 0.662556,-0.17146 z m -3.47842,-6.46029 c -3.562284,-0.1263 -9.586888,-0.55643 -10.72513,-0.76572 -0.411041,-0.0756 -0.537144,-0.18274 -0.533323,-0.45324 0.0089,-0.62691 0.602089,-3.429681 0.756568,-3.574449 0.08219,-0.07703 1.230238,-0.03818 2.551209,0.08632 4.531949,0.427136 13.634677,0.608876 20.207967,0.403461 3.325205,-0.103913 7.113239,-0.280471 8.417855,-0.392353 1.304617,-0.111881 2.40311,-0.153131 2.441098,-0.09167 0.152206,0.246274 0.743341,3.647939 0.657945,3.786119 -0.149884,0.24251 -0.791023,0.32227 -5.305433,0.65999 -5.048198,0.37765 -13.199078,0.52838 -18.468756,0.34154 z m -1.206451,-5.255444 c -0.601578,-0.06269 -0.623397,-0.08648 -0.544016,-0.593302 0.04548,-0.290398 0.162207,-1.459716 0.259384,-2.598485 0.172713,-2.023945 0.557076,-6.066115 1.075379,-11.309261 0.348812,-3.52858 0.486546,-6.109313 0.354197,-6.636631 -0.06016,-0.239719 -0.289554,-0.553901 -0.509752,-0.69818 -0.49114,-0.321807 -0.967807,-0.120872 -1.311649,0.552914 -0.216665,0.424572 -0.781154,3.493245 -1.012213,5.502589 -0.05762,0.501058 -0.175546,1.283703 -0.262061,1.73921 -0.08651,0.455508 -0.266753,1.648109 -0.400528,2.650225 -0.310278,2.324304 -0.861801,6.168592 -1.069359,7.453758 -0.08828,0.546609 -0.248878,1.616039 -0.356887,2.37651 l -0.196379,1.382674 -0.494861,-0.09897 c -0.272173,-0.05443 -0.709155,-0.09897 -0.971072,-0.09897 -0.380918,0 -0.476212,-0.07328 -0.476212,-0.366184 0,-0.347207 0.553657,-3.291076 1.987161,-10.565994 0.35005,-1.776479 0.909836,-4.646176 1.243968,-6.377104 0.682448,-3.535333 1.733642,-8.932997 2.225813,-11.429096 0.179631,-0.911015 0.485767,-2.550842 0.680302,-3.64406 0.194536,-1.093217 0.381969,-2.081669 0.416518,-2.196558 0.0495,-0.164621 1.511477,-0.199724 6.898395,-0.16564 l 6.835579,0.04325 0.136693,0.911015 c 0.147242,0.98132 1.25432,6.871713 1.774483,9.441427 0.175187,0.865464 0.623323,3.176129 0.995856,5.134811 0.372533,1.958682 0.819403,4.269347 0.993046,5.134812 0.367709,1.832731 1.426576,7.353705 2.155794,11.240391 0.279644,1.490489 0.485642,2.729115 0.457773,2.752502 -0.02787,0.02339 -0.500112,0.09151 -1.04943,0.151391 l -0.998758,0.10887 -0.197661,-1.536259 c -0.108713,-0.844942 -0.304001,-2.281634 -0.433972,-3.192649 -0.129972,-0.911015 -0.358135,-2.513573 -0.507029,-3.56124 -0.148895,-1.047667 -0.378457,-2.612956 -0.510137,-3.47842 -0.131681,-0.865465 -0.313074,-2.132603 -0.403096,-2.815865 -0.414408,-3.145324 -0.850493,-5.674803 -1.068152,-6.195736 -0.13092,-0.313334 -0.435433,-0.699038 -0.676697,-0.85712 -0.421738,-0.276334 -0.451761,-0.274324 -0.778192,0.05211 -0.481684,0.481683 -0.624245,1.529527 -0.456025,3.351831 0.08014,0.868136 0.300009,3.255525 0.488599,5.305308 0.18859,2.049784 0.486506,5.180362 0.662036,6.956841 0.175529,1.776479 0.367934,3.87068 0.427566,4.653779 l 0.108422,1.423818 -0.890313,0.106904 c -0.489671,0.0588 -1.869556,0.107552 -3.066409,0.108344 l -2.176096,0.0014 -0.110201,-4.016748 c -0.06061,-2.209211 -0.170363,-6.849175 -0.243895,-10.311032 -0.09203,-4.332498 -0.198145,-6.463638 -0.340477,-6.837644 -0.11373,-0.298848 -0.418124,-0.65265 -0.676431,-0.786226 -0.904802,-0.467891 -1.696885,0.238783 -1.888525,1.684886 -0.04654,0.351194 -0.165512,4.1418 -0.264381,8.42357 -0.09887,4.28177 -0.206141,8.455875 -0.23838,9.275788 -0.03224,0.819913 -0.06447,1.732999 -0.07163,2.029079 l -0.01302,0.538327 -2.443177,-0.02784 c -1.343747,-0.01531 -2.725197,-0.05723 -3.06989,-0.09315 z m 6.341062,-1.990904 c -1.1e-4,-1.161543 0.08177,-5.764239 0.181953,-10.228212 0.192868,-8.593783 0.255664,-9.192968 0.963441,-9.192968 0.657397,0 0.733152,0.519079 0.858162,5.880187 0.06585,2.824146 0.175551,7.501379 0.243774,10.393851 l 0.12404,5.259041 h -1.185585 -1.185585 z m 1.828174,-0.383795 c 0.229731,-0.429256 -0.183868,-1.148366 -0.660488,-1.148366 -0.659151,0 -1.078823,0.850603 -0.637441,1.291985 0.325425,0.325424 1.09232,0.240566 1.297929,-0.143619 z m -11.145172,2.219615 c -0.159427,-0.04372 -0.289868,-0.182759 -0.289868,-0.308977 0,-0.126218 0.25848,-1.965558 0.5744,-4.087422 0.540646,-3.631228 1.685676,-11.522588 2.097965,-14.458835 0.295584,-2.105094 0.772128,-2.948231 1.131746,-2.002364 0.161166,0.423899 -0.201015,4.906967 -1.239,15.336309 -0.140537,1.412073 -0.30932,3.238244 -0.375072,4.058157 l -0.119551,1.490752 -0.745376,0.02594 c -0.409956,0.01426 -0.875816,-0.0098 -1.035244,-0.05356 z m 19.036638,-1.0698 c -0.133111,-1.543178 -0.675985,-7.315536 -1.104077,-11.739608 -0.652117,-6.739229 -0.714435,-7.564278 -0.604442,-8.002522 0.13884,-0.553185 0.559786,-0.578485 0.762306,-0.04582 0.149811,0.394032 0.941247,5.503387 1.426284,9.207812 0.137176,1.047667 0.282447,2.016655 0.322824,2.153308 0.04038,0.136652 0.222141,1.329253 0.403918,2.650225 0.181778,1.320971 0.471347,3.370755 0.643488,4.555074 0.172141,1.184319 0.291343,2.178477 0.264894,2.209238 -0.02645,0.03076 -0.48948,0.09596 -1.028959,0.144873 l -0.98087,0.08894 z m 1.488078,-1.842673 c -0.04595,-0.113877 -0.08355,-0.02071 -0.08355,0.207048 0,0.227754 0.0376,0.320926 0.08355,0.207049 0.04595,-0.113877 0.04595,-0.300221 0,-0.414097 z M 40.279471,61.952454 C 38.71747,61.059531 36.185289,58.727884 34.247028,56.397745 32.858104,54.728008 30.671546,51.279604 29.596623,49.063627 25.843245,41.325961 24.052116,33.409166 23.491478,22.07886 23.384418,19.9152 23.242574,18.144932 23.17627,18.144932 c -0.212063,0 -0.641132,-0.512043 -0.641132,-0.765116 0,-0.134495 0.171201,-0.408687 0.380447,-0.609315 l 0.380446,-0.364779 -0.09058,-4.288179 c -0.07067,-3.3459157 -0.04376,-4.3548712 0.122507,-4.5916932 0.117197,-0.1669331 0.676229,-0.4453559 1.242293,-0.6187174 1.149409,-0.3520153 3.415227,-0.5982747 3.69622,-0.4017218 0.123735,0.086552 0.217861,2.0993293 0.292569,6.2562514 0.153798,8.55762 0.333053,11.689008 0.713547,12.464877 0.596199,1.215716 2.116801,1.731567 3.206595,1.08781 0.259002,-0.152996 0.675563,-0.654183 0.925689,-1.113748 l 0.454776,-0.835574 0.239638,-9.445742 c 0.13403,-5.2830485 0.308677,-9.5329765 0.396299,-9.6436896 0.08616,-0.1088713 0.542256,-0.2769032 1.013538,-0.3734043 2.295398,-0.4700122 9.743079,-0.7020155 9.984719,-0.3110347 0.06603,0.1068469 0.25092,3.740554 0.410856,8.0749046 0.432629,11.724455 0.457811,11.951346 1.441324,12.986479 0.958381,1.008681 2.042394,1.20053 3.311646,0.586095 0.77348,-0.374435 1.26539,-1.010473 1.519772,-1.965057 0.220931,-0.829059 0.486919,-5.546817 0.733902,-13.017042 0.11773,-3.5608643 0.274541,-6.5721675 0.348469,-6.691785 0.107512,-0.1739571 0.883602,-0.1978142 3.877593,-0.1191974 3.826509,0.1004772 6.071257,0.3214354 6.807501,0.6700854 l 0.414098,0.1960969 0.114287,4.3875194 c 0.187302,7.1905477 0.464508,14.3625657 0.576836,14.9242057 0.05781,0.289068 0.416314,0.850363 0.796667,1.247321 0.626884,0.654253 0.765387,0.721743 1.481173,0.721743 0.993464,0 1.614959,-0.362069 2.098603,-1.222598 0.355934,-0.633298 0.390286,-0.973735 0.586492,-5.812286 0.114627,-2.826774 0.212399,-6.908436 0.217271,-9.07036 l 0.0089,-3.9307723 0.372688,-0.092988 c 1.060444,-0.2645866 4.57413,0.5461186 4.964475,1.1454426 0.06574,0.1009397 0.07234,2.1433199 0.01465,4.5386225 l -0.104884,4.355096 0.358039,0.250781 c 0.466975,0.327081 0.454924,0.849594 -0.02996,1.298968 -0.369808,0.342726 -0.392671,0.495042 -0.487667,3.248955 -0.501515,14.538708 -3.798584,25.745081 -10.036319,34.112337 -1.853408,2.486149 -5.316947,5.787019 -6.929028,6.603598 l -0.697367,0.353243 -8.329962,-0.002 -8.329963,-0.002 z M 30.52742,25.344167 C 30.32756,25.20418 30.090914,24.812857 30.00154,24.474562 29.803414,23.724624 29.52019,16.618994 29.456229,10.793627 L 29.409159,6.5066442 30.151785,6.2860223 C 30.56023,6.1646802 31.468114,6.0169774 32.169307,5.9577938 l 1.274895,-0.1076066 -0.08759,3.4557375 C 33.308439,11.20658 33.177568,15.383663 33.065787,18.588331 L 32.86255,24.415 32.411128,25.006845 c -0.353258,0.463145 -0.567641,0.591845 -0.985874,0.591845 -0.293948,0 -0.697973,-0.114535 -0.897834,-0.254523 z m 0.952228,-5.46236 c 0,-0.803953 0.05957,-0.967628 0.497328,-1.366522 0.572857,-0.521996 0.866949,-1.529826 0.446414,-1.529826 -0.141428,0 -0.411627,0.196396 -0.600442,0.436435 l -0.3433,0.436436 v -0.381984 c 0,-0.21009 0.118524,-0.512951 0.263388,-0.673023 0.274025,-0.302795 0.179676,-1.065977 -0.109675,-0.887148 -0.08454,0.05225 -0.153713,-0.09072 -0.153713,-0.317711 0,-0.255942 0.116288,-0.44962 0.306141,-0.509877 0.557077,-0.176809 0.95555,-1.581549 0.448627,-1.581549 -0.131486,0 -0.355099,0.16566 -0.496917,0.368134 -0.141818,0.202474 -0.257851,0.280321 -0.257851,0.172995 0,-0.107327 0.186344,-0.469732 0.414097,-0.805346 0.417773,-0.615622 0.546203,-1.226535 0.257851,-1.226535 -0.08593,0 -0.272279,0.165661 -0.414097,0.368134 l -0.257851,0.368134 v -0.442723 c 0,-0.243497 0.100925,-0.502329 0.224278,-0.575182 0.301593,-0.178123 0.603917,-0.77796 0.603917,-1.198225 0,-0.417994 -0.12356,-0.429757 -0.549386,-0.0523 l -0.327013,0.289868 0.189741,-0.361798 c 0.26132,-0.4982852 0.238531,-1.9099264 -0.03691,-2.2866198 l -0.226654,-0.3099688 -0.167846,0.31972 C 30.856748,8.7696829 30.801984,9.4831169 31.034507,10.15802 l 0.232854,0.675865 -0.390774,-0.256045 c -0.37522,-0.245853 -0.390774,-0.23931 -0.390774,0.164395 0,0.231241 0.186344,0.641896 0.414098,0.912566 0.581946,0.691604 0.553574,1.18718 -0.03431,0.599296 -0.174219,-0.17422 -0.313842,-0.204372 -0.426179,-0.09203 -0.209398,0.209398 0.111077,1.036631 0.558445,1.441493 0.173878,0.157358 0.316143,0.386359 0.316143,0.508892 0,0.150459 -0.10755,0.115237 -0.331278,-0.108492 -0.465101,-0.4651 -0.662557,-0.412953 -0.662557,0.174977 0,0.349635 0.151595,0.644715 0.490016,0.953815 0.361961,0.3306 0.449197,0.512126 0.333815,0.694629 -0.213895,0.338322 -0.200997,1.052105 0.02306,1.276161 0.328009,0.328009 -0.0019,0.575034 -0.397703,0.297796 -0.196493,-0.13763 -0.421135,-0.250235 -0.499204,-0.250235 -0.276887,0 0.08085,1.082255 0.476443,1.441396 0.333158,0.302456 0.401769,0.521675 0.401769,1.283703 0,0.505428 0.07454,0.91896 0.165639,0.91896 0.0911,0 0.165639,-0.411007 0.165639,-0.91335 z m -0.993835,-4.304281 c 0,-0.04555 -0.03727,-0.08282 -0.08282,-0.08282 -0.04555,0 -0.08282,0.03727 -0.08282,0.08282 0,0.04555 0.03727,0.08282 0.08282,0.08282 0.04555,0 0.08282,-0.03727 0.08282,-0.08282 z m 17.808466,9.662075 C 48.0432,25.042102 47.729272,24.620836 47.596661,24.303453 47.319268,23.639558 47.11604,21.101793 46.97083,16.488541 46.914913,14.712062 46.79615,11.440451 46.706913,9.2182948 46.617677,6.9961382 46.589761,5.1326987 46.644878,5.0773181 46.789404,4.9321013 50.968491,4.846326 51.651972,4.974548 l 0.576103,0.1080774 -0.102994,2.0174887 c -0.05665,1.1096187 -0.140219,3.1355519 -0.185716,4.5020749 -0.348647,10.471724 -0.471656,12.179665 -0.936808,13.00729 -0.577885,1.028207 -1.831417,1.319861 -2.708278,0.630122 z m 1.240028,-5.603917 c 0,-0.90032 0.05347,-1.159474 0.239222,-1.159474 0.375379,0 1.062538,-0.699065 1.18043,-1.200883 0.0955,-0.406497 0.06122,-0.455508 -0.318589,-0.455508 -0.234081,0 -0.577581,0.163131 -0.763333,0.362512 l -0.33773,0.362511 v -0.439503 c 0,-0.264844 0.127192,-0.507574 0.32006,-0.610794 0.176033,-0.09421 0.368291,-0.33908 0.427241,-0.544155 0.308185,-1.072128 0.312912,-1.060881 -0.230713,-0.548923 l -0.516588,0.486497 0.001,-0.486497 c 7.9e-4,-0.366809 0.12341,-0.556126 0.498415,-0.769521 0.7221,-0.410907 1.130107,-1.621825 0.546458,-1.621825 -0.153556,0 -0.451707,0.162068 -0.662557,0.360151 -0.597926,0.561723 -0.499742,-0.05265 0.105071,-0.657464 0.483364,-0.483363 0.808472,-1.276858 0.606075,-1.479255 -0.05761,-0.05761 -0.327445,0.0599 -0.599629,0.261131 -0.67334,0.497822 -0.625603,0.126712 0.08486,-0.659682 C 51.013447,9.8394698 50.782219,8.7807055 49.865585,9.6973395 49.475127,10.087798 49.449323,10.010915 49.765538,9.3992455 50.187751,8.5825397 50.159786,7.633033 49.696263,7.0471143 L 49.368668,6.6330167 49.041073,7.0471143 c -0.393002,0.4967753 -0.438035,1.7040063 -0.0865,2.318947 0.293681,0.5137414 0.32093,0.8180657 0.04141,0.4624817 -0.113877,-0.1448655 -0.38578,-0.316708 -0.604229,-0.3818722 -0.376335,-0.1122623 -0.39157,-0.089234 -0.29028,0.438782 0.05919,0.3085552 0.328859,0.7595142 0.604229,1.0104352 0.273531,0.249245 0.497329,0.568933 0.497329,0.710418 0,0.208052 -0.06932,0.192661 -0.362512,-0.08048 -0.199381,-0.185752 -0.46958,-0.337731 -0.600441,-0.337731 -0.438777,0 -0.08352,1.033416 0.546974,1.591125 0.31989,0.282959 0.581618,0.654886 0.581618,0.826503 0,0.26841 -0.05883,0.248588 -0.420801,-0.141783 -0.448959,-0.484182 -1.069951,-0.609627 -1.069951,-0.21614 0,0.52217 0.354119,1.115828 0.825651,1.38415 0.362898,0.206505 0.49765,0.406176 0.498414,0.738532 l 0.001,0.455507 -0.331279,-0.331278 c -0.182203,-0.182203 -0.400612,-0.331278 -0.485354,-0.331278 -0.26647,0 0.126552,1.061313 0.482858,1.303906 0.184327,0.1255 0.333775,0.411835 0.333775,0.639497 v 0.412244 L 48.91316,17.170851 c -0.159427,-0.191524 -0.476212,-0.367491 -0.703966,-0.391038 -0.354633,-0.03666 -0.40621,0.01665 -0.359171,0.371285 0.0815,0.614455 0.475283,1.140731 0.941003,1.257619 0.389052,0.09765 0.412003,0.166995 0.412003,1.244923 0,0.650585 0.07124,1.141517 0.165639,1.141517 0.09465,0 0.165639,-0.496917 0.165639,-1.159473 z m 16.915387,5.511774 C 66.043078,24.740842 65.964103,24.505686 65.876095,23.439504 65.758423,22.013965 65.451162,12.557552 65.392576,8.5584596 l -0.03974,-2.712451 1.221976,0.1033061 c 1.23211,0.1041628 2.462737,0.3827205 2.735456,0.6191822 0.148877,0.129083 -0.144546,12.5718961 -0.381496,16.1776841 -0.145624,2.216017 -0.404035,2.736665 -1.400261,2.821252 -0.486185,0.04128 -0.701308,-0.04246 -1.078819,-0.419975 z m 1.139272,-5.346135 c 0,-0.733722 0.05972,-0.993835 0.228177,-0.993835 0.320974,0 0.580428,-0.357558 0.702559,-0.968211 0.08623,-0.431145 0.05247,-0.52254 -0.193023,-0.52254 -0.163642,0 -0.433841,0.123358 -0.600442,0.27413 -0.284301,0.257289 -0.30291,0.252802 -0.30291,-0.07304 0,-0.190946 0.07599,-0.394141 0.168876,-0.451546 0.09834,-0.06078 0.130946,-0.436115 0.07806,-0.898624 -0.08191,-0.716434 -0.04977,-0.821144 0.328041,-1.068697 0.315112,-0.206469 0.418852,-0.417084 0.418852,-0.850361 0,-0.677001 -0.340081,-0.773014 -0.735983,-0.207784 -0.141819,0.202474 -0.256495,0.295646 -0.254837,0.207049 0.0017,-0.0886 0.22527,-0.489086 0.496917,-0.889977 0.271647,-0.40089 0.493903,-0.817058 0.493903,-0.924818 0,-0.390289 -0.231748,-0.412419 -0.608858,-0.05814 l -0.384976,0.361666 V 12.38583 c 0,-0.192917 0.151417,-0.456815 0.336482,-0.58644 0.334158,-0.234054 0.708938,-1.167056 0.537615,-1.338379 -0.0492,-0.0492 -0.240036,-0.0089 -0.424075,0.08962 -0.290977,0.155726 -0.318701,0.138765 -0.212588,-0.130057 0.253121,-0.641242 0.290441,-1.3698332 0.09976,-1.9475988 -0.233289,-0.7068724 -0.38142,-0.7474367 -0.641886,-0.175775 -0.245979,0.5398659 -0.247282,1.6482156 -0.0025,2.1149938 l 0.189741,0.361798 -0.327012,-0.289868 c -0.437989,-0.388238 -0.549387,-0.365626 -0.549387,0.111521 0,0.220764 0.186344,0.622846 0.414098,0.893516 0.227753,0.27067 0.414097,0.624801 0.414097,0.786957 0,0.257563 -0.05234,0.245657 -0.414097,-0.09419 l -0.414098,-0.389024 v 0.419856 c 0,0.230921 0.186344,0.69445 0.414098,1.030064 0.227753,0.335614 0.414097,0.698019 0.414097,0.805346 0,0.107326 -0.116033,0.02948 -0.257851,-0.172995 -0.284733,-0.406515 -0.735983,-0.495045 -0.735983,-0.144393 0,0.501285 0.378852,1.259786 0.676401,1.354224 0.219629,0.06971 0.317433,0.253428 0.317433,0.596281 0,0.272541 -0.06673,0.454291 -0.148282,0.403887 -0.08156,-0.0504 -0.191023,0.01973 -0.24326,0.155863 -0.112856,0.294097 0.03452,0.744425 0.243625,0.744425 0.08136,0 0.147917,0.162068 0.147917,0.360151 v 0.360151 L 66.874324,17.34561 c -0.537644,-0.50509 -0.807235,-0.467104 -0.676741,0.09536 0.135938,0.585918 0.516734,1.193454 0.821297,1.310326 0.170601,0.06547 0.238807,0.37043 0.238807,1.067752 0,0.540316 0.07395,0.976113 0.16564,0.976113 0.09202,0 0.165639,-0.441704 0.165639,-0.993834 z"
     id="path28" /></svg>
