<?xml version="1.0" encoding="UTF-8" standalone="no"?>
<!-- Created with Inkscape (http://www.inkscape.org/) -->

<svg
   width="95.076096mm"
   height="122.81843mm"
   viewBox="0 0 95.076095 122.81843"
   version="1.1"
   id="svg1"
   xml:space="preserve"
   inkscape:export-filename="italyLeague.png"
   inkscape:export-xdpi="96"
   inkscape:export-ydpi="96"
   sodipodi:docname="juventus.svg"
   xmlns:inkscape="http://www.inkscape.org/namespaces/inkscape"
   xmlns:sodipodi="http://sodipodi.sourceforge.net/DTD/sodipodi-0.dtd"
   xmlns="http://www.w3.org/2000/svg"
   xmlns:svg="http://www.w3.org/2000/svg"><sodipodi:namedview
     id="namedview1"
     pagecolor="#ffffff"
     bordercolor="#000000"
     borderopacity="0.25"
     inkscape:showpageshadow="2"
     inkscape:pageopacity="0.0"
     inkscape:pagecheckerboard="0"
     inkscape:deskcolor="#d1d1d1"
     inkscape:document-units="mm"><inkscape:page
       x="0"
       y="0"
       width="95.076096"
       height="122.81843"
       id="page2"
       margin="0"
       bleed="0" /></sodipodi:namedview><defs
     id="defs1" /><path
     style="fill:#c3a970;fill-opacity:1"
     d="m 43.623404,121.91866 c -8.555852,-0.48711 -16.338537,-2.76657 -18.323214,-5.36665 l -0.507403,-0.66474 -0.05862,-3.26996 c -0.06264,-3.49409 0.05125,-4.27358 0.715617,-4.89772 l 0.398931,-0.37478 v 0.97636 0.97637 l 0.889696,0.81807 c 2.353718,2.16425 7.178424,3.70101 14.245757,4.53755 3.634906,0.43025 10.998269,0.43418 14.430374,0.008 9.663694,-1.2008 15.515929,-3.8141 14.976811,-6.68784 -0.160488,-0.85548 -0.457877,-0.83317 -0.457877,0.0344 0,0.55744 -0.120492,0.80091 -0.651734,1.3169 -2.911273,2.82771 -12.29988,4.69095 -22.402573,4.44594 -4.454414,-0.10802 -6.491845,-0.28103 -9.713925,-0.82484 -5.026295,-0.84831 -9.05621,-2.32895 -10.350288,-3.80283 -0.411019,-0.46812 -0.524579,-0.76185 -0.518534,-1.34121 0.0043,-0.408 -0.03888,-3.8077 -0.09585,-7.55487 -0.08766,-5.765256 -0.0642,-6.888475 0.152536,-7.303467 0.806632,-1.544503 3.171165,-2.680881 7.59101,-3.648185 3.219421,-0.704586 3.888765,-0.733875 5.109235,-0.223569 4.375356,1.829435 14.776915,1.790319 18.422025,-0.06928 0.629144,-0.320965 0.918441,-0.360276 1.947507,-0.264634 1.359882,0.126387 3.826647,0.647307 5.670944,1.197562 2.497711,0.745204 4.634756,2.0239 4.992621,2.987322 0.06105,0.164362 0.05279,3.31091 -0.01836,6.992329 l -0.129365,6.693489 0.865558,0.86556 c 0.582918,0.58292 0.90388,1.06983 0.982914,1.49111 0.06454,0.34406 0.08963,1.9964 0.05575,3.67187 -0.05732,2.83443 -0.09038,3.09259 -0.475329,3.71175 -1.503034,2.41755 -8.435174,4.74454 -16.07808,5.3971 -3.130066,0.26726 -8.590516,0.34834 -11.666129,0.17323 z M 56.321327,98.704195 c 3.298528,-0.383456 6.9868,-1.128739 9.105281,-1.839889 1.626635,-0.546044 3.289277,-1.363582 3.637457,-1.788574 0.174262,-0.212706 1.93e-4,-0.161627 -0.557119,0.163482 -1.810699,1.056274 -5.56192,2.009157 -10.276616,2.610459 -2.820747,0.359752 -3.910003,0.403891 -9.943269,0.402917 -5.998186,-9.69e-4 -7.148884,-0.04742 -10.030095,-0.404899 -5.049901,-0.626553 -9.073141,-1.751238 -11.00036,-3.075119 l -0.527961,-0.362676 0.335617,0.385649 c 0.791781,0.909814 3.480393,2.054474 6.439885,2.74174 3.178647,0.738158 3.468822,0.791155 5.931989,1.083401 5.721759,0.678867 11.51729,0.70753 16.885191,0.08351 z M 45.0313,89.204857 c -2.245416,-0.173828 -4.870987,-0.781173 -5.990378,-1.385691 l -0.873118,-0.471519 -0.04584,-7.693931 -0.04584,-7.693931 0.573805,0.336909 c 1.565098,0.918945 4.885359,1.403241 9.637138,1.40568 4.596338,0.0024 7.350376,-0.385875 9.215225,-1.299065 l 0.855839,-0.419092 -0.127897,7.59438 c -0.08322,4.941436 -0.193644,7.67572 -0.316105,7.827226 -0.74779,0.925149 -4.309823,1.714923 -8.319523,1.844605 -1.541886,0.04987 -3.595371,0.02936 -4.5633,-0.04557 z M 44.151365,72.483981 C 42.012837,72.327013 39.681734,71.88348 38.917099,71.488072 38.644491,71.347101 38.34458,71.279268 38.25063,71.337333 c -0.328337,0.202923 -0.167414,-0.209007 0.225152,-0.576344 0.217784,-0.203787 0.895643,-0.509065 1.506354,-0.678394 1.042279,-0.288988 1.141092,-0.289732 1.611037,-0.01213 0.627625,0.370748 0.694651,0.369393 0.605135,-0.01223 -0.06641,-0.283119 -0.607334,-5.1599 -1.213288,-10.938589 C 40.514541,54.632915 39.604735,47.038804 39.281087,44.896991 39.104103,43.725762 39.010565,43.532368 38.089417,42.433172 37.539631,41.777118 35.230703,38.943715 32.958465,36.136721 27.414088,29.287512 25.819951,27.322052 21.267727,21.722851 11.923817,10.229914 10.41479,8.3562017 10.334812,8.1477804 10.288187,8.0262797 10.512779,7.7268146 10.833905,7.4823023 12.464839,6.2404724 17.065466,5.2698422 24.710261,4.5546988 30.07725,4.052636 34.97847,3.8500434 44.76732,3.7256377 c 21.605306,-0.2745803 37.352585,1.1166508 41.488951,3.665441 0.982186,0.6052135 1.742087,-0.4962254 -7.435453,10.7773233 -2.419823,2.972473 -5.191619,6.376355 -6.159548,7.564183 -2.328936,2.858037 -4.446888,5.471932 -9.499599,11.72404 -2.307615,2.85539 -4.455955,5.497911 -4.774088,5.872268 -0.607716,0.715118 -0.979459,1.971778 -1.204278,4.071002 -0.0622,0.580757 -0.228628,1.887461 -0.369847,2.903787 -0.141219,1.016325 -0.455071,3.550539 -0.697449,5.631587 -0.242377,2.081047 -0.557459,4.734052 -0.700182,5.895567 -0.142723,1.161515 -0.380398,3.260161 -0.528167,4.663658 -0.147769,1.403497 -0.315631,2.855972 -0.373026,3.227723 l -0.104356,0.675911 0.464483,-0.304341 c 0.439998,-0.288297 0.523581,-0.288344 1.585531,-8.87e-4 0.679826,0.18402 1.283395,0.47639 1.533537,0.742848 0.226869,0.241667 0.333294,0.416588 0.236501,0.388712 -0.09679,-0.02787 -0.431379,0.0854 -0.743526,0.251717 -1.534817,0.817787 -8.624571,1.353584 -13.335439,1.007804 z"
     id="path28" /></svg>
