<?xml version="1.0" encoding="UTF-8" standalone="no"?>
<!-- Created with Inkscape (http://www.inkscape.org/) -->

<svg
   width="95.076096mm"
   height="122.81843mm"
   viewBox="0 0 95.076095 122.81843"
   version="1.1"
   id="svg1"
   xml:space="preserve"
   inkscape:export-filename="spainSupercup.png"
   inkscape:export-xdpi="96"
   inkscape:export-ydpi="96"
   sodipodi:docname="juventus.svg"
   xmlns:inkscape="http://www.inkscape.org/namespaces/inkscape"
   xmlns:sodipodi="http://sodipodi.sourceforge.net/DTD/sodipodi-0.dtd"
   xmlns="http://www.w3.org/2000/svg"
   xmlns:svg="http://www.w3.org/2000/svg"><sodipodi:namedview
     id="namedview1"
     pagecolor="#ffffff"
     bordercolor="#000000"
     borderopacity="0.25"
     inkscape:showpageshadow="2"
     inkscape:pageopacity="0.0"
     inkscape:pagecheckerboard="0"
     inkscape:deskcolor="#d1d1d1"
     inkscape:document-units="mm"><inkscape:page
       x="0"
       y="0"
       width="95.076096"
       height="122.81843"
       id="page2"
       margin="0"
       bleed="0" /></sodipodi:namedview><defs
     id="defs1" /><path
     style="fill:#c3a970;fill-opacity:1"
     d="m 17.49849,118.4663 c -0.300525,-0.27924 -0.419847,-0.5642 -0.419847,-1.00269 0,-0.69694 0.254735,-1.07143 0.812482,-1.19443 0.421162,-0.0929 0.534566,0.11584 0.139476,0.25671 -0.134961,0.0481 -0.329615,0.25246 -0.432563,0.45408 l -0.187179,0.36657 0.282377,-0.3576 c 0.345936,-0.43809 0.663092,-0.47619 0.417719,-0.0502 -0.286755,0.49786 -0.204109,1.15522 0.194847,1.54981 l 0.371914,0.36784 h -0.379689 c -0.208829,0 -0.568621,-0.17555 -0.799537,-0.39011 z m 1.026294,0 c -0.571343,-0.53087 -0.558316,-1.23388 0.03084,-1.66449 0.24788,-0.18117 0.623315,-0.3294 0.834301,-0.3294 0.545978,0 0.764692,-0.32095 0.882062,-1.29438 0.150607,-1.24908 0.38342,-1.50543 0.412222,-0.45389 l 0.02394,0.87413 0.141158,-0.66332 c 0.165383,-0.77717 0.466075,-1.30538 1.28059,-2.24957 0.326347,-0.37831 0.59307,-0.80743 0.592719,-0.95361 -4.15e-4,-0.17216 -0.111144,-0.0978 -0.314378,0.21103 -0.172556,0.26224 -0.454438,0.58408 -0.626405,0.7152 -0.2908,0.22173 -0.305084,0.2101 -0.204249,-0.16631 0.05963,-0.2226 0.04053,-0.61596 -0.04245,-0.87414 -0.13561,-0.42195 -0.152353,-0.38811 -0.165569,0.3346 -0.0086,0.47215 -0.124852,0.93137 -0.281555,1.11254 -0.2465,0.28498 -0.261318,0.22101 -0.194276,-0.83872 0.04697,-0.74251 0.181825,-1.3032 0.382251,-1.58934 0.293457,-0.41895 0.293671,-0.42991 0.0041,-0.20922 -0.168069,0.12808 -0.369063,0.3784 -0.446654,0.55627 -0.133019,0.30492 -0.141691,0.30193 -0.151915,-0.0523 -0.006,-0.20664 0.155329,-0.65042 0.358426,-0.98619 l 0.369268,-0.61048 0.443215,0.28296 c 0.243768,0.15563 0.694353,0.37603 1.001299,0.48977 0.327526,0.12137 0.59783,0.35394 0.654291,0.56297 0.155211,0.5746 -0.238429,2.16375 -0.687248,2.77445 -0.423575,0.57636 -0.562813,0.85346 -1.395964,2.77818 -0.262257,0.60586 -0.712088,1.35053 -0.999626,1.65482 -0.351408,0.37188 -0.407655,0.48644 -0.171574,0.34945 0.384025,-0.22284 0.918321,-0.89969 2.494691,-3.16031 0.795273,-1.14047 1.175554,-1.53927 1.639531,-1.71941 0.626935,-0.24339 1.058826,-0.10158 0.813572,0.26714 -0.09522,0.14316 -0.162315,0.13681 -0.27326,-0.0259 -0.09751,-0.143 -0.147931,-0.0174 -0.149668,0.37288 -0.0043,0.96749 -0.320505,1.39144 -1.363864,1.82863 -0.787846,0.33013 -0.890838,0.41702 -0.609907,0.51458 0.29888,0.10379 0.1893,0.25827 -0.946586,1.33443 l -1.284594,1.21705 h -0.814442 c -0.63665,0 -0.906093,-0.0852 -1.234289,-0.39011 z m 58.949544,-0.53442 c -0.52589,-0.50849 -1.148171,-1.12678 -1.382847,-1.37398 l -0.426683,-0.44945 0.426683,0.12038 c 0.643845,0.18164 0.171583,-0.22245 -0.730648,-0.62517 -0.560263,-0.25008 -0.771629,-0.45823 -0.933687,-0.91949 -0.232194,-0.66089 -0.03169,-1.46513 0.336821,-1.351 0.24282,0.0752 1.423151,1.5279 2.767358,3.40591 0.511667,0.71486 1.1088,1.38796 1.326963,1.49577 0.306091,0.15127 0.255079,0.0499 -0.223413,-0.44383 -0.382134,-0.39432 -0.825213,-1.15125 -1.154674,-1.97257 -0.29403,-0.73299 -0.66353,-1.54727 -0.82111,-1.80951 -0.756196,-1.25844 -0.938659,-1.70577 -1.015714,-2.49012 -0.04579,-0.46612 -0.02164,-0.92267 0.05367,-1.01455 0.07531,-0.0919 0.567226,-0.39001 1.093149,-0.66251 l 0.956224,-0.49545 0.369406,0.70649 c 0.203172,0.38858 0.363126,0.8655 0.355452,1.05985 -0.01188,0.30079 -0.04932,0.27833 -0.251722,-0.15102 -0.130772,-0.27741 -0.314187,-0.54826 -0.407589,-0.60189 -0.0934,-0.0536 -0.05844,0.15017 0.07769,0.45291 0.334369,0.74357 0.529547,2.32215 0.287116,2.32215 -0.299432,0 -0.451124,-0.34282 -0.562607,-1.27147 l -0.104938,-0.87414 -0.02515,0.83441 c -0.01383,0.45892 -0.08288,0.83351 -0.153435,0.83243 -0.158546,-0.002 -0.898007,-1.04596 -0.898007,-1.26727 0,-0.0886 -0.07532,-0.16117 -0.167382,-0.16117 -0.271808,0 0.16314,0.79483 0.977596,1.78647 0.543153,0.66131 0.78674,1.13229 0.885332,1.7118 0.201843,1.18642 0.422048,1.19033 0.294393,0.005 -0.07831,-0.727 -0.05733,-0.97668 0.07197,-0.85653 0.100376,0.0933 0.224184,0.55501 0.275129,1.02611 0.120427,1.11359 0.433915,1.57174 1.075467,1.57174 0.583039,0 1.205815,0.63044 1.205815,1.22066 0,0.21072 -0.188932,0.55867 -0.419848,0.77323 -0.338224,0.31427 -0.592951,0.39011 -1.310235,0.39011 h -0.890388 z m 3.375769,0.55669 c 0.46693,-0.46182 0.480396,-1.20942 0.03134,-1.73987 -0.312363,-0.36897 -0.316607,-0.41085 -0.05123,-0.50547 0.168057,-0.0599 0.47215,0.0231 0.725437,0.19809 0.634418,0.43828 0.688228,1.40696 0.110341,1.98635 -0.2352,0.23581 -0.598674,0.42874 -0.807719,0.42874 h -0.380082 z m 0.632579,-1.68632 c -0.06197,-0.18141 -0.226533,-0.32984 -0.365701,-0.32984 -0.208276,0 -0.198674,0.0675 0.05429,0.38177 0.354628,0.44053 0.472891,0.42081 0.311412,-0.0519 z m -56.035791,1.27172 c -0.577988,-0.53705 -0.667428,-1.30871 -0.220418,-1.90171 0.249788,-0.33136 0.368248,-0.35994 1.112008,-0.26826 1.214987,0.14975 1.447763,-0.0267 1.591369,-1.20607 0.19536,-1.60445 0.12824,-1.56313 2.5394,-1.56313 h 2.089332 l -0.0026,0.75493 c -0.003,0.87121 -0.146818,1.15227 -0.589516,1.15227 -0.179825,0 -0.961349,0.65389 -1.818342,1.52137 -0.826633,0.83675 -1.715473,1.62348 -1.9752,1.74827 -0.259726,0.1248 -0.866833,0.22691 -1.349127,0.22691 -0.741136,0 -0.954304,-0.0719 -1.376886,-0.46458 z m 43.732671,-1.26577 c -1.04392,-0.95168 -2.071224,-1.77899 -2.282897,-1.83844 -0.337608,-0.0948 -0.38486,-0.21412 -0.38486,-0.97153 v -0.86343 h 2.110656 2.110657 l 0.198505,0.40481 c 0.109177,0.22265 0.198504,0.79059 0.198504,1.26209 0,0.51131 0.08629,0.90916 0.213812,0.98583 0.117596,0.0707 0.712829,0.12856 1.322739,0.12858 1.05332,3e-5 1.12081,0.023 1.34588,0.45826 0.186935,0.36151 0.196316,0.58426 0.04444,1.05526 -0.259596,0.80509 -0.809313,1.10892 -2.00635,1.10892 h -0.973052 z m -44.508702,-1.41906 c 0.0521,-0.0783 0.180171,-0.34939 0.284611,-0.60237 l 0.18989,-0.45997 0.256255,0.45112 c 0.14094,0.24812 0.230987,0.4705 0.200106,0.49418 -0.171922,0.13184 -1.010867,0.23732 -0.930862,0.11704 z m 49.153289,0.0201 c -0.351845,-0.0854 -0.384502,-0.36215 -0.08552,-0.72469 0.189028,-0.22921 0.245999,-0.19589 0.491514,0.28749 0.279252,0.5498 0.238498,0.59369 -0.40599,0.4372 z m 2.660218,-0.56591 c -0.192505,-0.19668 -0.562525,-0.66156 -0.822267,-1.03307 -0.259741,-0.37151 -0.592881,-0.67547 -0.74031,-0.67547 -0.205581,0 -0.221131,-0.0436 -0.06672,-0.18707 0.15441,-0.14347 0.337942,-0.0564 0.787496,0.37373 0.498357,0.4768 1.431994,1.87948 1.250997,1.87948 -0.03255,0 -0.216689,-0.16092 -0.409194,-0.3576 z m -54.1032,-0.19867 c 0,-0.0437 0.03849,-0.0795 0.08553,-0.0795 0.04704,0 0.08552,0.0358 0.08552,0.0795 0,0.0437 -0.03849,0.0795 -0.08552,0.0795 -0.04704,0 -0.08553,-0.0358 -0.08553,-0.0795 z m 0.320237,-0.51831 c 0.206306,-0.35819 0.878824,-0.9276 0.871701,-0.73806 -0.0063,0.16752 -0.785907,1.01797 -0.933178,1.01797 -0.05486,0 -0.0272,-0.12596 0.06148,-0.27991 z m 51.165507,-0.58485 c 0,-0.13628 0.07697,-0.24778 0.171049,-0.24778 0.09408,0 0.171049,0.0673 0.171049,0.14956 0,0.0823 -0.07697,0.19375 -0.171049,0.24778 -0.09408,0.054 -0.171049,-0.0133 -0.171049,-0.14956 z m -50.038169,-0.41624 c -0.05655,-0.085 -0.167297,-0.11756 -0.246099,-0.0723 -0.0788,0.0452 -0.102189,-0.0637 -0.05197,-0.24216 0.08812,-0.3131 0.104004,-0.31456 0.454433,-0.0417 0.199717,0.15554 0.385685,0.2926 0.413262,0.30459 0.02758,0.012 -0.06617,0.0633 -0.208334,0.11395 -0.14216,0.0507 -0.304742,0.0226 -0.361294,-0.0624 z m 1.032635,-0.26372 c -0.676472,-0.15312 -0.940769,-0.53272 -0.940769,-1.35117 0,-0.42927 -0.07738,-0.91483 -0.171958,-1.07903 -0.09458,-0.1642 -0.626209,-0.52352 -1.181404,-0.79847 -0.555195,-0.27496 -1.038642,-0.61867 -1.074327,-0.76381 -0.03569,-0.14513 -0.04503,-3.98293 -0.02077,-8.52844 0.02426,-4.545502 0.04629,-8.67364 0.04894,-9.173636 l 0.0048,-0.909085 28.009271,0.03495 28.009271,0.03495 0.04411,9.394014 0.04411,9.394019 -1.021831,0.50605 c -0.562008,0.27833 -1.081872,0.59256 -1.155255,0.69828 -0.07338,0.10572 -0.172212,0.62134 -0.21962,1.14583 -0.150234,1.66203 2.428863,1.51214 -25.65802,1.49118 -13.405965,-0.01 -24.528425,-0.053 -24.716579,-0.0956 z m 50.558479,-0.13733 c 0.0082,-0.18515 0.04874,-0.22281 0.103342,-0.096 0.04941,0.11473 0.04333,0.25181 -0.0135,0.30462 -0.05684,0.0528 -0.09726,-0.0411 -0.08984,-0.2086 z M 29.275177,89.62641 c -0.309963,-0.31354 -0.563937,-0.623713 -0.564386,-0.689273 -4.5e-4,-0.06556 -0.116276,-0.1192 -0.257391,-0.1192 -0.141115,0 -0.256573,-0.07152 -0.256573,-0.158934 0,-0.209208 0.22693,-0.20237 0.459631,0.01385 0.11831,0.109931 0.223594,0.116192 0.28943,0.01721 0.05691,-0.08556 0.42785,0.119934 0.824305,0.456662 0.754427,0.640769 0.968724,0.700904 0.673945,0.189117 -0.0963,-0.167194 -0.225207,-0.65608 -0.286459,-1.086415 -0.093,-0.653394 -0.05194,-0.852526 0.249014,-1.207495 0.19821,-0.233788 0.743612,-0.585999 1.212005,-0.782693 0.468392,-0.196693 0.820148,-0.386869 0.781679,-0.422613 -0.03847,-0.03574 -0.440511,0.08732 -0.893426,0.273475 l -0.823483,0.338465 0.467169,-0.453082 c 1.139849,-1.105477 -0.03174,-0.418088 -1.606836,0.942756 -0.594406,0.513552 -0.640027,1.018056 -0.106869,1.181827 l 0.38486,0.118218 -0.427623,0.103301 c -0.513897,0.124143 -1.342347,-0.06707 -1.689951,-0.390052 -0.215273,-0.200026 -0.218472,-0.299332 -0.02182,-0.677329 0.191875,-0.368816 0.242414,-0.39433 0.302008,-0.152466 0.05686,0.230777 0.129986,0.181782 0.355808,-0.238401 0.156513,-0.291222 0.417028,-0.529661 0.579753,-0.530627 0.162535,-9.64e-4 0.525024,-0.251285 0.805531,-0.556268 0.433456,-0.471277 0.511058,-0.690287 0.516966,-1.459004 0.0038,-0.497469 0.06809,-0.939597 0.142808,-0.982506 0.387758,-0.222674 2.258829,0.998529 2.258829,1.474283 0,0.05538 -0.211673,0.222631 -0.470385,0.371671 -0.806327,0.464517 -0.128975,0.305419 1.17858,-0.276826 1.456103,-0.648393 1.85754,-0.696519 1.85754,-0.222687 0,0.90377 -0.939527,1.917699 -1.977497,2.134096 -1.068178,0.222695 -1.144153,0.258031 -0.947554,0.440705 0.103547,0.09621 0.188267,0.307318 0.188267,0.469123 0,0.349172 -1.062185,0.816052 -1.537601,0.675848 -0.53181,-0.156835 -0.529677,0.16531 0.0042,0.640606 0.533352,0.474791 0.709655,0.386553 0.223981,-0.1121 -0.26606,-0.273169 -0.260555,-0.290648 0.09154,-0.290648 0.206044,0 0.564348,-0.115506 0.796231,-0.25668 0.391565,-0.238391 0.421604,-0.237271 0.421604,0.01571 0,0.35953 -0.480597,1.28948 -0.789512,1.527698 -0.134669,0.103849 -0.60484,0.202751 -1.044823,0.219782 -0.718671,0.02782 -0.857245,-0.02697 -1.363539,-0.539107 z m 38.381378,0.287701 c -0.20627,-0.160012 -0.284726,-0.29331 -0.174348,-0.296218 0.309673,-0.0082 1.253229,-0.800575 1.253229,-1.052485 0,-0.153494 -0.203916,-0.224273 -0.646137,-0.224273 -0.626342,0 -1.406451,-0.351322 -1.406451,-0.633394 0,-0.07621 0.118681,-0.248844 0.263735,-0.383624 0.284402,-0.264258 0.362009,-0.226962 -1.030319,-0.495149 -0.911772,-0.175623 -1.962802,-1.435028 -1.969246,-2.359664 -0.0031,-0.439085 3.873489,1.122524 4.553406,1.834271 l 0.320536,0.335542 -0.373615,-0.18206 c -0.637714,-0.310754 -0.607554,-0.205038 0.126647,0.443923 0.677504,0.598844 0.702909,0.655689 0.58601,1.311203 -0.06721,0.376871 -0.201267,0.824842 -0.297909,0.995491 -0.125144,0.220976 -0.119121,0.327799 0.02093,0.371175 0.108154,0.0335 0.142902,0.144197 0.07722,0.245998 -0.06571,0.101838 0.0099,0.08763 0.1681,-0.03158 0.158138,-0.119171 0.24773,-0.276503 0.199092,-0.349626 -0.04864,-0.07312 0.05805,-0.205795 0.237091,-0.294827 0.441032,-0.219315 0.602691,-0.805973 0.223954,-0.81273 -0.242479,-0.0043 -0.23542,-0.03872 0.04897,-0.238578 0.51077,-0.358955 0.174496,-0.975185 -0.975261,-1.787189 -0.540096,-0.381438 -0.981993,-0.799969 -0.981993,-0.930068 0,-0.1301 -0.0712,-0.195656 -0.158232,-0.145679 -0.219263,0.125914 -1.039111,-0.241138 -1.039111,-0.465217 0,-0.218985 0.790444,-0.926693 1.314385,-1.176807 0.73033,-0.34864 0.868314,-0.23718 0.998709,0.806734 0.09715,0.777778 0.223906,1.078803 0.602309,1.430404 0.263594,0.244923 0.596098,0.445316 0.738898,0.445316 0.311778,0 0.463553,0.206687 0.63171,0.860262 0.102489,0.398342 0.12954,0.42089 0.143754,0.119829 0.02465,-0.522075 0.431742,-0.346841 0.502567,0.216331 0.0652,0.518468 -0.3166,0.869716 -0.945373,0.869716 -0.435288,0 -0.502471,0.15437 -0.192522,0.442366 0.155844,0.144806 0.06136,0.319125 -0.410701,0.757754 -0.743106,0.690473 -1.791504,0.852671 -2.410029,0.372856 z m 0.03833,-3.697053 c -0.0392,-0.03187 -0.263701,-0.143092 -0.498893,-0.247168 -0.403208,-0.178426 -0.408666,-0.175119 -0.09559,0.05794 0.27248,0.20284 0.829222,0.380055 0.594487,0.18923 z m -32.22848,3.659616 c -0.476935,-0.200239 -0.765424,-0.562261 -1.009084,-1.266288 -0.05463,-0.15786 0.01143,-0.533341 0.146811,-0.834403 l 0.246146,-0.547384 h 1.540129 1.540129 l 0.159432,0.536519 c 0.219805,0.739682 0.07719,1.267157 -0.475672,1.759316 -0.563761,0.501861 -1.446658,0.64665 -2.147891,0.35224 z m 26.810455,0.01076 c -0.601411,-0.323812 -0.943183,-0.889714 -0.943183,-1.561708 0,-0.959702 0.225713,-1.097126 1.801989,-1.097126 1.569977,0 1.822162,0.158336 1.831249,1.149762 0.01093,1.192191 -1.600081,2.095938 -2.690055,1.509072 z m 6.800671,-0.354295 c 0,-0.04371 0.03849,-0.07947 0.08552,-0.07947 0.04704,0 0.08552,0.03576 0.08552,0.07947 0,0.04371 -0.03849,0.07947 -0.08552,0.07947 -0.04704,0 -0.08552,-0.03576 -0.08552,-0.07947 z m -2.196181,-0.484279 c -0.389552,-0.794416 -0.211067,-1.069956 0.410236,-0.633311 0.182616,0.12834 0.518633,0.23562 0.746705,0.2384 l 0.414676,0.0051 -0.40173,0.397334 c -0.513211,0.507595 -0.918585,0.505003 -1.169887,-0.0075 z M 29.565218,88.73847 c -0.177902,-0.199176 -0.153205,-0.238401 0.150105,-0.238401 0.208672,0 0.363042,0.101371 0.363042,0.238401 0,0.13112 -0.06755,0.2384 -0.150105,0.2384 -0.08256,0 -0.245926,-0.10728 -0.363042,-0.2384 z m 39.683365,0 c 0,-0.131121 0.113042,-0.238401 0.251205,-0.238401 0.153019,0 0.212722,0.09318 0.152748,0.238401 -0.05415,0.13112 -0.167193,0.2384 -0.251205,0.2384 -0.08401,0 -0.152748,-0.10728 -0.152748,-0.2384 z m 1.368392,-0.07947 c 0,-0.08741 0.12,-0.158934 0.266668,-0.158934 0.146667,0 0.219097,0.07152 0.160954,0.158934 -0.05814,0.08741 -0.178143,0.158934 -0.266668,0.158934 -0.08853,0 -0.160954,-0.07152 -0.160954,-0.158934 z M 29.30883,87.864613 c -0.136231,-0.204815 0.232247,-0.688925 0.866759,-1.138756 0.434335,-0.307918 0.461671,-0.312636 0.204249,-0.03526 -0.163459,0.176131 -0.382662,0.548035 -0.487117,0.826453 -0.193031,0.514509 -0.393482,0.633826 -0.583891,0.34756 z m 40.030454,-0.410616 c -0.350948,-0.780444 -0.333698,-0.820412 0.165872,-0.384332 0.446979,0.390173 0.542975,0.709667 0.26175,0.871163 -0.09123,0.05239 -0.28366,-0.166684 -0.427622,-0.486831 z M 34.694648,86.301136 c 0.54381,-0.628769 0.953997,-1.659364 0.77034,-1.93548 -0.173549,-0.260918 -0.957528,-0.176977 -1.773031,0.18984 -0.553944,0.249166 -0.790168,0.292205 -0.840085,0.153061 -0.166937,-0.465339 -0.954641,-1.127902 -1.662502,-1.398384 -0.496071,-0.189555 -0.767851,-0.39171 -0.768266,-0.571452 -5.82e-4,-0.252674 0.238142,-0.278309 2.607856,-0.280041 21.864674,-0.01599 35.597572,0.01883 35.722504,0.09058 0.305563,0.175473 0.14513,0.40819 -0.437283,0.634301 -0.730766,0.283707 -1.802382,1.139331 -1.802382,1.439098 0,0.301577 -0.2282,0.279275 -0.981619,-0.09593 -0.351054,-0.174827 -0.889579,-0.317867 -1.196723,-0.317867 -0.477657,0 -0.558442,0.05598 -0.558442,0.386988 0,0.605191 0.315376,1.235863 0.89929,1.798351 l 0.53621,0.516535 H 49.688968 34.16742 Z m 0.952217,-4.516018 c 0.260705,-0.790166 -0.389943,-0.754935 13.942329,-0.754935 h 13.482227 l 0.266273,0.353231 c 0.598111,0.793441 1.217216,0.759305 -13.771271,0.759305 H 35.52888 Z m 0.594704,-1.27147 c 0.003,-0.109267 0.09921,-0.305947 0.213811,-0.437067 0.208284,-0.238302 1.424831,-0.849324 1.747812,-0.877856 0.249505,-0.02204 2.138112,-1.682675 2.138112,-1.880021 0,-0.09209 -0.288645,0.08716 -0.641433,0.398332 -0.760145,0.670483 -2.025958,1.476266 -2.565735,1.633279 -0.630464,0.183394 -0.47048,-0.274173 0.458526,-1.311419 1.470949,-1.642332 1.406887,-1.617792 4.22313,-1.617792 h 2.454647 l -0.339602,0.800553 c -0.426497,1.005391 -0.464981,2.378122 -0.06667,2.378122 0.150112,0 0.490898,-0.144213 0.757303,-0.320474 l 0.484373,-0.320475 0.104453,0.305792 c 0.05745,0.168186 0.204228,0.341368 0.326176,0.384849 0.255572,0.09113 1.304695,-0.621009 1.304695,-0.885615 0,-0.09743 -0.224662,0.02284 -0.499248,0.267282 -0.274586,0.244437 -0.582474,0.396637 -0.684196,0.338223 -0.288077,-0.165432 -0.218376,-0.709961 0.15289,-1.194426 0.335405,-0.43767 0.739597,-1.277029 0.614951,-1.277029 -0.03577,0 -0.264239,0.315836 -0.507708,0.701858 -0.417093,0.661306 -1.708516,1.841082 -2.015311,1.841082 -0.329409,0 0.06572,-2.165383 0.515122,-2.822991 0.107282,-0.156984 1.560708,-0.19153 6.686637,-0.158933 l 6.549561,0.04165 0.678549,1.146861 c 0.373202,0.630774 0.65361,1.299425 0.623128,1.485893 -0.05215,0.319029 -0.119229,0.299363 -1.136911,-0.333324 -0.59482,-0.369795 -1.279589,-0.950501 -1.52171,-1.290456 -0.242121,-0.339956 -0.477869,-0.583119 -0.523884,-0.540363 -0.111504,0.103607 0.389137,0.800935 1.004759,1.399497 0.853087,0.829447 0.520538,1.245235 -0.463105,0.579022 -0.439938,-0.297966 -0.432871,-0.280729 0.06516,0.158934 0.640979,0.565862 1.066358,0.635782 1.066358,0.175277 0,-0.39284 0.0304,-0.392865 0.722824,-5.94e-4 0.650654,0.368605 1.158715,0.412471 1.158715,0.100043 0,-0.432835 -0.509829,-1.547566 -1.027587,-2.2468 l -0.528289,-0.713457 h 1.092923 1.092923 l 1.027298,0.99405 c 1.073703,1.038952 1.75764,2.025692 1.404065,2.025692 -0.339688,0 -1.941641,-0.917483 -2.819464,-1.614786 l -0.840541,-0.667687 0.855245,0.830744 c 0.470385,0.45691 1.047675,0.926774 1.282867,1.044142 0.235193,0.117369 0.723746,0.360203 1.085674,0.539632 0.622749,0.308733 1.120517,0.757143 1.132523,1.020224 0.003,0.06556 -6.036865,0.119201 -13.421905,0.119201 -10.630745,0 -13.426212,-0.04138 -13.421905,-0.198668 z m 12.014867,-1.194255 c 0.510178,-0.494794 0.989441,-1.614971 0.959574,-2.242802 -0.01542,-0.32419 -0.03736,-0.346288 -0.09851,-0.09922 -0.286386,1.157215 -0.453725,1.550551 -0.842125,1.979445 -0.241081,0.266215 -0.505492,0.484028 -0.58758,0.484028 -0.264489,0 -0.544338,-1.327976 -0.444859,-2.111 0.05919,-0.465882 0.03323,-0.72369 -0.06708,-0.666088 -0.4373,0.251123 0.0036,3.094955 0.479823,3.094955 0.08128,0 0.351616,-0.197694 0.600755,-0.43932 z m 3.720806,-0.236148 c 0.351046,-0.718595 0.456695,-2.25706 0.166442,-2.42374 -0.106662,-0.06125 -0.171049,0.255334 -0.171049,0.841039 0,1.069505 -0.269323,1.940302 -0.600104,1.940302 -0.316812,0 -1.110386,-1.549027 -1.110386,-2.167432 0,-0.283625 -0.07697,-0.559884 -0.171049,-0.613909 -0.218113,-0.125254 -0.214968,0.03063 0.02148,1.06498 0.235618,1.030701 0.918573,2.023255 1.398034,2.031794 0.07516,0.0013 0.285139,-0.301527 0.466628,-0.673034 z m 1.950236,0.268674 c 0.100798,-0.169624 0.196462,-0.332586 0.212586,-0.362136 0.01612,-0.02955 0.260726,0.105242 0.543562,0.29954 0.308146,0.211686 0.629817,0.312062 0.802613,0.25045 0.244873,-0.08731 0.270018,-0.240368 0.16671,-1.014742 -0.11996,-0.899188 -0.532941,-2.061611 -0.682929,-1.922246 -0.04235,0.03935 0.03563,0.419303 0.173294,0.844331 0.252322,0.779017 0.340418,1.99373 0.144595,1.99373 -0.265457,0 -1.401409,-1.075763 -1.90412,-1.803229 -0.30575,-0.442447 -0.555909,-0.732365 -0.555909,-0.644263 0,0.0881 0.236414,0.506569 0.525364,0.929924 0.364446,0.533969 0.494428,0.884267 0.424364,1.143653 -0.129682,0.480097 -0.346519,0.472046 -0.89012,-0.03305 -0.626044,-0.581702 -0.684425,-0.373461 -0.06737,0.24031 0.552191,0.549253 0.816153,0.567782 1.107362,0.07773 z m -12.940606,-0.0706 c 0.692427,-0.392271 0.722824,-0.392246 0.722824,5.94e-4 0,0.436515 0.400074,0.398331 0.973994,-0.09296 0.420503,-0.359963 0.42756,-0.379641 0.057,-0.158934 -0.923156,0.549838 -1.197477,0.05186 -0.369598,-0.670934 0.575283,-0.502261 1.133775,-1.276537 1.006248,-1.395031 -0.04905,-0.04558 -0.252962,0.163362 -0.453136,0.464309 -0.340323,0.511653 -1.921767,1.749771 -2.496913,1.954843 -0.541234,0.192981 -0.05903,-1.235631 0.802535,-2.377644 0.278821,-0.369581 0.299861,-0.444462 0.07847,-0.27926 -0.412097,0.307502 -1.071608,1.395943 -1.277179,2.107825 -0.2491,0.862621 0.0092,0.983456 0.955756,0.447192 z m 13.739255,-1.70295 c -0.155599,-0.248398 -0.177992,-0.232764 -0.182556,0.127451 -0.0029,0.225818 0.05253,0.464675 0.123086,0.530793 0.205487,0.192556 0.25426,-0.347283 0.05947,-0.658244 z m 3.136102,0.03474 c -0.448006,-0.545763 -0.725025,-0.749512 -0.486199,-0.357601 0.150816,0.247487 0.791345,0.913869 0.878414,0.913869 0.03543,0 -0.14107,-0.250321 -0.392215,-0.556268 z M 39.387117,77.07086 c -0.04569,-0.04245 -0.330763,0.161728 -0.633498,0.453735 l -0.550427,0.530922 0.633498,-0.453735 c 0.348423,-0.249554 0.596115,-0.488469 0.550427,-0.530922 z m 2.322579,0.462781 c 0.200966,-0.262241 0.326907,-0.476802 0.279869,-0.476802 -0.04704,0 -0.249952,0.214561 -0.450918,0.476802 -0.200966,0.26224 -0.326907,0.476801 -0.279868,0.476801 0.04704,0 0.249951,-0.214561 0.450917,-0.476801 z m 18.900913,0 c -0.270394,-0.262241 -0.568598,-0.476802 -0.662675,-0.476802 -0.09408,0 0.05018,0.214561 0.320577,0.476802 0.270394,0.26224 0.568598,0.476801 0.662675,0.476801 0.09408,0 -0.05018,-0.214561 -0.320577,-0.476801 z m -1.282867,-1.591889 c 0,-0.107975 -3.259047,-0.147473 -9.835348,-0.1192 -5.409442,0.02326 -9.835334,0.0038 -9.835317,-0.04321 1.7e-5,-0.04702 0.488912,-0.384146 1.086432,-0.749168 1.239651,-0.757296 2.955535,-2.392745 3.626397,-3.456404 0.719524,-1.140813 1.280005,-2.822279 1.296159,-3.888528 l 0.01453,-0.959098 h 3.91574 3.915741 v 0.707379 c 0,2.745979 1.994063,5.809829 4.964791,7.628333 1.09327,0.669235 1.458461,1.041379 1.021924,1.041379 -0.09408,0 -0.171049,-0.07267 -0.171049,-0.161485 z m -6.072239,-8.897739 c 0.06926,-0.104126 -1.198932,-0.158933 -3.677553,-0.158933 -2.478622,0 -3.746813,0.05481 -3.677554,0.158933 0.06502,0.09775 1.480836,0.158934 3.677554,0.158934 2.196717,0 3.612537,-0.06119 3.677553,-0.158934 z m -8.920689,-1.065218 c -0.747052,-0.751041 -1.345079,-1.69223 -1.570099,-2.471057 l -0.172198,-0.596002 h 7.002479 7.00248 l -0.113056,0.437068 c -0.175474,0.678377 -0.660472,1.496807 -1.407084,2.374442 l -0.682966,0.802819 -4.729588,0.02816 -4.729588,0.02816 z m -2.24881,-3.575647 c -0.112892,-0.104896 -0.205259,-0.310699 -0.205259,-0.457341 0,-0.656889 0.226854,-0.677796 7.579509,-0.698545 3.874848,-0.01093 7.143533,0.0099 7.263742,0.04633 0.381594,0.115593 0.581616,0.632561 0.380109,0.982413 l -0.183085,0.317868 h -7.314879 c -5.461284,0 -7.366891,-0.04833 -7.520137,-0.190721 z m 0.649986,-1.640425 c 0,-0.132994 0.174597,-0.315725 0.387994,-0.406068 0.384585,-0.162818 1.151874,-1.061865 1.150984,-1.34863 -2.54e-4,-0.08201 -0.30486,0.172741 -0.676902,0.566102 -0.424801,0.449143 -0.679154,0.620606 -0.683734,0.460914 -0.0086,-0.300439 0.765635,-1.311614 1.482618,-1.936302 l 0.507669,-0.442319 4.662059,-0.01003 4.662059,-0.01003 0.518941,0.452352 c 0.727147,0.633843 1.502557,1.644098 1.493889,1.946336 -0.0046,0.161266 -0.260332,-0.0073 -0.699004,-0.460914 -0.630303,-0.651708 -0.667368,-0.669596 -0.417505,-0.201485 0.150813,0.282545 0.503851,0.671476 0.784528,0.864291 1.101377,0.756608 1.010726,0.767598 -6.331636,0.767598 -6.010559,0 -6.84196,-0.02938 -6.84196,-0.241808 z m 7.544392,-0.498155 c 0.235913,-0.190284 0.305457,-0.187347 0.491329,0.02075 0.358947,0.40187 0.661685,0.27591 0.849832,-0.353592 0.215296,-0.720332 0.212932,-1.437996 -0.0062,-1.867471 -0.121787,-0.238743 -0.146312,-0.139837 -0.09852,0.397334 0.07496,0.842602 -0.0712,1.620425 -0.318869,1.696948 -0.238222,0.0736 -0.764178,-0.784076 -1.029927,-1.679507 -0.158552,-0.534234 -0.221578,-0.620702 -0.232731,-0.319291 -0.0084,0.227343 0.07058,0.642235 0.175531,0.921982 0.240078,0.639908 0.132178,0.740478 -0.510744,0.476051 -0.485115,-0.199524 -0.507223,-0.249995 -0.442722,-1.010698 0.05696,-0.671773 0.04604,-0.711125 -0.06786,-0.244419 -0.194158,0.795615 -0.863617,1.938766 -1.093664,1.867515 -0.303979,-0.09415 -0.494362,-0.920935 -0.393435,-1.708581 0.06373,-0.497325 0.04069,-0.642576 -0.07563,-0.476801 -0.224706,0.320256 -0.216448,1.424795 0.01527,2.042422 0.184826,0.492641 0.544646,0.654811 0.754121,0.33988 0.06855,-0.103058 0.226628,-0.08268 0.441013,0.05684 0.379999,0.24731 1.13572,0.169264 1.543153,-0.159366 z m -5.084016,-0.0686 0.453922,-0.331765 0.306062,0.351199 0.306061,0.351199 0.467456,-0.516192 c 0.581319,-0.641925 0.46044,-0.841532 -0.131097,-0.216482 -0.409709,0.43292 -0.431256,0.438198 -0.436395,0.10689 -0.003,-0.191684 0.140635,-0.585045 0.319129,-0.874136 0.178494,-0.28909 0.373172,-0.704419 0.432618,-0.922953 0.05945,-0.218534 -0.08423,-0.06463 -0.319285,0.342009 -0.386842,0.669233 -1.515834,1.724129 -1.845231,1.724129 -0.222988,0 -0.137005,-0.671872 0.203178,-1.587639 0.376165,-1.012629 0.333051,-1.215247 -0.0965,-0.453536 -0.32404,0.574606 -0.590113,1.833812 -0.456071,2.15838 0.114948,0.278331 0.271164,0.252607 0.796157,-0.131103 z m 8.745901,-0.01262 c 0.722757,0.528254 0.824601,0.446195 0.724119,-0.583446 -0.08472,-0.868102 -0.560872,-2.060558 -0.751912,-1.883048 -0.04704,0.04371 0.0369,0.299441 0.186529,0.568299 0.297278,0.534153 0.558176,1.924713 0.361117,1.924713 -0.356948,0 -1.638494,-1.208673 -1.882605,-1.775555 -0.153503,-0.35647 -0.318871,-0.61117 -0.367484,-0.566001 -0.10365,0.09631 0.295733,0.963089 0.729618,1.583494 0.221163,0.316236 0.25232,0.481477 0.114865,0.609196 -0.196972,0.18302 -0.308091,0.106989 -0.827699,-0.566335 -0.134915,-0.174828 -0.247748,-0.233955 -0.25074,-0.131395 -0.003,0.10256 0.200197,0.413549 0.451531,0.691086 l 0.456971,0.504613 0.29225,-0.360003 0.292251,-0.360003 z m -8.383969,-3.003372 c -1.034601,-0.230194 -1.621978,-0.482357 -1.785647,-0.766584 -0.134482,-0.233541 0.381337,-0.256336 5.800451,-0.256336 6.373808,0 6.557156,0.02706 4.994522,0.737242 -0.74904,0.34042 -1.03416,0.365452 -4.562052,0.400511 -2.069693,0.02057 -4.070966,-0.03111 -4.447274,-0.114833 z M 45.2162,55.926114 C 39.100432,55.466645 35.005597,53.819365 31.361233,50.352503 l -1.197343,-1.139025 0.878906,0.106918 c 0.739283,0.08993 0.915905,0.06036 1.111818,-0.186136 0.128102,-0.16118 0.444586,-0.37982 0.703297,-0.485867 0.32586,-0.133572 0.470385,-0.310647 0.470385,-0.576325 0,-0.276531 0.119286,-0.411331 0.427623,-0.483237 0.392759,-0.09159 0.513634,-0.324512 0.44039,-0.848604 -0.01527,-0.109266 0.116136,-0.198667 0.292015,-0.198667 0.325413,0 1.063633,-0.613839 1.06358,-0.884379 -1.8e-5,-0.09144 5.413042,-0.131997 14.059699,-0.105332 l 14.059729,0.04336 0.315078,0.314243 c 0.173293,0.172834 0.427538,0.314243 0.564989,0.314243 0.153755,0 0.24991,0.155721 0.24991,0.404726 0,0.281801 0.153923,0.486809 0.506785,0.67498 0.278732,0.14864 0.528891,0.413514 0.555909,0.58861 0.02742,0.17768 0.293135,0.423701 0.601332,0.556756 0.303714,0.131121 0.553873,0.325285 0.555909,0.431476 0.0066,0.344802 0.603176,0.522515 1.21063,0.360639 0.311536,-0.08302 0.595609,-0.12383 0.631274,-0.09069 0.146275,0.135915 -2.154881,2.237648 -3.419097,3.122791 -2.518392,1.763256 -5.619049,2.893412 -9.34985,3.407922 -2.086796,0.287787 -8.41312,0.430396 -10.878001,0.245213 z M 30.93361,49.05679 c -0.235192,-0.09157 -1.032883,-0.190509 -1.772646,-0.219858 -0.739763,-0.02935 -1.371778,-0.07822 -1.404477,-0.108605 -0.107675,-0.100048 4.101931,-1.99147 4.844136,-2.176522 0.792808,-0.197669 1.411869,-0.02794 1.411869,0.38709 0,0.32592 -0.645827,0.601177 -1.173748,0.500262 -0.533169,-0.101919 -2.58933,0.192626 -2.58933,0.370921 0,0.06784 0.341661,0.05564 0.759247,-0.02711 1.142956,-0.226503 1.892013,-0.120217 1.892013,0.268464 0,0.297988 -0.114033,0.317867 -1.823342,0.317867 -1.002837,0 -1.881602,0.05364 -1.952809,0.119201 -0.07121,0.06556 0.441408,0.120295 1.139145,0.121634 1.307679,0.0025 1.827304,0.148737 1.622531,0.456598 -0.141959,0.213426 -0.385425,0.210885 -0.952589,-0.0099 z m 36.351037,-0.126521 c -0.212258,-0.319115 0.07222,-0.402037 1.379258,-0.402037 1.272703,0 1.830663,-0.225301 0.62744,-0.253357 -0.352789,-0.0082 -1.180238,-0.02611 -1.838777,-0.03973 -1.074421,-0.02223 -1.197343,-0.05741 -1.197343,-0.342645 0,-0.263123 0.132566,-0.326765 0.769721,-0.369528 1.144658,-0.07682 4.703721,0.899425 4.37899,1.201155 -0.06419,0.05964 -0.748586,0.118896 -1.520888,0.131681 -0.772302,0.01279 -1.64523,0.07635 -1.939839,0.141246 -0.348899,0.07686 -0.578505,0.05358 -0.658562,-0.06678 z M 27.512631,48.108638 c 0,-0.198885 0.738294,-1.636294 1.323844,-2.577435 1.403209,-2.255347 2.769374,-3.317253 3.622326,-2.815599 0.188061,0.110606 -0.156655,0.546126 -1.539441,1.944956 -0.97997,0.99134 -2.147381,2.194366 -2.594247,2.673391 -0.446865,0.479025 -0.812482,0.827634 -0.812482,0.774687 z m 0.513147,-0.04486 c 0,-0.171498 4.374924,-4.497004 4.811751,-4.757399 0.320163,-0.190851 0.6449,-0.25988 0.920364,-0.195639 0.446003,0.104011 0.599287,0.570009 0.187497,0.570009 -0.254961,0 -2.875375,1.769059 -2.768083,1.868751 0.0352,0.03271 0.668273,-0.305762 1.40683,-0.752151 0.738557,-0.44639 1.508189,-0.850406 1.710293,-0.897814 0.927866,-0.217653 1.70951,0.285423 1.324545,0.852493 -0.154049,0.22692 -0.399713,0.26889 -1.367517,0.233632 -0.648855,-0.02364 -1.269071,0.01308 -1.378258,0.08159 -0.109187,0.06851 0.336072,0.1243 0.989465,0.123969 0.869544,-4.39e-4 1.231983,0.0633 1.352119,0.237801 0.29487,0.428299 -0.422965,0.794669 -1.557007,0.794669 -1.083264,0 -1.805714,0.222258 -4.076074,1.253987 -1.476092,0.670786 -1.555925,0.700858 -1.555925,0.586102 z m 2.565734,-1.442755 c 0,-0.04371 -0.03849,-0.07947 -0.08552,-0.07947 -0.04704,0 -0.08552,0.03576 -0.08552,0.07947 0,0.04371 0.03849,0.07947 0.08552,0.07947 0.04704,0 0.08552,-0.03576 0.08552,-0.07947 z m 2.887437,-0.835102 c 0.340487,0.03765 0.773012,0.126318 0.961165,0.197037 0.287674,0.108124 0.306656,0.09325 0.119314,-0.09348 -0.363057,-0.361875 -2.201191,-0.273669 -3.069909,0.147316 -0.399827,0.193758 -0.726958,0.37828 -0.726958,0.410049 0,0.03177 0.471897,-0.119345 1.048661,-0.33581 0.687507,-0.258027 1.261863,-0.369995 1.667727,-0.325114 z m 37.22355,2.085148 c -0.188154,-0.137344 -1.18879,-0.640486 -2.223637,-1.118095 -1.81296,-0.836728 -1.925179,-0.866543 -3.078881,-0.818032 l -1.197343,0.05035 v -0.476801 c 0,-0.419411 0.07773,-0.494641 0.645768,-0.625016 0.783772,-0.179889 2.078484,0.08349 3.202834,0.651543 l 0.76972,0.388884 -0.598671,-0.502448 c -1.248443,-1.047782 -2.24913,-1.728692 -2.824802,-1.922113 -0.327898,-0.110172 -0.596178,-0.248707 -0.596178,-0.307857 0,-0.27082 0.541414,-0.492201 0.963187,-0.393841 0.560034,0.130604 2.36875,1.722363 3.531828,3.108182 0.476864,0.568188 1.138657,1.30127 1.47065,1.629071 0.608111,0.600432 0.569972,0.799293 -0.06448,0.336177 z m 0.789562,0.168644 c -0.0389,-0.334571 -3.807336,-4.303848 -4.703356,-4.954027 -0.421192,-0.305629 -0.459182,-0.392867 -0.265508,-0.609702 0.341389,-0.382212 1.154132,-0.158053 1.931097,0.532608 1.184952,1.053328 3.293127,4.375394 3.13305,4.937065 -0.04149,0.145587 -0.08437,0.187912 -0.09528,0.09406 z M 26.657386,47.82898 c 0,-0.279211 1.232354,-3.12545 1.629803,-3.764187 0.595437,-0.95692 1.684715,-1.814444 2.304816,-1.814444 0.28196,0 0.512654,0.04673 0.512654,0.103844 0,0.05711 -0.371017,0.468355 -0.824484,0.913869 -0.777073,0.763447 -2.548587,3.35343 -2.92811,4.280947 -0.159889,0.390753 -0.694679,0.606285 -0.694679,0.279971 z m 45.32798,-0.118689 c 0,-0.4845 -2.393646,-3.98857 -3.254921,-4.764894 -0.46764,-0.421515 -0.850254,-0.817039 -0.850254,-0.878943 0,-0.30546 0.738855,-0.2847 1.357038,0.03813 0.873072,0.455939 1.573505,1.377159 2.236279,2.941188 0.293057,0.691564 0.682057,1.54817 0.864443,1.903569 0.419372,0.817192 0.417265,1.022624 -0.01049,1.022624 -0.203576,0 -0.342098,-0.105956 -0.342098,-0.261673 z m -46.06178,-1.04953 c 0.538706,-2.689191 1.10749,-3.859269 2.220485,-4.567889 0.590463,-0.375935 1.615172,-0.514099 1.88583,-0.254271 0.07369,0.07075 -0.05844,0.24597 -0.293634,0.389388 -1.101241,0.671528 -1.779977,1.639299 -2.828657,4.033217 -0.450265,1.027863 -0.767994,1.548129 -0.946348,1.549604 -0.24053,0.002 -0.244455,-0.117819 -0.03768,-1.150049 z m 46.244828,-0.794669 c -1.027485,-2.242411 -1.7201,-3.320413 -2.438934,-3.796014 -0.609138,-0.403022 -0.420046,-0.697051 0.347536,-0.540402 1.441782,0.294239 2.554936,1.724619 3.015095,3.874334 0.651048,3.041491 0.331458,3.201367 -0.923697,0.462082 z m -46.948789,1.531412 c -0.104631,-0.253352 0.541346,-2.377579 0.682996,-2.245962 0.07943,0.0738 -0.373337,2.332262 -0.489133,2.439856 -0.04523,0.04202 -0.132466,-0.04523 -0.193863,-0.193894 z m 43.259237,-0.0014 c -0.470384,-0.126242 -1.240105,-0.200048 -1.71049,-0.164013 -1.3727,0.105158 -2.124352,-0.362782 -1.505856,-0.93747 0.378418,-0.351616 1.15908,-0.197347 2.917011,0.576437 1.821446,0.801741 1.910168,0.957363 0.299335,0.525046 z m 5.142627,-0.643937 c -0.06435,-0.509216 -0.15413,-1.068887 -0.199504,-1.243714 -0.06332,-0.243962 -0.02314,-0.225486 0.172808,0.07947 0.337663,0.525509 0.533637,1.727777 0.314782,1.931131 -0.114074,0.105994 -0.210068,-0.149543 -0.288086,-0.766884 z m -49.198731,0.333319 c -0.182262,-0.204058 -0.184042,-0.388883 -0.0096,-0.993336 0.472357,-1.636443 0.666898,-2.567389 0.518732,-2.482303 -0.08584,0.0493 -0.156075,0.199464 -0.156075,0.333709 0,0.134245 -0.173187,0.755826 -0.38486,1.381291 -0.350236,1.034897 -0.389854,1.088604 -0.440364,0.596956 -0.03053,-0.297139 0.112457,-1.15211 0.317741,-1.899935 0.421187,-1.534329 0.389238,-2.708696 -0.08699,-3.197651 -0.355732,-0.365237 -0.23603,-0.798978 0.220497,-0.798978 0.487545,0 0.910967,0.538885 1.152975,1.467379 0.200363,0.768717 0.219391,0.791181 0.232749,0.274764 0.008,-0.309318 -0.133488,-0.832191 -0.314418,-1.161941 -0.262695,-0.478764 -0.282617,-0.61607 -0.09889,-0.681578 0.365456,-0.130306 0.926974,0.232502 1.046881,0.67641 0.20453,0.757195 -0.06435,2.214574 -0.770779,4.177796 -0.38692,1.075279 -0.703491,2.090743 -0.703491,2.256587 0,0.366971 -0.222491,0.388548 -0.524138,0.05083 z m 49.646271,-0.903175 c -0.748958,-2.173243 -1.399164,-4.488816 -1.399315,-4.983369 -1.81e-4,-0.59128 0.577577,-1.332637 1.038557,-1.332637 0.389036,0 0.400879,0.102975 0.07311,0.635735 -0.167738,0.272643 -0.237505,0.846222 -0.222316,1.827738 l 0.02213,1.430404 0.10009,-1.532927 c 0.07802,-1.194951 0.171932,-1.606686 0.425937,-1.867471 0.381743,-0.391934 0.8291,-0.430866 1.12639,-0.09802 0.17041,0.190787 0.160951,0.254457 -0.04892,0.329287 -0.707985,0.252437 -0.776703,1.681822 -0.182919,3.804871 0.159031,0.568607 0.226419,1.228894 0.166915,1.635479 -0.103752,0.708933 -0.369857,1.305964 -0.580849,1.303185 -0.06725,-8.86e-4 -0.300715,-0.519407 -0.518816,-1.15227 z m 0.65194,-1.393134 c -0.270241,-0.932515 -0.342205,-0.724786 -0.109815,0.316988 0.106639,0.47805 0.218252,0.751636 0.248028,0.60797 0.02978,-0.143667 -0.03242,-0.559898 -0.138213,-0.924958 z m -51.386821,1.661526 c -0.147835,-0.137364 -0.268528,-0.512845 -0.268206,-0.834402 7.55e-4,-0.756074 0.320984,-4.127607 0.438387,-4.615567 0.08704,-0.361777 0.102487,-0.365219 0.424351,-0.09457 0.453564,0.381397 0.445348,1.760174 -0.02059,3.455831 -0.216182,0.786728 -0.313316,1.495057 -0.248823,1.814485 0.118719,0.588 0.06309,0.634924 -0.325115,0.27422 z M 75.4079,46.137822 c 0.08845,-0.364407 0.04665,-0.938431 -0.118644,-1.62907 -0.140372,-0.58652 -0.325238,-1.381141 -0.410814,-1.765825 -0.235722,-1.059623 0.244923,-2.408427 0.705679,-1.980306 0.08138,0.07562 0.238006,1.245893 0.348054,2.600612 0.207415,2.553314 0.10921,3.337261 -0.418057,3.337261 -0.189691,0 -0.212923,-0.123066 -0.106218,-0.562672 z m 0.922168,-1.226107 c -0.0094,-0.633322 -0.107665,-1.830937 -0.21842,-2.661366 -0.303457,-2.275284 -0.303815,-2.247712 0.03167,-2.442652 0.554079,-0.321955 0.753437,0.222461 0.91145,2.489024 0.08049,1.154579 0.124703,2.312268 0.09825,2.572644 -0.04899,0.482168 -0.45626,1.196022 -0.681563,1.19462 -0.06839,-4.26e-4 -0.132015,-0.518947 -0.141391,-1.15227 z m -54.101559,0.617373 c -0.269609,-0.301849 -0.297282,-0.976563 -0.134477,-3.278739 0.177196,-2.505685 0.198233,-2.57413 0.772197,-2.512447 0.517725,0.05564 0.509662,-0.03385 0.212053,2.353513 -0.103522,0.830429 -0.236915,1.992632 -0.29643,2.582674 -0.110166,1.092199 -0.207351,1.242365 -0.553343,0.854999 z m 13.836571,-0.9742 c 0,-0.494844 -0.557817,-1.033069 -1.070673,-1.033069 -0.212563,0 -0.482617,-0.14304 -0.600121,-0.317867 -0.147376,-0.219271 -0.398891,-0.317868 -0.810866,-0.317868 -0.369157,0 -0.727861,-0.121386 -0.93932,-0.317867 -0.188154,-0.174827 -0.519134,-0.317868 -0.735511,-0.317868 -0.216376,0 -0.468182,-0.06947 -0.559567,-0.154386 -0.09139,-0.08491 -0.318452,-0.180384 -0.504594,-0.21216 -0.627285,-0.107081 -1.361509,-0.502945 -1.898078,-1.023366 -0.410195,-0.39785 -0.676788,-0.517293 -1.154581,-0.517293 -0.715874,0 -0.758589,-0.112752 -0.264035,-0.696943 0.801412,-0.946669 -0.542802,-0.892394 22.10195,-0.892394 h 20.765651 l 0.563678,0.357601 c 0.310023,0.19668 0.677169,0.518521 0.815879,0.715202 l 0.252201,0.3576 h -0.727625 c -0.601411,0 -0.820137,0.09098 -1.260968,0.524522 -0.530009,0.521241 -0.983039,0.777275 -1.474113,0.833109 -0.459479,0.05224 -1.95736,0.563555 -2.356755,0.804498 -0.214331,0.129298 -0.458722,0.195447 -0.543092,0.146997 -0.189165,-0.10863 -1.03428,0.234183 -1.03428,0.419546 0,0.07409 -0.30859,0.249437 -0.685755,0.38966 -0.723858,0.269116 -1.073635,0.873149 -0.704323,1.216303 0.106004,0.0985 0.192735,0.2363 0.192735,0.306231 0,0.06993 -6.157763,0.127147 -13.683918,0.127147 H 36.06508 Z m 30.446719,0.205556 c -0.235192,-0.0851 -0.942408,-0.122391 -1.571591,-0.08287 -1.186337,0.07452 -1.507291,-0.04179 -1.507291,-0.546217 0,-0.307459 0.484501,-0.610426 0.972287,-0.607987 0.594882,0.003 2.835707,1.130339 2.619473,1.317864 -0.04689,0.04066 -0.277686,0.0043 -0.512878,-0.08079 z m -45.33226,-0.36928 c -0.166013,-0.185865 -0.18901,-0.772677 -0.09756,-2.489386 0.121237,-2.275907 0.25854,-2.830104 0.701161,-2.830104 0.147054,0 0.206003,-0.09488 0.147284,-0.237061 -0.123531,-0.299115 0.403804,-0.505857 0.666853,-0.261439 0.143462,0.1333 0.107587,0.237556 -0.139515,0.405443 -0.182949,0.124301 -0.278693,0.276124 -0.212763,0.337384 0.06593,0.06126 0.244494,-0.0044 0.396809,-0.145939 0.303621,-0.282115 0.429994,-0.306036 0.841549,-0.159294 0.447298,0.159487 -0.02905,0.537707 -0.677216,0.537707 -0.32979,0 -0.598327,0.09419 -0.654191,0.229461 -0.05212,0.126203 -0.189962,1.270526 -0.306315,2.54294 -0.116353,1.272413 -0.264949,2.313479 -0.330215,2.313479 -0.06527,0 -0.216411,-0.109436 -0.33588,-0.243191 z M 77.31464,42.369549 c -0.119129,-1.245643 -0.257748,-2.451376 -0.308043,-2.679407 -0.101872,-0.461868 0.334165,-0.748516 0.704361,-0.463043 0.301633,0.232603 0.679927,4.659244 0.434574,5.085217 -0.436347,0.757575 -0.611898,0.347107 -0.830892,-1.942767 z m -57.385181,1.046314 c -0.06272,-0.05828 -0.119443,-0.576797 -0.126055,-1.152269 -0.0084,-0.73188 -0.0562,-0.95079 -0.159027,-0.728447 -0.08085,0.174827 -0.152414,0.520508 -0.159026,0.76818 -0.0077,0.286542 -0.08978,0.426043 -0.225834,0.383581 -0.151887,-0.0474 -0.20769,-0.477024 -0.192676,-1.483382 0.04424,-2.965203 0.04469,-2.967746 0.613759,-3.443055 0.604191,-0.504647 0.855525,-0.541366 1.182938,-0.172821 0.183017,0.206008 0.187633,0.278983 0.02094,0.331112 -0.117596,0.03678 -0.213811,0.146729 -0.213811,0.244341 0,0.123321 0.06263,0.119279 0.205259,-0.01324 0.243544,-0.226294 0.475485,-0.238168 0.810036,-0.04147 0.196197,0.115355 0.203365,0.191645 0.03564,0.379421 -0.18473,0.20682 -0.270264,0.207066 -0.712558,0.002 -0.276446,-0.128141 -0.547189,-0.299975 -0.601649,-0.381854 -0.05446,-0.08188 -0.190693,-0.146694 -0.302737,-0.144036 -0.112044,0.0027 -0.06851,0.078 0.09675,0.167419 0.214852,0.116259 0.257642,0.23942 0.150173,0.432235 -0.08266,0.148307 -0.194348,0.87757 -0.248192,1.620585 -0.108294,1.494372 0.131032,1.097533 0.31745,-0.526383 0.069,-0.601055 0.194917,-0.955408 0.360478,-1.01444 0.402252,-0.143425 0.637085,0.179927 0.413096,0.568811 -0.105676,0.183471 -0.232707,0.924231 -0.282292,1.646134 -0.144115,2.098143 -0.4948,3.010847 -0.982671,2.557531 z m 6.567425,-0.07475 c 0.02476,-0.508655 0.433518,-2.147316 0.601608,-2.411805 0.27091,-0.426276 1.205328,-0.401775 1.665893,0.04368 0.205266,0.198532 0.293066,0.389338 0.195111,0.424013 -0.794722,0.281322 -1.445915,0.757245 -1.91725,1.401217 -0.30575,0.417737 -0.551163,0.66204 -0.545362,0.542894 z m 52.084971,-0.166336 c -0.04766,-0.202488 -0.164796,-1.119123 -0.260314,-2.036965 -0.09552,-0.917842 -0.193979,-1.847605 -0.218802,-2.066139 -0.03732,-0.32858 0.0285,-0.397334 0.380375,-0.397334 0.379885,0 0.438539,0.08464 0.547029,0.789355 0.06683,0.434145 0.144759,1.504762 0.173162,2.37915 0.04538,1.397141 0.01611,1.596478 -0.241581,1.644945 -0.193433,0.03638 -0.322712,-0.07014 -0.379869,-0.313012 z M 71.951118,42.41338 c -0.391894,-0.4783 -0.864147,-0.85016 -1.240105,-0.97648 -0.333952,-0.112205 -0.607185,-0.294406 -0.607185,-0.40489 0,-0.274287 0.557803,-0.529932 1.156281,-0.529932 0.757657,0 1.176489,0.545716 1.311289,1.708538 0.06333,0.546334 0.09209,0.989263 0.0639,0.984284 -0.02819,-0.005 -0.33607,-0.356662 -0.684176,-0.78152 z m 7.686562,0.368755 c -0.04695,-0.07395 -0.141642,-0.919677 -0.210419,-1.879396 -0.06878,-0.95972 -0.191254,-1.906742 -0.27217,-2.104492 -0.202629,-0.495207 -0.01475,-0.865859 0.409449,-0.807779 0.474235,0.06493 0.601178,0.590858 0.649541,2.691067 0.0322,1.398105 -0.01227,1.790197 -0.225464,1.988294 -0.146062,0.135717 -0.303984,0.186255 -0.350937,0.112306 z m 0.847963,-2.620033 c -0.06081,-1.123693 -0.189045,-2.010554 -0.310366,-2.146382 -0.30766,-0.344451 0.245849,-0.838311 0.665084,-0.593411 0.2395,0.139907 0.321904,0.532344 0.430931,2.052241 0.07414,1.033591 0.09773,1.969019 0.05242,2.07873 -0.04531,0.109711 -0.229097,0.272433 -0.408417,0.361605 -0.309921,0.154117 -0.331158,0.06748 -0.429656,-1.752783 z m -62.451462,1.522997 c -0.21877,-0.203274 -0.247833,-0.507904 -0.163004,-1.708537 0.158341,-2.241113 0.255848,-2.573692 0.754563,-2.573692 0.344191,0 0.413024,0.07169 0.381492,0.397334 -0.215129,2.221747 -0.485451,4.132278 -0.584678,4.132278 -0.06717,0 -0.241941,-0.111322 -0.388373,-0.247383 z m -0.941515,-0.698167 c -0.183805,-0.105552 -0.21507,-0.557439 -0.148935,-2.152615 0.08824,-2.128359 0.218093,-2.44552 0.868773,-2.121951 0.237745,0.118225 0.291821,0.253551 0.201974,0.505445 -0.06748,0.189196 -0.209438,1.107405 -0.315455,2.040464 -0.106017,0.933059 -0.233473,1.733772 -0.283236,1.779363 -0.04976,0.04559 -0.195167,0.02277 -0.323121,-0.05071 z m 64.569568,-0.21233 c -0.06995,-0.322216 -0.260662,-2.380508 -0.32714,-3.530666 -0.02166,-0.374751 0.05004,-0.48709 0.335006,-0.524874 0.489106,-0.06485 0.573019,0.292853 0.57587,2.454808 0.0019,1.423635 -0.04765,1.788823 -0.252494,1.861862 -0.168708,0.06015 -0.280654,-0.0281 -0.331242,-0.26113 z M 26.586135,40.558797 c -0.143199,-0.346739 0.04693,-0.507905 0.248981,-0.21105 0.202272,0.297184 0.206578,0.472198 0.01162,0.472198 -0.08401,0 -0.201282,-0.117516 -0.2606,-0.261148 z m 45.688052,0.04352 c -0.05359,-0.129763 0.01531,-0.322872 0.153103,-0.429134 0.33945,-0.261765 0.398535,-0.144363 0.150132,0.298313 -0.159529,0.284294 -0.227706,0.313707 -0.303235,0.130821 z M 16.137873,40.104744 C 15.825523,39.814517 15.803212,39.634853 15.8813,38.038605 l 0.08552,-1.748271 h 0.427623 0.427622 l -0.0594,1.112536 c -0.03267,0.611895 -0.109645,1.541657 -0.171049,2.066139 l -0.111645,0.953602 z m 66.389682,-1.390671 c -0.06159,-0.895989 -0.130371,-1.807871 -0.152852,-2.026405 -0.03374,-0.327995 0.03375,-0.397334 0.386749,-0.397334 h 0.427623 l 0.149731,1.713739 c 0.134484,1.539224 0.11872,1.745579 -0.154797,2.026405 -0.167491,0.171966 -0.358517,0.312666 -0.424502,0.312666 -0.06599,0 -0.170364,-0.733082 -0.231952,-1.629071 z m -59.017657,1.215393 c -0.165692,-0.401203 0.276172,-0.638905 0.824337,-0.443453 0.367229,0.130938 0.342754,0.38033 -0.03732,0.38033 -0.169339,0 -0.390034,0.07633 -0.490435,0.169617 -0.129363,0.1202 -0.215768,0.08917 -0.296577,-0.106494 z m 51.313798,-0.04219 c -0.440632,-0.08899 -0.466,-0.124359 -0.223226,-0.311263 0.36493,-0.28095 1.044654,-0.176718 1.116006,0.171134 0.0596,0.290544 -0.0572,0.308877 -0.89278,0.140129 z M 15.148144,39.355425 C 14.88129,39.173372 14.848808,38.925916 14.89157,37.400791 l 0.04896,-1.746192 h 0.427623 c 0.331989,0 0.415277,0.07109 0.372423,0.317867 -0.03036,0.174827 -0.107332,1.054413 -0.171049,1.954635 -0.108606,1.534425 -0.134954,1.623733 -0.421383,1.428324 z m 60.621148,0.04945 c -0.298818,-0.175862 -0.09934,-0.492137 0.310401,-0.492137 0.348979,0 0.752823,0.370138 0.579528,0.531159 -0.15714,0.146009 -0.609213,0.126187 -0.889929,-0.03902 z m 7.847405,-1.1914 c 0,-0.7404 -0.08151,-1.545393 -0.18114,-1.788872 -0.149676,-0.365794 -0.128594,-0.478392 0.12137,-0.648224 0.477593,-0.32449 0.647461,-0.161544 0.810049,0.77704 0.211459,1.220707 0.0027,2.631819 -0.420565,2.842279 -0.313523,0.155908 -0.329714,0.09786 -0.329714,-1.182223 z m -69.547663,0.522567 c -0.554541,-0.571192 -0.325578,-3.001978 0.282764,-3.001978 0.0765,0 0.163295,0.751112 0.192867,1.669139 0.02957,0.918027 0.008,1.668989 -0.04801,1.668805 -0.05598,-1.85e-4 -0.248407,-0.15137 -0.427622,-0.335966 z m 62.594043,0.09766 c -0.297465,-0.203481 -0.298438,-0.222446 -0.01663,-0.323956 0.343033,-0.123562 0.812483,0.0047 0.812483,0.222062 0,0.262898 -0.472122,0.323344 -0.795857,0.101894 z m 7.979914,0.150606 c 0,-0.04805 0.121134,-0.305015 0.269186,-0.571038 0.148053,-0.266023 0.225025,-0.524712 0.171049,-0.574865 -0.05397,-0.05015 -0.09814,-0.0077 -0.09814,0.09424 0,0.101983 -0.07089,0.185423 -0.157535,0.185423 -0.08665,0 -0.18286,-0.536568 -0.213811,-1.192373 -0.03823,-0.809949 0.0056,-1.192255 0.136591,-1.192003 0.321312,6.16e-4 0.518231,0.354213 0.708292,1.27184 0.161312,0.778824 0.141932,0.93912 -0.177739,1.470137 -0.311858,0.518037 -0.637896,0.778012 -0.637896,0.508642 z M 77.629983,38.68176 c 0,-0.135202 -0.07697,-0.245821 -0.171049,-0.245821 -0.295768,0 -0.185767,-0.292107 0.146952,-0.390228 0.333037,-0.09821 0.883197,0.03308 0.873967,0.208565 -0.003,0.05621 -0.195387,0.230696 -0.427623,0.38775 -0.362563,0.245192 -0.422247,0.250808 -0.422247,0.03973 z M 13.00347,38.227213 c -0.203754,-0.201524 -0.455156,-0.758264 -0.558672,-1.237201 -0.486272,-2.249824 1.155937,-3.852485 3.120258,-3.045117 0.721432,0.29652 0.869414,0.472812 1.501852,1.789171 0.172893,0.35986 0.183186,0.339537 0.109134,-0.215478 -0.10175,-0.762607 -0.468352,-1.295191 -1.175749,-1.708079 -0.779664,-0.455067 -2.329489,-0.357905 -2.955211,0.185269 -0.791143,0.686773 -0.975838,1.203721 -0.887423,2.483838 0.0651,0.942592 0.04105,1.111216 -0.126215,0.884935 -1.05297,-1.424465 -0.606612,-3.612903 0.920423,-4.512729 2.216383,-1.306031 5.282715,0.465104 4.900914,2.830803 -0.061,0.377947 -0.184372,0.687176 -0.274166,0.687176 -0.413876,0 -1.519054,-0.411196 -1.490805,-0.554673 0.132197,-0.671425 -0.832989,-1.321298 -1.671837,-1.125672 -1.185874,0.276554 -1.680746,1.480116 -1.196043,2.90886 0.161503,0.476054 0.262222,0.894748 0.22382,0.930429 -0.0384,0.03568 -0.236527,-0.100008 -0.44028,-0.301532 z m 15.330743,0.09155 c -0.09661,-0.108154 -0.130977,-0.304834 -0.07637,-0.437068 0.08789,-0.212822 2.535553,-0.240424 21.320104,-0.240424 19.109664,0 21.231044,0.02478 21.323679,0.249083 0.05658,0.136996 0.02811,0.31855 -0.06327,0.403452 -0.105288,0.09783 -7.887081,0.16668 -21.247313,0.187984 -16.576455,0.02643 -21.118713,-0.0084 -21.256836,-0.163027 z m 57.335072,0.219717 c 0,-0.03505 0.115458,-0.320479 0.256574,-0.634294 0.141115,-0.313816 0.256573,-0.929343 0.256573,-1.36784 0,-0.646254 -0.0891,-0.889098 -0.470385,-1.282094 -0.634992,-0.65449 -1.501244,-0.783193 -2.138165,-0.317675 -0.270655,0.197818 -0.470332,0.499681 -0.470332,0.711029 0,0.265545 -0.118442,0.388309 -0.427622,0.443226 -0.389851,0.06925 -0.427623,0.02712 -0.427623,-0.476971 0,-0.428304 0.146476,-0.689028 0.649885,-1.156781 0.839412,-0.779956 1.732585,-0.965219 2.578092,-0.53475 0.847464,0.431466 1.223467,0.990127 1.332639,1.980019 0.123344,1.118409 -0.165687,2.106896 -0.713587,2.440466 -0.234327,0.142662 -0.426049,0.230711 -0.426049,0.195665 z m -7.247256,-0.609046 c -0.234906,-0.122149 -0.255281,-0.202569 -0.09639,-0.38046 0.254233,-0.284634 0.743805,-0.29061 0.992554,-0.01212 0.263468,0.294975 -0.467804,0.615319 -0.896163,0.392576 z m 7.264765,-0.942198 c -0.0257,-1.076426 -0.499447,-1.571038 -1.504784,-1.571038 -0.672384,0 -0.749284,-0.03243 -0.565313,-0.238401 0.11913,-0.133375 0.49199,-0.2384 0.846373,-0.2384 1.082513,0 1.695202,0.986503 1.38193,2.225072 l -0.140697,0.556268 z m -66.384515,0.349166 c 0,-0.316649 0.218899,-0.648734 0.427623,-0.648734 0.373337,0 0.438993,0.459963 0.0904,0.633311 -0.401193,0.199504 -0.518023,0.202982 -0.518023,0.01542 z m 59.9426,-0.08177 c -0.269552,-0.184856 -0.290993,-0.266349 -0.113948,-0.433088 0.170066,-0.160167 0.289248,-0.16409 0.541322,-0.01782 0.487611,0.282949 0.733124,-0.07254 0.522154,-0.756044 -0.168446,-0.545735 0.03737,-0.886703 0.407072,-0.674397 0.09338,0.05363 0.120606,-0.0137 0.06246,-0.154487 -0.05706,-0.138169 0.0268,-0.358736 0.187901,-0.494203 0.27123,-0.228075 0.290289,-0.172515 0.281095,0.819469 -0.01132,1.221935 -0.159686,1.6204 -0.603329,1.6204 -0.172536,0 -0.361274,0.07152 -0.419417,0.158934 -0.148747,0.223631 -0.476983,0.197546 -0.865314,-0.06877 z m 7.823431,-0.564589 c 0.218752,-1.118303 -0.04842,-1.902877 -0.888001,-2.60766 -0.59747,-0.501547 -0.792988,-0.573394 -1.560383,-0.573394 -1.544551,0 -2.5872,0.918756 -2.615302,2.304539 -0.0092,0.453818 -0.08631,0.635735 -0.269465,0.635735 -0.203906,0 -0.256574,-0.230979 -0.256574,-1.125213 0,-0.988334 0.05843,-1.196351 0.480294,-1.710005 1.355893,-1.650895 4.001271,-1.607638 5.206894,0.08514 0.393552,0.552575 0.470575,0.831715 0.470575,1.705398 0,0.983159 -0.314019,2.077746 -0.596072,2.077746 -0.06982,0 -0.05721,-0.356531 0.02803,-0.79229 z M 13.334306,36.561243 c -0.01548,-0.69523 0.05429,-0.909483 0.401106,-1.231736 0.490652,-0.455899 1.625285,-0.543063 1.974839,-0.15171 0.184417,0.206471 0.09913,0.238401 -0.636742,0.238401 -1.020336,0 -1.35924,0.277707 -1.572984,1.288943 l -0.147478,0.697729 z m 15.717765,-3.926385 v -4.688546 h 20.483116 20.483116 v 4.688546 4.688545 H 49.535187 29.052071 Z M 18.447034,36.95713 c -0.396019,-0.187676 -0.423122,-0.272659 -0.366732,-1.149926 0.03349,-0.521001 0.0954,-0.980963 0.137587,-1.022138 0.129302,-0.126212 0.401657,0.379913 0.318241,0.591399 -0.04342,0.110092 0.0527,0.198716 0.215609,0.198778 0.237039,8.9e-5 0.296386,0.153979 0.306461,0.794668 0.0069,0.437007 -0.03161,0.793504 -0.08553,0.792215 -0.05391,-0.0013 -0.290448,-0.09354 -0.525641,-0.204996 z m 61.31185,-0.442244 c -0.06321,-0.09503 -0.02926,-0.252374 0.07543,-0.349654 0.139774,-0.129874 0.190355,-0.08396 0.190355,0.172782 0,0.383747 -0.08885,0.442876 -0.265785,0.176872 z M 19.13123,36.280954 c 0,-0.136279 0.07697,-0.203579 0.171049,-0.149554 0.09408,0.05403 0.171049,0.165526 0.171049,0.24778 0,0.08226 -0.07697,0.149554 -0.171049,0.149554 -0.09408,0 -0.171049,-0.111501 -0.171049,-0.24778 z m 9.131543,-8.881005 c -0.05218,-0.126356 -0.06807,-0.359076 -0.03531,-0.517156 0.05709,-0.275432 0.947514,-0.287418 21.352827,-0.287418 h 21.293256 v 0.476801 0.476802 L 49.6156,27.589332 c -18.409729,0.03495 -21.27066,0.0096 -21.352827,-0.189383 z m 0.712674,-1.400575 C 28.939209,25.890107 28.869661,25.192785 28.820896,24.44977 28.622946,21.433676 27.503095,17.747041 25.806602,14.526486 24.629267,12.291479 23.295996,10.460505 21.367011,8.4296197 20.607717,7.6302142 19.986475,6.9383481 19.986475,6.8921395 c 0,-0.1428981 58.986145,-0.092382 59.081247,0.050597 0.04925,0.074037 -0.146099,0.3422378 -0.4341,0.5960016 -0.937843,0.826354 -2.647419,2.8147106 -3.647178,4.2419236 -1.738232,2.481425 -3.388959,6.108557 -4.102149,9.013632 -0.220677,0.898892 -0.780467,4.628834 -0.780467,5.200334 0,0.296158 -41.030164,0.300892 -41.128381,0.0047 z"
     id="path29" /></svg>
