<?xml version="1.0" encoding="UTF-8" standalone="no"?>
<!-- Created with Inkscape (http://www.inkscape.org/) -->

<svg
   width="95.076096mm"
   height="122.81843mm"
   viewBox="0 0 95.076095 122.81843"
   version="1.1"
   id="svg1"
   xml:space="preserve"
   inkscape:export-filename="spainLeague.png"
   inkscape:export-xdpi="96"
   inkscape:export-ydpi="96"
   sodipodi:docname="juventus.svg"
   xmlns:inkscape="http://www.inkscape.org/namespaces/inkscape"
   xmlns:sodipodi="http://sodipodi.sourceforge.net/DTD/sodipodi-0.dtd"
   xmlns="http://www.w3.org/2000/svg"
   xmlns:svg="http://www.w3.org/2000/svg"><sodipodi:namedview
     id="namedview1"
     pagecolor="#ffffff"
     bordercolor="#000000"
     borderopacity="0.25"
     inkscape:showpageshadow="2"
     inkscape:pageopacity="0.0"
     inkscape:pagecheckerboard="0"
     inkscape:deskcolor="#d1d1d1"
     inkscape:document-units="mm"><inkscape:page
       x="0"
       y="0"
       width="95.076096"
       height="122.81843"
       id="page2"
       margin="0"
       bleed="0" /></sodipodi:namedview><defs
     id="defs1" /><path
     style="fill:#c3a970;fill-opacity:1"
     d="m 41.51519,117.42067 c -9.373253,-0.42477 -20.092354,-1.86431 -24.624795,-3.30704 l -1.067549,-0.33981 0.04747,-1.77119 c 0.03379,-1.2607 0.102246,-1.8143 0.237516,-1.92076 0.134832,-0.10611 0.886084,-0.0558 2.585816,0.17316 5.534027,0.74547 11.286394,1.29182 17.270286,1.64031 4.262384,0.24823 19.228732,0.2499 23.343736,0.003 7.819202,-0.46991 15.88477,-1.20808 20.425769,-1.86938 0.603561,-0.0879 0.902413,-0.0764 1.018976,0.0392 0.101502,0.1007 0.183618,0.84211 0.21351,1.92776 l 0.04857,1.76413 -0.976882,0.33146 c -1.824928,0.61919 -6.972123,1.64533 -10.908496,2.1747 -1.961002,0.26373 -6.728114,0.7203 -9.82145,0.94067 -3.623722,0.25815 -14.051732,0.38366 -17.792482,0.21414 z m 0.35585,-6.06379 c -7.989813,-0.30141 -13.964092,-0.7474 -20.06992,-1.49827 -1.957173,-0.24068 -3.575392,-0.45363 -3.596042,-0.47323 -0.02065,-0.0196 0.0122,-0.3817 0.073,-0.80467 l 0.110552,-0.76905 2.434629,-0.0389 2.434629,-0.0389 0.09007,-0.65712 c 0.04954,-0.36141 0.09007,-0.9064 0.09007,-1.21107 0,-0.36276 0.07419,-0.58243 0.214957,-0.63645 0.118226,-0.0454 1.833069,0.1172 3.810761,0.36125 5.020678,0.61957 11.373033,1.04572 18.1793,1.21955 5.903735,0.15078 16.338012,-0.36963 22.916717,-1.14297 1.761455,-0.20706 3.554937,-0.38573 3.985516,-0.39703 l 0.782869,-0.0206 0.0355,0.49819 c 0.01953,0.274 0.07199,0.83297 0.116583,1.24216 l 0.08108,0.74396 2.445535,0.0389 2.445535,0.0389 0.09547,0.78229 c 0.05251,0.43026 0.07912,0.79864 0.05915,0.81862 -0.01998,0.02 -1.824397,0.22607 -4.009817,0.45799 -4.806854,0.51011 -12.133781,1.0873 -16.250518,1.28017 -3.188198,0.14936 -14.296475,0.28835 -16.475624,0.20615 z m -1.352229,-5.47241 c -5.437479,-0.27483 -13.410793,-0.98578 -15.265949,-1.3612 l -0.391435,-0.0792 v -8.147395 c 0,-9.041932 -0.0074,-8.960236 0.932746,-10.234843 0.549891,-0.745482 1.527067,-1.437937 2.397072,-1.698633 0.44787,-0.134204 0.884792,-0.117097 2.277437,0.08917 5.773625,0.855134 9.159899,1.101183 16.346547,1.18775 7.406148,0.08921 13.222416,-0.238914 18.376603,-1.036718 1.239971,-0.191933 2.489003,-0.348342 2.775627,-0.347577 1.212589,0.0032 2.782748,1.152345 3.540994,2.59145 l 0.396296,0.752146 0.03988,8.41699 0.03988,8.416992 -0.466901,0.0845 c -1.624974,0.29403 -7.559128,0.86742 -12.779297,1.23481 -2.810287,0.19778 -15.14824,0.28704 -18.219502,0.1318 z m 1.565738,-21.080094 c -3.662486,-0.17537 -11.537771,-0.970812 -11.78555,-1.190397 -0.02338,-0.02072 -0.0037,-0.192393 0.04378,-0.381492 0.0809,-0.322314 0.194832,-0.358701 1.821761,-0.581803 3.12557,-0.428613 5.471032,-1.464488 6.961784,-3.074678 0.95058,-1.026741 1.443562,-1.880416 1.840416,-3.18697 l 0.299681,-0.986635 0.586989,0.08526 c 3.207107,0.465851 8.621969,0.543532 11.747743,0.168532 1.049765,-0.125941 1.931473,-0.206174 1.95935,-0.178297 0.02788,0.02788 0.149069,0.428402 0.269314,0.890052 0.331941,1.274406 1.072318,2.464559 2.187756,3.516807 1.658147,1.564212 3.804002,2.432418 6.956204,2.814459 1.338737,0.162253 1.436124,0.195931 1.518772,0.525228 0.04857,0.193522 0.06918,0.370059 0.0458,0.392306 -0.08199,0.07801 -4.621441,0.624203 -7.017165,0.844316 -5.189088,0.476759 -11.893017,0.608753 -17.436633,0.343308 z m 3.344987,-9.755785 C 42.81396,74.88411 40.486632,74.477915 39.863823,74.077192 39.575468,73.891661 39.561155,73.739395 39.466763,69.853061 39.212861,59.399341 38.924513,56.303813 37.818356,52.156771 36.717569,48.029864 35.221023,44.979631 31.524765,39.329287 30.711443,38.085989 29.8788,36.748481 29.674447,36.357046 28.173003,33.481056 27.12968,29.557225 26.703433,25.183367 c -0.205152,-2.10513 -0.104708,-8.183513 0.217573,-13.166438 0.116458,-1.800599 0.213117,-3.4499621 0.2148,-3.6652511 l 0.0031,-0.3914347 h 21.348266 21.348267 l 0.065,0.3202647 c 0.197013,0.9707163 0.438614,7.6939191 0.438614,12.2056431 0,4.360754 -0.0417,5.446944 -0.259588,6.761144 -0.898983,5.422334 -1.917559,8.05611 -4.816697,12.454738 -2.095651,3.179562 -2.75184,4.275099 -3.735905,6.23727 -2.278862,4.543922 -3.383124,8.798324 -3.775093,14.544351 -0.190684,2.795306 -0.436814,9.238696 -0.436814,11.435261 0,0.923297 -0.06344,1.797266 -0.140985,1.942154 -0.465161,0.869162 -6.731396,1.502766 -11.744393,1.187522 z M 35.253684,23.155024 c 0.735166,-0.50035 1.035632,-1.006276 1.095446,-1.844515 0.04222,-0.591666 -0.01622,-0.875287 -0.27248,-1.322547 -0.413914,-0.722405 -1.455808,-1.283652 -2.142162,-1.153939 -1.233956,0.233203 -2.058339,1.357933 -1.916655,2.614949 0.126222,1.119842 1.095567,2.026317 2.166854,2.026317 0.386274,0 0.765256,-0.113541 1.068997,-0.320265 z m 9.587166,0.124003 c 0.890629,-0.372128 1.499527,-1.56791 1.310759,-2.574128 -0.12201,-0.650368 -0.937837,-1.573837 -1.576637,-1.784659 -0.941076,-0.310584 -2.074327,0.196625 -2.566705,1.148778 -0.114618,0.221648 -0.208397,0.743599 -0.208397,1.159892 0,1.657962 1.522686,2.684501 3.04098,2.050117 z m 9.496075,-0.12739 c 0.264147,-0.178009 0.62591,-0.539772 0.803919,-0.803919 0.613492,-0.910361 0.333234,-2.368105 -0.590773,-3.07288 -1.444663,-1.101898 -3.488955,0.03116 -3.495769,1.937548 -0.0042,1.180496 1.049977,2.262903 2.203926,2.262903 0.386745,0 0.768317,-0.114487 1.078697,-0.323652 z m 9.665125,0.07434 c 0.582759,-0.292788 1.097084,-1.00579 1.227677,-1.70191 0.200496,-1.068734 -0.579423,-2.299157 -1.663161,-2.623853 -0.740392,-0.221827 -1.694175,0.133848 -2.224924,0.829697 -0.550788,0.72212 -0.622981,1.917828 -0.157177,2.603275 0.726332,1.068823 1.793913,1.407101 2.817585,0.892791 z M 49.964062,16.228532 c 0.252017,-0.155755 0.60718,-0.548243 0.789251,-0.872195 0.273543,-0.486703 0.320223,-0.738525 0.268768,-1.449887 -0.05806,-0.802701 -0.105484,-0.901712 -0.70168,-1.465016 -0.744861,-0.703768 -1.459563,-0.891225 -2.415992,-0.633686 -1.134091,0.305379 -1.987432,1.638442 -1.758852,2.747625 0.152671,0.740831 0.746837,1.516929 1.392906,1.81941 0.722845,0.338426 1.740674,0.277056 2.425599,-0.146251 z m -18.800423,-0.25736 c 1.004232,-0.893811 0.848649,-3.219477 -0.264155,-3.948614 -0.494265,-0.323855 -1.38429,-0.219326 -1.848891,0.217144 -0.610146,0.573203 -0.834905,1.858572 -0.501589,2.868529 0.182467,0.55288 0.793932,1.192946 1.223148,1.280361 0.396625,0.08078 1.052952,-0.116109 1.391487,-0.41742 z m 8.581884,0.109129 c 0.478392,-0.300803 0.907486,-1.04352 0.99477,-1.721844 0.102759,-0.798586 -0.356515,-1.765466 -1.060986,-2.233624 -0.971175,-0.645397 -2.380859,-0.290486 -2.9636,0.746136 -0.535162,0.951981 -0.358518,2.314499 0.387603,2.98973 0.646751,0.585302 1.895544,0.689093 2.642213,0.219602 z m 20.031048,0.0376 c 0.464797,-0.234244 0.917084,-0.918232 1.041097,-1.574437 0.145311,-0.768905 -0.06576,-1.447669 -0.642414,-2.065872 -0.474478,-0.508666 -0.626856,-0.582991 -1.307276,-0.637653 -0.637477,-0.05121 -0.853786,-0.0045 -1.255296,0.271069 -1.087824,0.746613 -1.413061,1.836379 -0.896547,3.004045 0.540638,1.222202 1.803849,1.636133 3.060436,1.002848 z m 8.283055,-0.06818 c 0.515639,-0.405602 0.784816,-1.080883 0.784816,-1.96886 0,-1.341362 -0.555985,-2.120863 -1.595547,-2.236983 -1.086979,-0.121416 -1.820609,0.779996 -1.820609,2.236983 0,0.887977 0.269177,1.563258 0.784816,1.96886 0.51765,0.407183 1.328874,0.407183 1.846524,0 z m -9.83885,50.321174 c 0.04978,-0.363217 0.09052,-1.025434 0.09052,-1.471592 v -0.811196 l 1.243291,-0.983771 c 2.430777,-1.923384 6.236028,-5.82747 8.65786,-8.882735 1.262614,-1.592851 3.572151,-5.116308 4.598676,-7.015795 3.403564,-6.29797 6.187943,-15.265841 7.412134,-23.872853 0.387416,-2.723832 0.725034,-5.997437 0.633766,-6.145112 -0.04006,-0.06481 -2.239274,-0.117842 -4.88715,-0.117842 l -4.814319,0 -0.08464,-1.174304 c -0.04655,-0.645867 -0.125907,-2.055032 -0.176342,-3.131477 l -0.0917,-1.957173 h 9.6347 9.6347 l -0.09879,0.320264 c -0.05434,0.176146 -0.179871,0.480397 -0.278964,0.676115 -0.361426,0.713842 -1.176083,2.954703 -1.604161,4.412535 -0.416939,1.419897 -0.647808,2.418163 -2.024517,8.753902 -1.71739,7.903584 -3.9401,14.557042 -6.657175,19.927581 -2.297708,4.541621 -6.201017,9.544955 -11.437664,14.661006 -2.459918,2.403269 -4.624099,4.234582 -6.670559,5.644575 -1.440703,0.992632 -2.81692,1.828268 -3.010992,1.828268 -0.10748,0 -0.129781,-0.214487 -0.06866,-0.660396 z M 37.025454,66.055598 C 29.928674,61.536675 21.31158,52.129107 17.640314,44.892195 16.323532,42.296513 14.977467,39.050991 13.985634,36.080329 12.40741,31.353349 11.988878,29.730914 9.9995995,20.628491 9.1245704,16.624585 8.1440386,13.352759 7.3565185,11.809092 6.7998563,10.717944 5.9795793,10.807041 16.581992,10.807041 c 5.232176,0 9.539736,0.02642 9.572355,0.05872 0.03262,0.0323 0.002,1.441461 -0.06812,3.131477 l -0.127428,3.072758 h -4.906978 -4.906979 l 0.0987,1.387813 c 0.273943,3.85188 1.373693,10.194013 2.499081,14.411912 0.654298,2.452276 1.957631,6.469366 2.770906,8.540392 1.197621,3.049774 3.285388,7.040245 5.101231,9.75028 2.834201,4.229874 6.704203,8.511541 10.588002,11.714284 1.210795,0.998472 1.323377,1.133808 1.324303,1.591962 5.57e-4,0.275397 0.04185,0.933079 0.09175,1.461515 0.0729,0.771877 0.05171,0.959439 -0.107767,0.953901 -0.109179,-0.0038 -0.777698,-0.375696 -1.485597,-0.826456 z"
     id="path31" /></svg>
