<?xml version="1.0" encoding="UTF-8" standalone="no"?>
<!-- Created with Inkscape (http://www.inkscape.org/) -->

<svg
   width="95.076096mm"
   height="122.81843mm"
   viewBox="0 0 95.076095 122.81843"
   version="1.1"
   id="svg1"
   xml:space="preserve"
   inkscape:export-filename="spainSupercup.svg"
   inkscape:export-xdpi="96"
   inkscape:export-ydpi="96"
   sodipodi:docname="juventus.svg"
   xmlns:inkscape="http://www.inkscape.org/namespaces/inkscape"
   xmlns:sodipodi="http://sodipodi.sourceforge.net/DTD/sodipodi-0.dtd"
   xmlns="http://www.w3.org/2000/svg"
   xmlns:svg="http://www.w3.org/2000/svg"><sodipodi:namedview
     id="namedview1"
     pagecolor="#ffffff"
     bordercolor="#000000"
     borderopacity="0.25"
     inkscape:showpageshadow="2"
     inkscape:pageopacity="0.0"
     inkscape:pagecheckerboard="0"
     inkscape:deskcolor="#d1d1d1"
     inkscape:document-units="mm"><inkscape:page
       x="0"
       y="0"
       width="95.076096"
       height="122.81843"
       id="page2"
       margin="0"
       bleed="0" /></sodipodi:namedview><defs
     id="defs1" /><path
     style="fill:#c3a970;fill-opacity:1"
     d="m 24.40386,119.08033 c 0.06484,-0.15712 0.664918,-1.90179 1.333509,-3.87703 1.299075,-3.83792 1.64155,-4.43846 2.762258,-4.84371 0.460802,-0.16663 0.532171,-0.27765 0.624142,-0.97096 0.12658,-0.95421 0.71412,-1.70758 1.656965,-2.12465 l 0.67547,-0.29879 0.09655,-1.26799 c 0.0531,-0.69739 0.103464,-4.13291 0.111918,-7.634485 l 0.01537,-6.366501 0.48625,-0.489731 0.48625,-0.489731 16.198822,-0.04342 c 11.789409,-0.0316 16.320627,0.007 16.646298,0.141639 0.246112,0.101783 0.595045,0.423831 0.775407,0.715663 0.315494,0.51048 0.328212,0.811561 0.335341,7.93892 l 0.0074,7.408315 0.842033,0.40811 c 1.029879,0.49915 1.437949,1.03347 1.550258,2.02987 0.07597,0.67397 0.153425,0.79608 0.675835,1.06543 1.238785,0.63869 1.522573,1.14301 2.762393,4.90906 0.636473,1.93334 1.205618,3.64128 1.264767,3.79542 0.09953,0.25936 -0.148351,0.28025 -3.326154,0.28025 h -3.433696 l -0.467935,-0.56769 -0.467934,-0.56768 -17.215073,-0.0138 -17.215072,-0.0139 -0.507031,0.58153 -0.507031,0.58154 h -3.142605 c -2.929038,0 -3.134593,-0.0194 -3.024715,-0.28568 z m 9.058684,-29.925124 c 0,-1.014702 0.636298,-1.676271 1.877301,-1.95186 0.572711,-0.127181 4.834101,-0.165847 14.283817,-0.129605 12.520994,0.04802 13.504782,0.07197 13.996604,0.340725 0.648103,0.354155 1.006413,0.877127 1.132252,1.652584 l 0.09552,0.588619 H 49.155291 33.462544 Z m 2.285411,-3.516411 c 0,-0.100708 0.325707,-0.307493 0.723794,-0.459524 1.80459,-0.689179 4.234789,-2.653745 6.241827,-5.045875 2.344615,-2.794478 3.568537,-5.13973 4.35915,-8.352904 0.424153,-1.723824 0.610072,-4.766121 0.426125,-6.972935 -0.143712,-1.724115 -0.604966,-4.291903 -0.917047,-5.105172 -0.08207,-0.213863 0.252672,-0.246787 2.509128,-0.246787 h 2.60383 l -0.379177,1.41995 c -0.550549,2.061707 -0.77176,4.48949 -0.651515,7.15034 0.222668,4.927331 1.700528,8.542115 5.067706,12.395395 1.92983,2.208431 3.785918,3.737156 5.503809,4.533091 0.616594,0.28568 1.121074,0.59719 1.121068,0.692244 -8e-6,0.120181 -4.052654,0.1732 -13.304355,0.174053 -9.723516,8.98e-4 -13.304343,-0.04805 -13.304343,-0.181876 z m 9.928262,-27.477389 c -0.220063,-0.173102 -0.495806,-0.604677 -0.612762,-0.959057 -0.281943,-0.854296 -0.01463,-1.680468 0.738045,-2.281027 0.428683,-0.342046 0.557281,-0.567082 0.557285,-0.975196 l 5e-6,-0.530542 h 2.676054 c 2.850113,0 2.874229,0.0069 2.874229,0.823826 0,0.169066 0.15085,0.388125 0.335223,0.486798 0.805088,0.43087 1.231194,1.956124 0.788376,2.822009 -0.445736,0.871592 -0.652559,0.920389 -3.917537,0.92429 -2.757003,0.0033 -3.075907,-0.02556 -3.438918,-0.311101 z m -0.52058,-6.126834 c -6.862714,-0.875015 -11.169003,-4.01793 -12.262796,-8.949917 -0.302956,-1.366053 -0.238481,-2.503169 0.177971,-3.138754 0.520706,-0.794698 0.369276,-0.784694 13.035558,-0.861164 6.550076,-0.03954 13.334893,-0.01844 15.077371,0.04689 l 3.168141,0.11879 0.508365,0.454224 c 0.468387,0.418504 0.513221,0.550397 0.570122,1.677199 0.11537,2.284669 -0.843988,4.55168 -2.747217,6.491806 -2.102679,2.143444 -4.64732,3.323657 -8.651912,4.012787 -2.005845,0.345175 -6.713936,0.423755 -8.875603,0.148137 z m -14.7131,-12.541473 c -3.986772,-2.1536 -6.952298,-5.70914 -8.40257,-10.074328 -0.864479,-2.602006 -0.873535,-2.74253 -0.936267,-14.528682 -0.03805,-7.1484066 -0.0015,-11.1049571 0.10405,-11.2638106 0.132732,-0.1997643 0.697507,-0.2521191 3.066307,-0.2842474 1.596984,-0.02166 4.280975,-0.061206 5.964425,-0.08788 l 3.060818,-0.048499 -3.01e-4,1.8019387 c -1.65e-4,0.9910662 -0.04873,3.9506328 -0.107921,6.5768145 l -0.10762,4.774876 -0.422621,-6.1e-4 c -0.549275,-7.93e-4 -1.388119,-0.518122 -1.760511,-1.085736 -0.257832,-0.392999 -0.304719,-0.958605 -0.376167,-4.537804 l -0.08162,-4.0888455 -2.71357,-0.044664 c -1.611283,-0.026521 -2.896264,0.024796 -3.16332,0.1263309 l -0.44975,0.1709948 0.113679,8.7704467 c 0.06252,4.823746 0.184057,9.431583 0.270075,10.239639 0.544117,5.111459 3.260687,10.18056 6.67921,12.463362 l 0.943186,0.629836 -0.325244,0.513688 c -0.178884,0.282528 -0.336395,0.512019 -0.350024,0.50998 -0.01363,-0.002 -0.465538,-0.241799 -1.004242,-0.5328 z m 35.896396,-0.0049 -0.330677,-0.503133 0.92768,-0.619481 c 2.458602,-1.641792 4.578636,-4.709957 5.787265,-8.375475 0.943799,-2.862343 0.97239,-3.264127 0.975775,-13.712465 l 0.0031,-9.6313735 H 70.68209 67.662083 l -0.08162,4.0888455 c -0.07072,3.5428 -0.120076,4.147458 -0.369572,4.527737 -0.376899,0.574467 -0.930159,0.926196 -1.637412,1.040967 l -0.572323,0.09288 0.02451,-6.589271 0.02452,-6.5892706 3.591359,-0.051298 c 1.975248,-0.028214 4.63816,-0.00221 5.917582,0.057782 l 2.326221,0.1090799 -0.0028,11.1244063 c -0.003,11.753037 -0.04343,12.515503 -0.790567,14.914403 -0.418968,1.345214 -1.510163,3.579182 -2.336287,4.783003 -1.470575,2.142911 -4.498798,4.709943 -6.671418,5.655378 -0.373184,0.162394 -0.447658,0.130147 -0.745292,-0.32271 z M 34.931736,25.011193 V 12.114947 H 49.133931 63.336127 V 25.011193 37.90744 H 49.133931 34.931736 Z"
     id="path30" /></svg>
