<?xml version="1.0" encoding="UTF-8" standalone="no"?>
<!-- Created with Inkscape (http://www.inkscape.org/) -->

<svg
   width="99.736053mm"
   height="123.14359mm"
   viewBox="0 0 99.736053 123.14359"
   version="1.1"
   id="svg1"
   xml:space="preserve"
   inkscape:export-filename="sporting.svg"
   inkscape:export-xdpi="96"
   inkscape:export-ydpi="96"
   sodipodi:docname="sporting.svg"
   xmlns:inkscape="http://www.inkscape.org/namespaces/inkscape"
   xmlns:sodipodi="http://sodipodi.sourceforge.net/DTD/sodipodi-0.dtd"
   xmlns="http://www.w3.org/2000/svg"
   xmlns:svg="http://www.w3.org/2000/svg"><sodipodi:namedview
     id="namedview1"
     pagecolor="#ffffff"
     bordercolor="#000000"
     borderopacity="0.25"
     inkscape:showpageshadow="2"
     inkscape:pageopacity="0.0"
     inkscape:pagecheckerboard="0"
     inkscape:deskcolor="#d1d1d1"
     inkscape:document-units="mm"><inkscape:page
       x="0"
       y="0"
       width="99.736053"
       height="123.14359"
       id="page2"
       margin="0"
       bleed="0" /></sodipodi:namedview><defs
     id="defs1" /><g
     inkscape:label="Capa 1"
     inkscape:groupmode="layer"
     id="layer1"
     transform="translate(-54.83643,-105.03485)"><g
       id="g8"
       transform="translate(-6.6245353,1.8401487)"><path
         style="fill:#c3a970;fill-opacity:1;stroke:none;stroke-width:2.12733;stroke-opacity:1"
         d="m 68.87378,115.19331 c 0,0 -3.36946,12.14498 -4.717245,19.13754 -1.347784,6.99257 -1.347784,11.77695 -1.347784,11.77695 h 98.388269 c 0,0 -3.7064,-31.28252 -6.06503,-30.91449 -2.35862,0.36803 -10.10838,-0.36803 -26.61874,-8.46469 -16.51037,-8.096651 -34.368509,0 -37.064078,1.84015 -2.695568,1.84015 -9.097546,6.25651 -14.151738,6.62454 -5.054191,0.36803 -8.423654,0 -8.423654,0 z"
         id="path4" /><path
         style="fill:#c3a970;fill-opacity:1;stroke:none;stroke-width:2.12733;stroke-opacity:1"
         d="m 66.515158,182.54275 90.638512,0.36803 c 0,0 -4.3803,14.35316 -16.84731,26.13011 -12.467,11.77695 -28.30348,17.2974 -28.30348,17.2974 0,0 -25.270955,-10.30483 -34.031554,-22.08179 -8.760599,-11.77695 -11.456168,-21.71375 -11.456168,-21.71375 z"
         id="path5" /><path
         style="fill:#c3a970;fill-opacity:1;stroke:none;stroke-width:2.12733;stroke-opacity:1"
         d="m 84.036359,143.16357 0.336943,43.79554 53.911378,-0.73606 1.68474,-43.42751 z"
         id="path6" /><path
         style="fill:#c3a970;fill-opacity:1;stroke:none;stroke-width:2.12733;stroke-opacity:1"
         d="m 61.460965,152.73234 1.347786,8.46468 97.377439,-0.73605 1.01083,-6.99257 z"
         id="path7" /><path
         style="fill:#c3a970;fill-opacity:1;stroke:none;stroke-width:2.12733;stroke-opacity:1"
         d="m 62.808751,168.55762 1.68473,6.62453 94.681869,0.36803 1.01084,-7.72862 z"
         id="path8" /></g></g></svg>
