<?xml version="1.0" encoding="UTF-8" standalone="no"?>
<svg
   version="1.0"
   width="1254pt"
   height="1254pt"
   viewBox="0 0 1254 1254"
   preserveAspectRatio="xMidYMid"
   id="svg47"
   sodipodi:docname="stamp.svg"
   inkscape:version="1.4.4 (dcaf3e7, 2026-05-05)"
   inkscape:export-filename="..\Icons\icon-ivory.svg"
   inkscape:export-xdpi="96"
   inkscape:export-ydpi="96"
   xmlns:inkscape="http://www.inkscape.org/namespaces/inkscape"
   xmlns:sodipodi="http://sodipodi.sourceforge.net/DTD/sodipodi-0.dtd"
   xmlns="http://www.w3.org/2000/svg"
   xmlns:svg="http://www.w3.org/2000/svg">
  <defs
     id="defs47" />
  <sodipodi:namedview
     id="namedview47"
     pagecolor="#505050"
     bordercolor="#eeeeee"
     borderopacity="1"
     inkscape:showpageshadow="0"
     inkscape:pageopacity="0"
     inkscape:pagecheckerboard="0"
     inkscape:deskcolor="#505050"
     inkscape:document-units="pt"
     inkscape:zoom="0.23116029"
     inkscape:cx="-121.12807"
     inkscape:cy="512.63131"
     inkscape:window-width="1920"
     inkscape:window-height="991"
     inkscape:window-x="-9"
     inkscape:window-y="-9"
     inkscape:window-maximized="1"
     inkscape:current-layer="svg47"
     showguides="true">
    <inkscape:page
       x="0"
       y="0"
       width="1254"
       height="1254"
       id="page2"
       margin="0"
       bleed="0" />
  </sodipodi:namedview>
  <g
     transform="matrix(0.1,0,0,-0.1,0,1254)"
     fill="#000000"
     stroke="none"
     id="g47"
     style="fill:#faf9f6;fill-opacity:1">
    <path
       d="m 5964,12439 c -327,-17 -690,-72 -1029,-153 -1048,-253 -1945,-758 -2680,-1508 -241,-245 -366,-393 -560,-664 C 1460,9788 1294,9505 1125,9140 608,8029 430,6732 631,5550 c 77,-453 194,-882 339,-1248 245,-619 555,-1143 969,-1642 120,-144 419,-450 573,-586 847,-748 1896,-1218 3043,-1363 275,-35 440,-45 740,-44 486,2 920,56 1382,174 1242,315 2336,1041 3087,2048 614,824 1013,1824 1145,2871 39,308 51,497 51,811 0,313 -11,494 -50,790 -51,391 -98,615 -201,962 -220,738 -514,1330 -950,1912 -277,370 -654,754 -1013,1030 -252,194 -444,321 -736,487 -335,190 -855,396 -1280,507 -603,157 -1159,213 -1766,180 z m 586,-89 c 815,-43 1579,-250 2316,-628 779,-399 1508,-1057 2008,-1811 405,-610 674,-1249 850,-2016 157,-688 188,-1484 85,-2200 -107,-741 -352,-1479 -694,-2090 -279,-499 -553,-864 -935,-1245 C 9904,2084 9695,1913 9357,1686 8766,1291 8124,1023 7405,871 6550,691 5614,723 4761,962 4181,1124 3651,1366 3160,1693 2692,2005 2252,2411 1909,2845 1278,3647 870,4597 711,5636 c -87,565 -90,1105 -10,1723 97,756 386,1595 774,2251 256,431 533,789 874,1130 721,719 1511,1168 2521,1434 525,138 1151,204 1680,176 z"
       id="path1"
       style="display:inline;fill:#faf9f6;fill-opacity:1" />
  </g>
  <g
     transform="matrix(0.08946947,0,0,-0.08946947,55.910297,1196.4702)"
     fill="#000000"
     stroke="none"
     id="g3"
     style="fill:#faf9f6;fill-opacity:1">
    <path
       d="m 5055,10908 c -32,-73 -111,-257 -177,-408 -179,-412 -270,-620 -443,-1010 -100,-226 -159,-363 -253,-580 -44,-102 -124,-284 -177,-405 -53,-121 -130,-296 -170,-390 -95,-222 -202,-467 -253,-580 -22,-49 -63,-144 -92,-210 -99,-228 -326,-742 -390,-885 -392,-872 -574,-1235 -663,-1328 -18,-19 -42,-38 -54,-43 -13,-5 -23,-17 -23,-28 0,-19 9,-20 298,-23 163,-2 305,-1 315,1 26,5 23,51 -4,51 -83,0 -114,106 -84,294 42,273 138,546 405,1161 39,88 121,279 184,425 l 113,265 1255,3 1254,2 59,-135 c 32,-75 62,-134 66,-133 4,2 120,114 258,250 l 251,247 -29,63 c -16,35 -100,230 -186,433 -87,204 -196,460 -242,570 -85,199 -215,502 -278,645 -32,74 -98,226 -230,530 -37,85 -108,247 -157,360 -187,424 -316,719 -373,853 -58,135 -59,137 -91,137 -31,0 -32,-2 -89,-132 z m -170,-925 c 21,-49 97,-223 170,-388 73,-165 180,-408 238,-540 58,-132 167,-379 242,-550 75,-170 170,-389 212,-485 41,-96 121,-281 179,-412 57,-130 104,-241 104,-247 0,-13 -2366,-16 -2373,-3 -2,4 44,117 103,252 58,135 164,378 235,540 71,162 155,356 188,430 32,74 72,164 87,200 15,36 65,148 110,250 45,102 120,273 167,380 107,245 294,660 298,660 1,0 19,-39 40,-87 z"
       id="path1-0"
       style="fill:#faf9f6;fill-opacity:1" />
    <path
       d="m 9486.555,9911.6675 c -157,-160 -652,-670 -959,-988 -250,-259 -434,-448 -870,-895 -414,-422 -659,-676 -1390,-1430 -165,-170 -387,-400 -495,-510 -270,-276 -958,-991 -1315,-1365 -71,-74 -223,-234 -339,-355 -116,-121 -303,-317 -416,-435 -113,-118 -255,-267 -315,-330 -512,-535 -671,-704 -679,-720 -13,-27 0,-50 27,-50 18,0 74,52 228,212 339,353 638,666 959,1003 484,507 1219,1274 1530,1595 157,162 578,597 935,965 821,847 1276,1316 1575,1620 130,132 494,507 810,834 316,327 655,676 753,777 150,156 177,188.0005 177,214.0005 0,64 -36,40 -216,-142.0005 z"
       id="path2-9"
       style="display:inline;fill:#faf9f6;fill-opacity:1" />
    <path
       d="m 8720,7598 c -74,-134 -195,-351 -270,-483 -76,-132 -172,-303 -215,-380 -146,-263 -577,-1030 -633,-1127 -31,-54 -60,-94 -63,-90 -4,4 -35,68 -69,142 -99,218 -523,1090 -530,1090 -11,0 -470,-469 -470,-480 0,-5 80,-171 178,-367 98,-197 265,-542 371,-768 107,-225 200,-416 206,-423 10,-11 24,8 75,100 35,62 80,142 100,178 120,213 150,267 213,380 39,69 87,154 107,190 20,36 79,142 132,235 52,94 161,285 240,425 262,461 574,1014 614,1087 21,40 41,73 44,73 5,0 3,-3556 -2,-3985 -3,-227 -5,-243 -27,-293 -39,-86 -104,-126 -231,-140 l -65,-7 v -35 -35 h 635 635 v 35 35 l -61,7 c -100,11 -143,27 -189,69 -82,76 -76,-119 -73,2349 l 3,2185 23,50 c 13,28 35,62 49,77 35,37 116,70 188,77 59,6 60,7 63,39 l 3,32 h -424 -424 z"
       id="path3-4"
       style="fill:#faf9f6;fill-opacity:1" />
  </g>
</svg>
