<?xml version="1.0" encoding="UTF-8" standalone="no"?>
<svg
   version="1.0"
   width="1156.7563pt"
   height="1184.335pt"
   viewBox="0 0 1156.7563 1184.335"
   preserveAspectRatio="xMidYMid"
   id="svg47"
   sodipodi:docname="icon.svg"
   inkscape:version="1.4.4 (dcaf3e7, 2026-05-05)"
   xmlns:inkscape="http://www.inkscape.org/namespaces/inkscape"
   xmlns:sodipodi="http://sodipodi.sourceforge.net/DTD/sodipodi-0.dtd"
   xmlns="http://www.w3.org/2000/svg"
   xmlns:svg="http://www.w3.org/2000/svg">
  <defs
     id="defs47" />
  <sodipodi:namedview
     id="namedview47"
     pagecolor="#505050"
     bordercolor="#eeeeee"
     borderopacity="1"
     inkscape:showpageshadow="0"
     inkscape:pageopacity="0"
     inkscape:pagecheckerboard="0"
     inkscape:deskcolor="#505050"
     inkscape:document-units="pt"
     inkscape:zoom="0.23116029"
     inkscape:cx="-116.80207"
     inkscape:cy="512.6313"
     inkscape:window-width="1920"
     inkscape:window-height="991"
     inkscape:window-x="-9"
     inkscape:window-y="-9"
     inkscape:window-maximized="1"
     inkscape:current-layer="svg47"
     showguides="true">
    <inkscape:page
       x="1.5325008e-13"
       y="0"
       width="1156.7563"
       height="1184.335"
       id="page1"
       margin="0"
       bleed="0" />
  </sodipodi:namedview>
  <g
     transform="matrix(0.1,0,0,-0.1,-46.999514,1249.1792)"
     fill="#000000"
     stroke="none"
     id="g47"
     style="fill:#0d0d0d;fill-opacity:1">
    <path
       d="M 625.37842,4.8208008 A 578.37811,592.1673 0 0 0 46.999512,596.98828 578.37811,592.1673 0 0 0 625.37695,1189.1558 578.37811,592.1673 0 0 0 1203.7559,596.98828 578.37811,592.1673 0 0 0 625.37842,4.8208008 Z"
       style="baseline-shift:baseline;display:inline;overflow:visible;vector-effect:none;fill:#0d0d0d;enable-background:accumulate;stop-color:#000000;stop-opacity:1"
       id="path9"
       transform="matrix(9.9999998,0,0,-9.9999998,0,12540)" />
    <path
       d="m 6303.501,12197.871 c -128,0.625 -258.0059,-0.878 -328.5059,-4.878 -33,-2 -178.9902,-16.988 -324.9902,-32.988 -675,-76 -1279,-256.006 -1875,-561.006 -389,-198 -698.0049,-407.004 -1045.0049,-704.004 -905,-775 -1560.0049,-1914.9999 -1810.00488,-3149.9999 -37,-184 -95.99121,-592.9951 -110.99121,-769.9951 -18,-209 -15.00098,-725.9951 3.99902,-919.9951 102,-1002 359.99997,-1796.0098 839.99997,-2585.0098 326,-538 802.002,-1068.0019 1297.002,-1447.0019 458,-350 987.9922,-632.9981 1531.9922,-817.9981 411,-140 843.0029,-231.99119 1293.0029,-275.99119 236,-23 696.9971,-27.00879 911.9971,-9.00879 773,64 1502.0029,275.99808 2148.0029,622.99808 292,157 618.0039,371.0107 824.0039,541.0107 41,33 98.9902,80.9961 129.9902,105.9961 31,24 134.0097,120.9951 230.0099,214.9951 456,447 791.996,909 1080.996,1485 277,552 452.004,1113.0108 554.004,1771.0108 169,1095 25.994,2232.9941 -411.006,3263.9941 -562,1325 -1622.998,2364.998 -2947.998,2887.998 -540,213 -1071.0049,333.007 -1675.0049,377.007 -62.5,4.5 -188.4941,7.241 -316.4941,7.866 z m -13.5059,-49.878 c 14,1 111.0098,-2.998 215.0098,-7.998 455,-24 836.9902,-85.99 1254.9902,-204.99 987,-281 1824.0069,-805.005 2507.0069,-1570.005 480,-536 861.996,-1206 1095.996,-1920 153,-468 228.008,-837.9951 283.008,-1384.9951 21,-205 23.991,-763.0049 5.991,-955.0049 -78,-814 -263.997,-1500.9951 -581.997,-2149.9951 -97,-197 -162.003,-317.0049 -243.003,-445.0049 -194,-310 -321.991,-488.0049 -515.991,-715.0049 -115,-135 -440.0099,-459.9951 -575.0099,-574.9951 -1031,-877 -2408.001,-1332.99512 -3776.001,-1249.99512 -295,18 -574.998,58.00102 -907.998,131.00102 -812,178 -1571.002,551.997 -2242.002,1106.997 -216,179 -570.9961,547.9922 -765.9961,796.9922 -325,415 -601.9931,905.0049 -792.9931,1405.0049 -182,475 -290.00492,910.9951 -355.00492,1429.9951 -52,424 -52,952 0,1380 C 1002.001,8084.9951 1257,8843.0049 1680,9550.0049 c 331,553.0001 698.0049,980.0011 1210.0049,1406.0011 519,432 1198.9902,783.998 1899.9902,982.998 389,110 863.0049,183.995 1285.0049,199.995 105,4 200.9951,7.994 214.9951,8.994 z"
       style="baseline-shift:baseline;display:inline;overflow:visible;vector-effect:none;fill:#faf9f6;fill-opacity:1;enable-background:accumulate;stop-color:#000000;stop-opacity:1"
       id="path10" />
  </g>
  <g
     transform="matrix(0.08946947,0,0,-0.08946947,8.9107834,1191.6494)"
     fill="#000000"
     stroke="none"
     id="g3"
     style="fill:#faf9f6;fill-opacity:1;stroke:none;stroke-opacity:1">
    <path
       d="m 5055,10908 c -32,-73 -111,-257 -177,-408 -179,-412 -270,-620 -443,-1010 -100,-226 -159,-363 -253,-580 -44,-102 -124,-284 -177,-405 -53,-121 -130,-296 -170,-390 -95,-222 -202,-467 -253,-580 -22,-49 -63,-144 -92,-210 -99,-228 -326,-742 -390,-885 -392,-872 -574,-1235 -663,-1328 -18,-19 -42,-38 -54,-43 -13,-5 -23,-17 -23,-28 0,-19 9,-20 298,-23 163,-2 305,-1 315,1 26,5 23,51 -4,51 -83,0 -114,106 -84,294 42,273 138,546 405,1161 39,88 121,279 184,425 l 113,265 1255,3 1254,2 59,-135 c 32,-75 62,-134 66,-133 4,2 120,114 258,250 l 251,247 -29,63 c -16,35 -100,230 -186,433 -87,204 -196,460 -242,570 -85,199 -215,502 -278,645 -32,74 -98,226 -230,530 -37,85 -108,247 -157,360 -187,424 -316,719 -373,853 -58,135 -59,137 -91,137 -31,0 -32,-2 -89,-132 z m -170,-925 c 21,-49 97,-223 170,-388 73,-165 180,-408 238,-540 58,-132 167,-379 242,-550 75,-170 170,-389 212,-485 41,-96 121,-281 179,-412 57,-130 104,-241 104,-247 0,-13 -2366,-16 -2373,-3 -2,4 44,117 103,252 58,135 164,378 235,540 71,162 155,356 188,430 32,74 72,164 87,200 15,36 65,148 110,250 45,102 120,273 167,380 107,245 294,660 298,660 1,0 19,-39 40,-87 z"
       id="path1-0"
       style="fill:#faf9f6;fill-opacity:1;stroke:none;stroke-opacity:1" />
    <path
       d="m 9486.555,9911.6675 c -157,-160 -652,-670 -959,-988 -250,-259 -434,-448 -870,-895 -414,-422 -659,-676 -1390,-1430 -165,-170 -387,-400 -495,-510 -270,-276 -958,-991 -1315,-1365 -71,-74 -223,-234 -339,-355 -116,-121 -303,-317 -416,-435 -113,-118 -255,-267 -315,-330 -512,-535 -671,-704 -679,-720 -13,-27 0,-50 27,-50 18,0 74,52 228,212 339,353 638,666 959,1003 484,507 1219,1274 1530,1595 157,162 578,597 935,965 821,847 1276,1316 1575,1620 130,132 494,507 810,834 316,327 655,676 753,777 150,156 177,188.0005 177,214.0005 0,64 -36,40 -216,-142.0005 z"
       id="path2-9"
       style="display:inline;fill:#faf9f6;fill-opacity:1;stroke:none;stroke-opacity:1" />
    <path
       d="m 8720,7598 c -74,-134 -195,-351 -270,-483 -76,-132 -172,-303 -215,-380 -146,-263 -577,-1030 -633,-1127 -31,-54 -60,-94 -63,-90 -4,4 -35,68 -69,142 -99,218 -523,1090 -530,1090 -11,0 -470,-469 -470,-480 0,-5 80,-171 178,-367 98,-197 265,-542 371,-768 107,-225 200,-416 206,-423 10,-11 24,8 75,100 35,62 80,142 100,178 120,213 150,267 213,380 39,69 87,154 107,190 20,36 79,142 132,235 52,94 161,285 240,425 262,461 574,1014 614,1087 21,40 41,73 44,73 5,0 3,-3556 -2,-3985 -3,-227 -5,-243 -27,-293 -39,-86 -104,-126 -231,-140 l -65,-7 v -35 -35 h 635 635 v 35 35 l -61,7 c -100,11 -143,27 -189,69 -82,76 -76,-119 -73,2349 l 3,2185 23,50 c 13,28 35,62 49,77 35,37 116,70 188,77 59,6 60,7 63,39 l 3,32 h -424 -424 z"
       id="path3-4"
       style="fill:#faf9f6;fill-opacity:1;stroke:none;stroke-opacity:1" />
  </g>
</svg>
