<?xml version="1.0" encoding="UTF-8" standalone="no"?>
<svg
   version="1.0"
   width="1254pt"
   height="1254pt"
   viewBox="0 0 1254 1254"
   preserveAspectRatio="xMidYMid"
   id="svg2"
   sodipodi:docname="signature.svg"
   inkscape:version="1.4.4 (dcaf3e7, 2026-05-05)"
   xmlns:inkscape="http://www.inkscape.org/namespaces/inkscape"
   xmlns:sodipodi="http://sodipodi.sourceforge.net/DTD/sodipodi-0.dtd"
   xmlns="http://www.w3.org/2000/svg"
   xmlns:svg="http://www.w3.org/2000/svg">
  <defs
     id="defs2" />
  <sodipodi:namedview
     id="namedview2"
     pagecolor="#505050"
     bordercolor="#eeeeee"
     borderopacity="1"
     inkscape:showpageshadow="0"
     inkscape:pageopacity="0"
     inkscape:pagecheckerboard="0"
     inkscape:deskcolor="#505050"
     inkscape:document-units="pt"
     inkscape:zoom="0.46232057"
     inkscape:cx="834.9185"
     inkscape:cy="836"
     inkscape:window-width="1920"
     inkscape:window-height="991"
     inkscape:window-x="-9"
     inkscape:window-y="-9"
     inkscape:window-maximized="1"
     inkscape:current-layer="svg2">
    <inkscape:page
       x="0"
       y="0"
       width="1254"
       height="1254"
       id="page2"
       margin="0"
       bleed="0" />
  </sodipodi:namedview>
  <g
     transform="matrix(0.1,0,0,-0.1,0,1254)"
     fill="#000000"
     stroke="none"
     id="g2"
     style="fill:#ffffff">
    <path
       d="m 7635,10614 c -117,-79 -632,-553 -778,-715 -27,-30 -104,-110 -171,-179 -563,-578 -1197,-1322 -1724,-2025 -91,-121 -169,-223 -174,-226 -5,-3 -73,-20 -151,-38 -624,-142 -1460,-401 -2035,-630 -474,-189 -936,-438 -1115,-601 -101,-92 -134,-205 -80,-279 49,-66 184,-115 354,-128 69,-5 78,-4 98,16 49,49 8,92 -104,110 -154,25 -235,60 -235,103 0,96 467,375 1004,600 303,127 917,337 1396,478 253,75 690,190 720,190 7,0 3,-13 -12,-32 -34,-45 -262,-362 -380,-528 -391,-552 -940,-1404 -1187,-1840 -52,-91 -111,-196 -133,-234 -22,-38 -72,-129 -110,-204 -57,-110 -69,-141 -64,-166 11,-58 75,-85 123,-51 12,8 62,98 111,198 126,259 433,783 745,1272 297,466 1049,1567 1105,1618 20,19 121,42 437,102 331,63 949,154 962,142 2,-3 -19,-59 -47,-124 -170,-390 -333,-778 -445,-1058 -229,-574 -236,-593 -467,-1215 -364,-979 -538,-1540 -637,-2050 -71,-369 -100,-687 -68,-762 32,-75 94,-58 155,42 40,67 40,89 1,126 l -31,29 5,130 c 14,305 119,766 300,1315 197,595 609,1684 937,2475 62,149 138,333 170,410 105,255 192,459 247,583 61,134 52,127 163,136 352,29 450,37 610,46 210,11 437,0 498,-26 175,-73 163,-262 -53,-832 -125,-331 -249,-594 -453,-962 -76,-138 -236,-453 -267,-525 -35,-84 -85,-228 -85,-247 0,-30 63,-88 96,-88 58,0 87,50 390,656 159,319 326,646 372,729 282,507 640,1059 801,1235 l 41,45 -36,-85 c -54,-130 -226,-609 -272,-760 -98,-317 -158,-602 -141,-663 15,-57 45,-87 85,-87 47,0 80,19 135,77 83,86 370,431 644,773 324,405 370,460 549,665 158,180 416,465 441,485 9,8 2,-19 -21,-71 -135,-313 -291,-804 -378,-1189 -150,-664 -173,-1297 -65,-1835 47,-237 104,-385 178,-464 32,-34 65,-39 99,-15 31,21 28,53 -12,126 -148,270 -224,884 -171,1393 74,724 232,1312 569,2115 47,112 86,217 86,233 0,37 -40,77 -77,77 -36,-1 -56,-18 -199,-175 -327,-359 -693,-789 -974,-1145 -216,-273 -439,-549 -531,-655 -98,-114 -209,-223 -209,-206 0,29 83,349 139,537 74,248 154,460 312,832 39,92 75,180 80,196 17,58 -34,126 -96,126 -25,0 -44,-14 -106,-80 -186,-194 -422,-538 -805,-1177 -93,-155 -170,-280 -171,-279 -1,1 47,113 107,248 166,374 238,600 247,779 7,115 -10,184 -61,251 -42,54 -88,83 -170,106 -96,27 -611,23 -891,-6 -115,-12 -225,-25 -242,-28 -20,-3 -33,-1 -33,5 0,6 48,113 106,238 59,126 144,309 189,408 83,181 162,349 315,675 45,96 113,240 150,320 177,379 226,483 342,720 170,346 191,396 191,449 0,36 -5,49 -27,68 -35,30 -64,29 -111,-3 z m -95,-247 c 0,-6 -181,-385 -407,-857 -201,-417 -481,-1025 -688,-1495 -70,-159 -129,-292 -131,-294 -2,-2 -102,-17 -221,-32 -365,-46 -610,-86 -967,-159 -82,-16 -151,-28 -154,-26 -2,3 56,83 130,178 74,95 170,220 213,278 126,168 448,567 641,795 519,613 1052,1173 1392,1463 69,59 137,117 151,129 24,20 41,29 41,20 z"
       id="path1"
       style="fill:#ffffff" />
    <path
       d="m 11651.022,6435.8748 c -44.838,-27.4653 -68.703,-77.3365 -57.132,-121.4255 2.169,-10.8416 16.633,-31.8019 31.82,-46.9801 23.866,-23.1287 32.544,-27.4652 59.303,-27.4652 63.64,0 114.987,46.98 114.987,104.8017 0,75.8909 -86.783,129.3759 -148.978,91.0691 z"
       id="path2"
       style="display:inline;fill:#ffffff;stroke-width:0.722982" />
  </g>
</svg>
