<?xml version="1.0" encoding="UTF-8" standalone="no"?>
<svg
   version="1.0"
   width="1254pt"
   height="1254pt"
   viewBox="0 0 1254 1254"
   preserveAspectRatio="xMidYMid"
   id="svg47"
   sodipodi:docname="stamp.svg"
   inkscape:version="1.4.4 (dcaf3e7, 2026-05-05)"
   xmlns:inkscape="http://www.inkscape.org/namespaces/inkscape"
   xmlns:sodipodi="http://sodipodi.sourceforge.net/DTD/sodipodi-0.dtd"
   xmlns="http://www.w3.org/2000/svg"
   xmlns:svg="http://www.w3.org/2000/svg">
  <defs
     id="defs47" />
  <sodipodi:namedview
     id="namedview47"
     pagecolor="#505050"
     bordercolor="#eeeeee"
     borderopacity="1"
     inkscape:showpageshadow="0"
     inkscape:pageopacity="0"
     inkscape:pagecheckerboard="0"
     inkscape:deskcolor="#505050"
     inkscape:document-units="pt"
     inkscape:zoom="0.23116029"
     inkscape:cx="-121.12807"
     inkscape:cy="512.63131"
     inkscape:window-width="1920"
     inkscape:window-height="991"
     inkscape:window-x="-9"
     inkscape:window-y="-9"
     inkscape:window-maximized="1"
     inkscape:current-layer="svg47">
    <inkscape:page
       x="0"
       y="0"
       width="1254"
       height="1254"
       id="page2"
       margin="0"
       bleed="0" />
  </sodipodi:namedview>
  <g
     transform="matrix(0.1,0,0,-0.1,0,1254)"
     fill="#000000"
     stroke="none"
     id="g47"
     style="fill:#ffffff">
    <path
       d="m 5964,12439 c -327,-17 -690,-72 -1029,-153 -1048,-253 -1945,-758 -2680,-1508 -241,-245 -366,-393 -560,-664 C 1460,9788 1294,9505 1125,9140 608,8029 430,6732 631,5550 c 77,-453 194,-882 339,-1248 245,-619 555,-1143 969,-1642 120,-144 419,-450 573,-586 847,-748 1896,-1218 3043,-1363 275,-35 440,-45 740,-44 486,2 920,56 1382,174 1242,315 2336,1041 3087,2048 614,824 1013,1824 1145,2871 39,308 51,497 51,811 0,313 -11,494 -50,790 -51,391 -98,615 -201,962 -220,738 -514,1330 -950,1912 -277,370 -654,754 -1013,1030 -252,194 -444,321 -736,487 -335,190 -855,396 -1280,507 -603,157 -1159,213 -1766,180 z m 586,-89 c 815,-43 1579,-250 2316,-628 779,-399 1508,-1057 2008,-1811 405,-610 674,-1249 850,-2016 157,-688 188,-1484 85,-2200 -107,-741 -352,-1479 -694,-2090 -279,-499 -553,-864 -935,-1245 C 9904,2084 9695,1913 9357,1686 8766,1291 8124,1023 7405,871 6550,691 5614,723 4761,962 4181,1124 3651,1366 3160,1693 2692,2005 2252,2411 1909,2845 1278,3647 870,4597 711,5636 c -87,565 -90,1105 -10,1723 97,756 386,1595 774,2251 256,431 533,789 874,1130 721,719 1511,1168 2521,1434 525,138 1151,204 1680,176 z"
       id="path1"
       style="display:inline;fill:#ffffff" />
    <path
       d="m 5975,12193 c -33,-2 -179,-17 -325,-33 -675,-76 -1279,-256 -1875,-561 -389,-198 -698,-407 -1045,-704 C 1825,10120 1170,8980 920,7745 883,7561 824,7152 809,6975 c -18,-209 -15,-726 4,-920 102,-1002 360,-1796 840,-2585 326,-538 802,-1068 1297,-1447 458,-350 988,-633 1532,-818 411,-140 843,-232 1293,-276 236,-23 697,-27 912,-9 773,64 1502,276 2148,623 292,157 618,371 824,541 41,33 99,81 130,106 31,24 134,121 230,215 456,447 792,909 1081,1485 277,552 452,1113 554,1771 169,1095 26,2233 -411,3264 -562,1325 -1623,2365 -2948,2888 -540,213 -1071,333 -1675,377 -125,9 -504,11 -645,3 z m 530,-53 c 455,-24 837,-86 1255,-205 987,-281 1824,-805 2507,-1570 480,-536 862,-1206 1096,-1920 153,-468 228,-838 283,-1385 21,-205 24,-763 6,-955 -78,-814 -264,-1501 -582,-2150 -97,-197 -162,-317 -243,-445 -194,-310 -322,-488 -516,-715 -115,-135 -440,-460 -575,-575 C 8705,1343 7328,887 5960,970 c -295,18 -575,58 -908,131 -812,178 -1571,552 -2242,1107 -216,179 -571,548 -766,797 -325,415 -602,905 -793,1405 -182,475 -290,911 -355,1430 -52,424 -52,952 0,1380 106,865 361,1623 784,2330 331,553 698,980 1210,1406 519,432 1199,784 1900,983 389,110 863,184 1285,200 105,4 201,8 215,9 14,1 111,-3 215,-8 z"
       id="path2"
       style="display:inline;fill:#ffffff" />
    <path
       d="m 5675,11521 c -26,-6 -30,-11 -28,-36 2,-17 -22,-127 -53,-245 -45,-178 -59,-219 -80,-238 -43,-38 -29,-48 54,-39 51,6 72,13 72,23 0,8 -6,14 -14,14 -31,0 -39,27 -25,87 l 14,58 84,12 c 47,7 89,9 93,7 5,-3 20,-31 34,-62 l 25,-57 -22,-18 c -13,-10 -18,-21 -13,-26 14,-13 194,11 194,25 0,7 -8,15 -18,18 -12,4 -60,90 -136,246 -87,178 -122,240 -134,239 -9,-1 -30,-4 -47,-8 z m 95,-308 c 0,-10 -123,-31 -140,-24 -7,3 -2,35 22,141 l 22,95 48,-100 c 26,-55 48,-105 48,-112 z"
       id="path3"
       style="display:inline;fill:#ffffff" />
    <path
       d="m 7376,11430 c -77,-24 -117,-115 -86,-195 6,-15 46,-64 90,-110 57,-59 80,-91 80,-109 0,-72 -55,-114 -124,-95 -53,15 -73,40 -88,109 -16,79 -37,78 -58,-2 -16,-66 -18,-64 73,-114 50,-27 143,-42 191,-30 42,10 95,64 106,107 19,71 5,106 -80,194 -89,92 -104,117 -95,153 10,42 34,62 73,62 42,0 88,-45 98,-95 6,-34 29,-63 40,-52 7,7 23,76 24,99 0,24 -109,78 -168,83 -26,3 -60,0 -76,-5 z"
       id="path4"
       style="display:inline;fill:#ffffff" />
    <path
       d="m 4813,11363 -73,-25 -2,-203 -3,-204 -135,153 -135,154 -63,-23 c -35,-13 -66,-25 -69,-28 -9,-10 9,-29 22,-23 8,3 18,-1 23,-7 14,-18 134,-398 134,-425 0,-13 -8,-29 -18,-37 -13,-9 -16,-17 -9,-24 8,-8 31,-3 78,16 71,28 88,53 37,53 -20,0 -33,7 -41,21 -18,34 -118,329 -110,328 3,0 32,-30 64,-67 136,-157 235,-257 246,-247 7,7 12,92 13,237 2,125 6,224 10,220 11,-11 128,-329 128,-348 0,-10 -7,-25 -16,-35 -32,-35 -4,-37 88,-4 51,17 94,37 95,42 2,6 -9,13 -26,16 -24,5 -32,15 -47,54 -9,26 -43,117 -76,201 -32,84 -58,160 -58,169 0,9 7,24 16,34 25,27 4,28 -73,2 z"
       id="path5"
       style="fill:#ffffff" />
    <path
       d="m 8139,11161 c -45,-71 -35,-91 26,-51 35,23 83,26 110,6 18,-13 16,-19 -38,-137 -104,-232 -138,-299 -150,-300 -7,-1 -18,-2 -26,-3 -39,-3 -13,-27 71,-64 91,-40 118,-41 83,-1 -20,21 -28,1 124,322 l 60,128 30,-16 c 37,-19 39,-21 47,-81 7,-54 11,-64 24,-64 8,0 44,100 45,123 0,5 -25,19 -55,32 -30,12 -115,52 -188,87 l -134,65 z"
       id="path6"
       style="fill:#ffffff" />
    <path
       d="m 3765,10892 c -6,-5 -30,-14 -55,-21 -68,-19 -115,-54 -140,-105 -25,-52 -21,-91 13,-143 35,-53 69,-63 207,-63 121,0 122,0 151,-29 36,-36 37,-70 3,-110 -43,-51 -108,-54 -177,-7 -20,14 -44,23 -52,20 -20,-8 -20,-6 21,-69 38,-57 53,-65 74,-40 7,8 24,15 39,15 38,1 111,36 148,72 58,56 67,137 21,200 -37,52 -70,61 -210,59 -119,-2 -128,0 -152,21 -41,37 -44,72 -8,108 38,38 95,41 153,8 59,-33 71,-13 29,46 -33,46 -47,54 -65,38 z"
       id="path7"
       style="fill:#ffffff" />
    <path
       d="m 9005,10730 c -4,-6 -2,-17 5,-25 15,-18 11,-25 -106,-180 -105,-140 -124,-175 -124,-230 0,-54 22,-96 74,-142 59,-52 121,-71 178,-54 67,20 84,37 189,181 112,156 123,167 142,151 13,-10 27,-6 27,9 0,17 -91,82 -107,76 -12,-5 -14,-9 -5,-18 7,-7 12,-20 12,-29 0,-27 -208,-307 -240,-324 -53,-28 -105,-12 -154,45 -49,59 -36,93 113,294 82,109 98,127 120,124 44,-5 33,19 -31,69 -79,62 -85,66 -93,53 z"
       id="path8"
       style="fill:#ffffff" />
    <path
       d="m 3020,10404 c -51,-48 -56,-69 -13,-61 19,3 34,-4 61,-32 73,-72 190,-213 207,-248 23,-49 14,-98 -27,-140 -37,-38 -85,-51 -129,-33 -17,7 -85,72 -151,144 -112,123 -119,133 -113,164 9,47 -10,41 -83,-28 -60,-55 -74,-88 -32,-75 13,4 35,-14 86,-72 180,-203 217,-233 294,-233 69,0 159,61 195,131 20,38 21,115 2,160 -8,20 -65,96 -126,169 -98,116 -111,137 -106,161 10,45 -12,43 -65,-7 z"
       id="path9"
       style="fill:#ffffff" />
    <path
       d="m 9766,10082 c -3,-6 -3,-17 0,-26 8,-22 -3,-35 -174,-199 -138,-134 -154,-147 -173,-136 -53,28 -31,-14 57,-108 69,-74 110,-109 150,-129 138,-67 291,-5 359,147 34,76 32,158 -4,230 -27,53 -205,237 -215,221 z m 160,-204 c 37,-70 3,-170 -86,-259 -71,-69 -148,-99 -211,-80 -42,13 -109,65 -109,86 0,6 75,85 166,175 l 166,162 30,-28 c 16,-16 36,-41 44,-56 z"
       id="path10"
       style="fill:#ffffff" />
    <path
       d="m 2327,9623 c -4,-3 -7,-13 -7,-22 0,-9 -17,-26 -38,-39 -81,-51 -140,-170 -129,-262 11,-94 81,-186 179,-237 66,-34 163,-38 218,-9 62,33 135,118 164,190 41,103 38,115 -44,182 -39,31 -75,65 -81,75 -5,11 -14,19 -19,19 -17,0 -112,-142 -102,-152 6,-6 19,-4 36,7 26,17 27,17 80,-24 86,-67 91,-74 77,-120 -12,-43 -57,-87 -97,-97 -78,-20 -180,18 -264,99 -84,80 -107,152 -73,224 26,55 66,75 140,70 48,-4 63,-1 67,10 10,25 7,31 -36,62 -42,31 -59,37 -71,24 z"
       id="path11"
       style="fill:#ffffff" />
    <path
       d="m 10378,9264 c -2,-20 -22,-37 -95,-82 -50,-32 -130,-81 -178,-110 -63,-40 -92,-52 -109,-48 -13,3 -26,3 -29,0 -8,-9 76,-144 88,-140 6,1 11,12 13,23 2,14 28,36 75,64 40,24 124,76 188,116 75,47 122,71 133,67 25,-10 19,13 -20,77 -38,63 -61,75 -66,33 z"
       id="path12"
       style="fill:#ffffff" />
    <path
       d="m 10520,8601 c -213,-69 -283,-302 -139,-466 42,-47 120,-85 177,-85 96,0 223,69 268,146 39,66 47,117 33,192 -14,77 -57,144 -117,187 -38,26 -53,30 -120,32 -42,1 -88,-1 -102,-6 z m 220,-94 c 68,-23 101,-118 66,-186 -35,-67 -160,-142 -273,-163 -53,-10 -64,-9 -106,10 -49,22 -77,63 -77,112 0,60 64,131 165,183 107,56 160,66 225,44 z"
       id="path15"
       style="fill:#ffffff" />
    <path
       d="m 2254,8579 c -5,-9 -73,-10 -279,-4 l -272,7 -12,-32 c -11,-32 -10,-33 67,-103 192,-177 302,-291 302,-314 0,-43 29,-25 55,34 20,43 23,58 13,64 -7,5 -20,1 -30,-7 -15,-14 -21,-12 -62,26 -25,24 -46,47 -46,53 0,6 14,41 31,79 l 32,68 h 64 c 59,0 64,-2 73,-25 5,-14 13,-25 18,-25 9,0 75,160 74,177 -1,13 -20,15 -28,2 z m -268,-125 22,-6 -27,-59 c -14,-32 -28,-59 -31,-59 -3,0 -36,29 -75,65 l -70,64 h 80 c 44,1 90,-2 101,-5 z"
       id="path16"
       style="fill:#ffffff" />
    <path
       d="m 10796,6659 c -89,-26 -126,-149 -65,-216 72,-78 184,-59 223,37 41,102 -53,210 -158,179 z"
       id="path18"
       style="fill:#ffffff" />
    <path
       d="m 1625,6641 c -40,-24 -70,-89 -61,-134 8,-45 41,-86 82,-103 44,-18 68,-18 111,3 89,42 98,168 17,232 -34,27 -107,28 -149,2 z"
       id="path19"
       style="fill:#ffffff" />
    <path
       d="m 10687,5352 c -22,-24 -37,-68 -37,-108 0,-49 45,-94 93,-94 28,0 41,7 64,35 83,103 80,100 97,86 21,-18 20,-48 -3,-93 -19,-35 -20,-36 -1,-53 24,-22 37,-13 61,39 34,76 21,141 -36,172 -47,25 -87,6 -133,-63 -26,-40 -41,-53 -56,-51 -29,4 -32,41 -6,85 11,20 19,42 16,49 -7,20 -40,17 -59,-4 z"
       id="path20"
       style="fill:#ffffff" />
    <path
       d="m 1710,5219 c -63,-21 -123,-48 -133,-58 -18,-18 -18,-21 -3,-74 38,-129 140,-180 247,-124 57,30 84,76 83,142 -1,56 -40,149 -64,152 -8,1 -67,-16 -130,-38 z m 120,-58 c 5,-11 10,-38 10,-61 0,-49 -33,-86 -86,-96 -53,-10 -109,37 -116,95 -3,21 5,27 77,52 97,34 102,34 115,10 z"
       id="path21"
       style="fill:#ffffff" />
    <path
       d="m 10581,4994 c -6,-15 -10,-28 -9,-30 2,-2 37,-17 78,-35 41,-17 76,-32 78,-34 1,-1 -44,-15 -100,-31 -107,-29 -118,-36 -118,-69 0,-16 21,-28 118,-63 159,-58 158,-58 172,-33 6,12 9,25 6,30 -3,4 -39,21 -81,37 -41,16 -75,31 -75,34 0,3 45,15 100,28 97,23 120,36 120,72 0,11 -49,35 -170,80 -41,16 -82,31 -91,34 -10,5 -19,-2 -28,-20 z"
       id="path22"
       style="fill:#ffffff" />
    <path
       d="m 1852,4785 c -120,-50 -152,-70 -152,-90 0,-22 50,-142 63,-154 8,-6 18,-5 31,5 19,13 19,15 -3,70 -12,31 -20,58 -19,59 12,10 49,25 60,25 8,0 20,-15 26,-34 17,-47 34,-59 57,-42 18,13 18,15 2,57 -18,45 -16,53 20,63 19,6 26,0 49,-46 33,-65 28,-61 53,-53 27,8 26,28 -5,95 -28,60 -51,90 -68,89 -6,0 -57,-20 -114,-44 z"
       id="path23"
       style="fill:#ffffff" />
    <path
       d="m 10450,4571 c -46,-24 -85,-97 -76,-143 25,-131 185,-194 274,-107 62,61 66,141 9,206 -55,63 -139,81 -207,44 z m 107,-51 c 24,0 73,-56 73,-84 0,-91 -92,-123 -162,-58 -61,57 -15,166 60,146 8,-2 20,-4 29,-4 z"
       id="path24"
       style="fill:#ffffff" />
    <path
       d="m 2060,4463 c -8,-3 -25,-15 -37,-26 -20,-18 -23,-30 -23,-94 0,-58 -3,-75 -16,-80 -22,-8 -56,29 -58,64 -5,57 -37,73 -58,28 -17,-37 4,-96 47,-134 81,-70 167,-5 150,112 -5,33 -3,46 9,56 14,12 19,11 36,-4 11,-10 20,-31 20,-46 0,-33 30,-55 48,-37 31,31 2,116 -51,148 -33,21 -42,22 -67,13 z"
       id="path25"
       style="fill:#ffffff" />
    <path
       d="m 10252,4225 c -13,-29 -20,-24 138,-114 77,-44 108,-57 117,-49 30,25 11,45 -110,116 -68,40 -126,72 -129,72 -3,0 -10,-11 -16,-25 z"
       id="path26"
       style="fill:#ffffff" />
    <path
       d="m 2170,4089 c -145,-89 -146,-89 -123,-117 l 18,-22 120,71 c 152,90 154,92 130,119 -10,11 -21,20 -24,20 -3,0 -58,-32 -121,-71 z"
       id="path27"
       style="fill:#ffffff" />
    <path
       d="m 10162,4053 c -11,-16 -38,-63 -61,-105 l -42,-77 22,-12 c 20,-10 25,-9 41,11 10,13 23,30 27,38 7,13 26,5 112,-45 96,-56 105,-60 122,-45 9,8 17,20 17,27 0,6 -47,39 -105,74 l -105,62 15,29 c 19,37 19,56 -1,64 -22,8 -21,9 -42,-21 z"
       id="path28"
       style="fill:#ffffff" />
    <path
       d="m 2385,3904 c -5,-1 -22,-5 -37,-8 -41,-9 -95,-61 -114,-111 -14,-39 -15,-51 -4,-91 13,-47 74,-118 112,-130 19,-6 127,54 128,70 0,5 -14,31 -31,58 -32,50 -53,57 -73,26 -8,-13 -6,-22 9,-38 16,-18 17,-23 5,-30 -24,-16 -40,-12 -65,16 -38,41 -34,97 9,140 46,46 90,47 133,2 17,-18 35,-46 40,-63 10,-31 38,-44 55,-27 27,27 -28,133 -85,163 -26,15 -69,27 -82,23 z"
       id="path29"
       style="fill:#ffffff" />
    <path
       d="m 9972,3740 c -6,-11 -12,-22 -12,-24 0,-3 34,-30 75,-61 42,-32 80,-65 85,-75 15,-29 12,-65 -8,-83 -33,-30 -66,-20 -152,45 -78,59 -83,61 -96,43 -8,-10 -14,-24 -14,-31 0,-11 123,-109 167,-132 42,-23 90,-15 129,21 31,28 37,41 42,85 6,68 -22,111 -112,176 -82,58 -88,61 -104,36 z"
       id="path30"
       style="fill:#ffffff" />
    <path
       d="m 2599,3498 c -149,-113 -152,-116 -145,-133 12,-33 37,-27 113,29 42,30 79,54 81,52 2,-2 -13,-46 -33,-97 -49,-127 -48,-121 -31,-144 15,-20 15,-20 54,2 56,32 222,147 222,154 0,4 -8,17 -19,30 l -18,23 -67,-47 c -73,-51 -93,-58 -76,-28 5,11 23,56 40,100 l 29,80 -20,25 c -11,14 -24,26 -27,26 -4,0 -50,-33 -103,-72 z"
       id="path31"
       style="fill:#ffffff" />
    <path
       d="m 9649,3328 c -13,-24 -15,-22 145,-161 l 79,-68 39,38 c 22,21 49,53 60,71 21,34 21,34 1,54 -20,20 -20,20 -58,-26 -21,-25 -40,-46 -44,-46 -3,0 -46,36 -95,80 -48,44 -94,80 -102,80 -7,0 -19,-10 -25,-22 z"
       id="path32"
       style="fill:#ffffff" />
    <path
       d="m 9502,3143 c -37,-7 -99,-73 -111,-118 -27,-101 64,-215 172,-215 77,0 156,99 142,179 -16,94 -118,171 -203,154 z m 106,-108 c 51,-55 39,-132 -24,-156 -55,-20 -134,47 -134,114 0,18 11,39 30,59 26,25 36,29 63,24 18,-3 46,-21 65,-41 z"
       id="path33"
       style="fill:#ffffff" />
    <path
       d="m 9143,2831 c -48,-35 -63,-58 -63,-98 0,-61 62,-95 137,-75 56,15 78,15 91,-1 16,-19 -12,-55 -54,-73 -37,-15 -41,-29 -20,-57 13,-16 17,-17 48,-4 50,22 89,68 95,115 5,36 2,45 -25,72 -35,35 -65,38 -135,13 -44,-16 -48,-16 -64,0 -16,16 -15,18 7,42 13,13 32,27 42,31 14,4 18,13 16,32 -4,37 -27,38 -75,3 z"
       id="path34"
       style="fill:#ffffff" />
    <path
       d="m 3166,2829 c -34,-27 -36,-77 -3,-107 31,-29 72,-28 102,3 39,38 30,86 -22,113 -31,17 -47,15 -77,-9 z"
       id="path35"
       style="fill:#ffffff" />
    <path
       d="m 3771,2423 c -45,-70 -80,-134 -79,-142 5,-27 98,-74 153,-79 62,-5 103,13 139,60 51,69 53,152 4,206 -27,29 -107,82 -124,82 -7,0 -49,-57 -93,-127 z m 148,26 c 33,-31 44,-66 31,-105 -14,-42 -63,-84 -99,-84 -27,0 -71,24 -71,40 0,12 101,170 109,170 4,0 17,-9 30,-21 z"
       id="path36"
       style="fill:#ffffff" />
    <path
       d="m 8586,2319 c -34,-27 -36,-77 -3,-107 45,-42 111,-18 123,45 5,26 1,37 -19,57 -31,31 -65,33 -101,5 z"
       id="path37"
       style="fill:#ffffff" />
    <path
       d="m 4181,2251 c -23,-44 -54,-105 -71,-136 -16,-30 -27,-62 -23,-70 5,-14 161,-101 168,-93 1,2 7,13 13,24 10,20 6,24 -48,53 l -60,32 20,39 19,38 51,-26 c 43,-23 52,-25 60,-12 19,29 10,47 -30,65 -52,23 -54,28 -35,65 l 15,30 57,-31 c 54,-29 58,-30 70,-13 19,26 13,34 -53,70 -106,58 -107,58 -153,-35 z"
       id="path38"
       style="fill:#ffffff" />
    <path
       d="m 4526,2124 c -7,-57 -6,-228 3,-269 8,-36 50,-56 76,-35 9,8 60,65 112,128 90,107 95,116 78,128 -10,8 -24,14 -31,14 -11,0 -61,-52 -148,-155 l -25,-30 -1,126 c 0,106 -3,128 -16,133 -33,13 -41,6 -48,-40 z"
       id="path39"
       style="fill:#ffffff" />
    <path
       d="m 7875,2104 c -49,-19 -91,-37 -94,-39 -2,-3 1,-16 7,-30 10,-22 15,-23 37,-15 15,6 32,10 40,10 7,0 28,-43 50,-105 47,-132 52,-139 88,-126 l 27,10 -39,108 c -21,60 -42,116 -46,126 -6,13 1,20 30,32 28,12 36,21 33,38 -4,32 -32,31 -133,-9 z"
       id="path40"
       style="fill:#ffffff" />
    <path
       d="m 4927,1938 c -43,-141 -59,-205 -55,-223 2,-13 26,-25 82,-41 98,-29 102,-29 109,-2 7,26 1,31 -70,53 -40,13 -53,21 -49,32 4,8 9,26 12,40 7,27 10,27 96,7 21,-5 27,-2 33,15 9,29 2,36 -51,51 -44,13 -46,14 -40,43 3,17 8,32 10,34 2,2 30,-3 62,-11 61,-16 77,-10 71,24 -2,16 -116,59 -158,60 -25,0 -29,-6 -52,-82 z"
       id="path41"
       style="fill:#ffffff" />
    <path
       d="m 7586,1997 c -16,-12 -16,-17 4,-90 12,-43 20,-82 18,-88 -2,-5 -41,22 -86,61 -46,38 -91,70 -101,70 -44,0 -43,-22 1,-180 41,-150 42,-151 67,-145 14,4 29,9 32,13 4,4 -4,43 -17,87 -13,44 -23,86 -21,94 1,7 37,-19 85,-64 73,-67 87,-76 110,-70 15,4 29,9 32,11 2,3 -6,44 -18,92 -60,226 -66,238 -106,209 z"
       id="path42"
       style="fill:#ffffff" />
    <path
       d="m 5314,1918 c -15,-23 -71,-303 -63,-312 4,-5 45,-17 91,-27 78,-17 84,-17 96,-2 19,27 10,37 -50,53 -31,8 -59,17 -62,20 -3,3 6,53 19,110 29,124 31,156 9,164 -23,9 -32,7 -40,-6 z"
       id="path43"
       style="fill:#ffffff" />
    <path
       d="m 7130,1894 c -36,-7 -78,-17 -93,-23 -32,-12 -32,10 8,-204 12,-65 25,-120 29,-124 6,-7 137,14 174,28 25,10 27,18 10,41 -11,14 -21,15 -67,7 -59,-11 -66,-8 -75,37 -7,30 -6,31 49,43 49,11 56,16 53,34 -3,20 -9,22 -60,21 -49,-1 -57,1 -62,20 -12,46 -8,52 54,64 53,11 60,15 60,37 0,13 -3,26 -7,28 -5,2 -37,-2 -73,-9 z"
       id="path44"
       style="fill:#ffffff" />
    <path
       d="m 5701,1828 c -99,-67 -116,-195 -37,-274 75,-75 211,-47 252,53 47,111 -19,230 -133,240 -39,4 -55,0 -82,-19 z m 137,-74 c 41,-46 23,-144 -31,-173 -33,-18 -84,-6 -104,26 -9,13 -16,44 -16,68 0,100 90,147 151,79 z"
       id="path45"
       style="fill:#ffffff" />
    <path
       d="m 6720,1753 c -17,-43 -35,-81 -39,-85 -3,-4 -28,28 -54,72 -37,61 -53,80 -70,80 -49,0 -50,-6 -39,-171 6,-84 16,-157 21,-162 5,-5 18,-6 30,-2 19,6 21,14 21,103 v 97 l 37,-63 c 51,-87 71,-85 109,11 l 29,72 11,-95 c 7,-52 13,-96 13,-97 1,-2 15,-3 31,-3 28,0 30,3 30,35 0,39 -18,229 -26,263 -3,17 -11,22 -38,22 -32,0 -34,-3 -66,-77 z"
       id="path46"
       style="fill:#ffffff" />
    <path
       d="m 6121,1806 c -8,-9 -11,-63 -9,-167 3,-154 3,-154 27,-157 31,-5 41,12 41,71 v 47 h 43 c 59,0 103,29 118,78 14,49 -1,86 -50,119 -40,27 -150,33 -170,9 z m 147,-64 c 30,-38 1,-82 -54,-82 h -34 v 48 c 0,27 3,52 7,56 11,11 67,-4 81,-22 z"
       id="path47"
       style="display:inline;fill:#ffffff" />
  </g>
  <g
     transform="matrix(0.05471905,0,0,-0.05471905,264.71484,967.89287)"
     fill="#000000"
     stroke="none"
     id="g3"
     style="fill:#ffffff">
    <path
       d="m 5055,10908 c -32,-73 -111,-257 -177,-408 -179,-412 -270,-620 -443,-1010 -100,-226 -159,-363 -253,-580 -44,-102 -124,-284 -177,-405 -53,-121 -130,-296 -170,-390 -95,-222 -202,-467 -253,-580 -22,-49 -63,-144 -92,-210 -99,-228 -326,-742 -390,-885 -392,-872 -574,-1235 -663,-1328 -18,-19 -42,-38 -54,-43 -13,-5 -23,-17 -23,-28 0,-19 9,-20 298,-23 163,-2 305,-1 315,1 26,5 23,51 -4,51 -83,0 -114,106 -84,294 42,273 138,546 405,1161 39,88 121,279 184,425 l 113,265 1255,3 1254,2 59,-135 c 32,-75 62,-134 66,-133 4,2 120,114 258,250 l 251,247 -29,63 c -16,35 -100,230 -186,433 -87,204 -196,460 -242,570 -85,199 -215,502 -278,645 -32,74 -98,226 -230,530 -37,85 -108,247 -157,360 -187,424 -316,719 -373,853 -58,135 -59,137 -91,137 -31,0 -32,-2 -89,-132 z m -170,-925 c 21,-49 97,-223 170,-388 73,-165 180,-408 238,-540 58,-132 167,-379 242,-550 75,-170 170,-389 212,-485 41,-96 121,-281 179,-412 57,-130 104,-241 104,-247 0,-13 -2366,-16 -2373,-3 -2,4 44,117 103,252 58,135 164,378 235,540 71,162 155,356 188,430 32,74 72,164 87,200 15,36 65,148 110,250 45,102 120,273 167,380 107,245 294,660 298,660 1,0 19,-39 40,-87 z"
       id="path1-0"
       style="fill:#ffffff" />
    <path
       d="m 9486.555,9911.6675 c -157,-160 -652,-670 -959,-988 -250,-259 -434,-448 -870,-895 -414,-422 -659,-676 -1390,-1430 -165,-170 -387,-400 -495,-510 -270,-276 -958,-991 -1315,-1365 -71,-74 -223,-234 -339,-355 -116,-121 -303,-317 -416,-435 -113,-118 -255,-267 -315,-330 -512,-535 -671,-704 -679,-720 -13,-27 0,-50 27,-50 18,0 74,52 228,212 339,353 638,666 959,1003 484,507 1219,1274 1530,1595 157,162 578,597 935,965 821,847 1276,1316 1575,1620 130,132 494,507 810,834 316,327 655,676 753,777 150,156 177,188.0005 177,214.0005 0,64 -36,40 -216,-142.0005 z"
       id="path2-9"
       style="display:inline;fill:#ffffff" />
    <path
       d="m 8720,7598 c -74,-134 -195,-351 -270,-483 -76,-132 -172,-303 -215,-380 -146,-263 -577,-1030 -633,-1127 -31,-54 -60,-94 -63,-90 -4,4 -35,68 -69,142 -99,218 -523,1090 -530,1090 -11,0 -470,-469 -470,-480 0,-5 80,-171 178,-367 98,-197 265,-542 371,-768 107,-225 200,-416 206,-423 10,-11 24,8 75,100 35,62 80,142 100,178 120,213 150,267 213,380 39,69 87,154 107,190 20,36 79,142 132,235 52,94 161,285 240,425 262,461 574,1014 614,1087 21,40 41,73 44,73 5,0 3,-3556 -2,-3985 -3,-227 -5,-243 -27,-293 -39,-86 -104,-126 -231,-140 l -65,-7 v -35 -35 h 635 635 v 35 35 l -61,7 c -100,11 -143,27 -189,69 -82,76 -76,-119 -73,2349 l 3,2185 23,50 c 13,28 35,62 49,77 35,37 116,70 188,77 59,6 60,7 63,39 l 3,32 h -424 -424 z"
       id="path3-4"
       style="fill:#ffffff" />
  </g>
</svg>
