<?xml version="1.0" encoding="UTF-8" standalone="no"?>
<svg
   width="2496.248"
   height="896.12158"
   viewBox="205.11 268.477 646.59314 232.05566"
   version="1.1"
   id="svg1"
   sodipodi:docname="nike.svg"
   inkscape:export-filename="nike-borde.svg"
   inkscape:export-xdpi="96"
   inkscape:export-ydpi="96"
   xmlns:inkscape="http://www.inkscape.org/namespaces/inkscape"
   xmlns:sodipodi="http://sodipodi.sourceforge.net/DTD/sodipodi-0.dtd"
   xmlns="http://www.w3.org/2000/svg"
   xmlns:svg="http://www.w3.org/2000/svg">
  <defs
     id="defs1" />
  <sodipodi:namedview
     id="namedview1"
     pagecolor="#ffffff"
     bordercolor="#000000"
     borderopacity="0.25"
     inkscape:showpageshadow="2"
     inkscape:pageopacity="0.0"
     inkscape:pagecheckerboard="0"
     inkscape:deskcolor="#d1d1d1">
    <inkscape:page
       x="0"
       y="-2.5629735e-16"
       width="646.59314"
       height="232.05565"
       id="page2"
       margin="0"
       bleed="0" />
  </sodipodi:namedview>
  <path
     d="m 288.1908,277.70929 c -42.136,49.484 -82.543,110.855 -82.948,156.724 -0.158,17.26 5.355,32.327 18.575,43.746 19.017,16.423 39.96,22.228 60.815,22.255 30.48,0.041 60.741,-12.257 84.442,-21.729 39.906,-15.963 479.19722,-208.28648 479.19722,-208.28648 4.255,-2.129 4.74213,-2.34166 -0.57987,-1.01166 -2.146,0.541 -479.69135,128.41614 -479.69135,128.41614 -9.227,2.594 -18.65,3.936 -27.826,3.984 -36.735,0.215 -69.427,-20.174 -69.163,-63.152 0.101,-16.818 5.261,-37.09 17.179,-60.946 z"
     fill="#b59354"
     id="path1"
     style="fill:#ffffff;fill-opacity:1;stroke:#000000;stroke-width:0.259026;stroke-dasharray:none;stroke-opacity:1"
     sodipodi:nodetypes="ccccccccccc" />
</svg>
