<?xml version="1.0" encoding="UTF-8" standalone="no"?>
<svg
   version="1.0"
   width="1067.9083pt"
   height="303.99918pt"
   viewBox="0 0 1067.9083 303.99917"
   preserveAspectRatio="xMidYMid"
   id="svg10"
   sodipodi:docname="logo.svg"
   inkscape:export-filename="logo.svg"
   inkscape:export-xdpi="96"
   inkscape:export-ydpi="96"
   inkscape:version="1.4 (86a8ad7, 2024-10-11)"
   xmlns:inkscape="http://www.inkscape.org/namespaces/inkscape"
   xmlns:sodipodi="http://sodipodi.sourceforge.net/DTD/sodipodi-0.dtd"
   xmlns="http://www.w3.org/2000/svg"
   xmlns:svg="http://www.w3.org/2000/svg">
  <defs
     id="defs10" />
  <sodipodi:namedview
     id="namedview10"
     pagecolor="#505050"
     bordercolor="#eeeeee"
     borderopacity="1"
     inkscape:showpageshadow="0"
     inkscape:pageopacity="0"
     inkscape:pagecheckerboard="0"
     inkscape:deskcolor="#505050"
     inkscape:document-units="pt"
     inkscape:zoom="0.31182456"
     inkscape:cx="994.14875"
     inkscape:cy="270.98571"
     inkscape:window-width="1920"
     inkscape:window-height="1009"
     inkscape:window-x="1912"
     inkscape:window-y="-8"
     inkscape:window-maximized="1"
     inkscape:current-layer="g10">
    <inkscape:page
       x="0"
       y="0"
       width="1067.9083"
       height="303.99918"
       id="page2"
       margin="0"
       bleed="0" />
  </sodipodi:namedview>
  <g
     transform="matrix(0.1,0,0,-0.1,-318.60461,615)"
     fill="#000000"
     stroke="none"
     id="g10"
     style="fill:#0d0d0d;fill-opacity:1">
    <path
       d="m 4248,6130 c -28,-15 -41,-31 -56,-72 -48,-126 -407,-994 -570,-1373 -142,-332 -186,-423 -241,-492 -43,-55 -107,-99 -159,-109 -85,-17 -22,-24 218,-24 243,0 311,8 209,24 -126,20 -157,99 -104,263 14,43 67,182 118,308 l 93,230 h 403 402 l 130,-327 c 129,-328 144,-381 119,-427 -12,-23 -79,-51 -120,-51 -17,0 -30,-4 -30,-10 0,-6 122,-10 346,-10 h 346 l 45,-40 c 25,-22 63,-45 84,-52 22,-6 39,-14 39,-17 0,-3 -31,-25 -69,-48 -92,-57 -174,-141 -211,-216 -139,-283 115,-525 594,-568 469,-42 827,147 887,466 43,232 -109,423 -383,479 -42,9 -217,30 -390,46 -352,34 -430,51 -472,101 -60,71 -12,163 108,208 l 60,22 90,-25 c 232,-66 465,-11 620,147 112,113 156,217 156,367 0,181 -89,342 -244,441 l -59,37 34,6 c 19,3 76,13 128,21 51,9 98,18 103,21 12,8 78,144 78,161 0,7 -3,13 -8,13 -6,0 -112,-28 -177,-47 -11,-3 -55,-41 -97,-85 -63,-66 -81,-80 -100,-75 -156,36 -177,39 -268,34 -157,-9 -284,-59 -388,-152 -219,-197 -230,-548 -26,-750 29,-28 68,-59 88,-70 39,-21 46,-35 19,-35 -10,0 -47,-14 -83,-31 -144,-68 -220,-209 -174,-323 7,-18 4,-19 -48,-13 -95,9 -164,61 -215,160 -31,61 -314,762 -581,1435 -102,259 -191,472 -197,472 -5,-1 -27,-10 -47,-20 z m -56,-327 c 15,-38 76,-189 136,-338 190,-468 212,-523 212,-529 0,-3 -171,-6 -381,-6 -317,0 -380,2 -377,14 6,28 373,926 378,926 3,0 17,-30 32,-67 z m 1844,-390 c 63,-21 151,-108 187,-185 81,-171 88,-413 17,-600 -29,-77 -103,-158 -172,-188 -108,-46 -256,-25 -340,49 -101,90 -158,249 -158,440 1,250 70,404 215,473 72,34 171,38 251,11 z M 5644,3930 c 38,-6 164,-19 280,-30 395,-38 512,-70 619,-169 62,-57 94,-158 76,-243 -43,-207 -284,-338 -621,-338 -309,0 -555,113 -644,297 -25,51 -29,69 -28,153 0,86 3,100 31,155 37,71 90,124 158,159 28,14 52,26 55,26 3,0 36,-5 74,-10 z"
       id="path1"
       style="display:inline;fill:#0d0d0d;fill-opacity:1" />
    <path
       d="m 12829,6130 c -29,-15 -40,-31 -62,-87 -327,-848 -580,-1478 -676,-1686 -75,-164 -160,-256 -248,-273 -50,-9 -138,2 -171,22 -16,9 -38,31 -48,48 -18,30 -19,67 -19,926 0,715 3,902 13,932 18,51 61,84 127,99 30,7 52,16 49,20 -6,10 -340,11 -378,1 -34,-9 6,79 -405,-887 -344,-806 -335,-785 -339,-780 -6,5 -101,210 -313,667 -150,325 -246,538 -434,955 l -23,52 h -211 c -201,-1 -268,-9 -180,-23 67,-11 116,-42 141,-89 l 23,-42 v -850 c 0,-778 -1,-855 -17,-906 -10,-31 -27,-68 -40,-84 -25,-32 -91,-64 -130,-65 -16,0 -28,-4 -28,-10 0,-6 87,-10 240,-10 225,0 300,9 194,24 -93,12 -135,58 -159,173 -12,56 -15,211 -15,883 0,447 4,810 8,805 5,-6 91,-190 192,-410 100,-220 251,-548 335,-730 84,-181 187,-404 228,-495 42,-91 81,-165 87,-165 13,0 37,53 240,525 82,190 205,476 275,635 69,160 160,372 203,472 42,100 80,183 85,183 10,0 8,-1695 -2,-1749 -15,-76 -60,-117 -142,-128 -125,-17 9,-23 515,-23 371,0 566,3 566,10 0,6 -10,10 -21,10 -84,0 -147,51 -155,127 -7,57 20,145 150,483 l 75,195 390,3 c 215,1 391,0 391,-2 0,-2 39,-102 86,-222 158,-405 176,-456 170,-493 -3,-18 -12,-41 -21,-51 -17,-19 -79,-40 -119,-40 -14,0 -26,-4 -26,-10 0,-6 114,-10 322,-10 177,0 318,4 313,8 -6,5 -28,14 -51,20 -71,20 -117,62 -161,148 -44,84 -592,1452 -733,1827 -18,48 -38,87 -44,87 -6,-1 -27,-9 -47,-20 z m 136,-805 c 70,-176 133,-337 141,-357 l 13,-38 h -369 c -204,0 -370,2 -370,5 0,5 93,246 307,795 25,63 47,123 50,133 6,21 23,-18 228,-538 z"
       id="path2"
       style="display:inline;fill:#0d0d0d;fill-opacity:1" />
    <path
       d="m 7863,5417 c -90,-22 -160,-43 -157,-48 3,-5 14,-9 24,-9 11,0 34,-13 52,-29 l 33,-29 3,-426 3,-425 -25,-48 c -63,-126 -162,-221 -267,-258 -55,-20 -174,-19 -232,1 -97,33 -173,133 -196,258 -7,38 -11,238 -11,553 0,381 -3,493 -12,493 -34,0 -336,-75 -332,-82 3,-4 16,-8 29,-8 40,0 82,-45 94,-101 7,-31 11,-202 11,-451 0,-425 4,-468 51,-561 31,-59 103,-125 174,-158 231,-109 521,-11 678,229 l 34,52 5,-87 c 7,-103 28,-163 71,-199 29,-25 36,-26 107,-21 41,2 107,15 145,27 l 70,23 -57,12 c -32,7 -65,18 -74,26 -43,36 -44,49 -44,688 0,335 -3,612 -7,614 -5,2 -81,-14 -170,-36 z"
       id="path3"
       style="display:inline;fill:#0d0d0d;fill-opacity:1" />
    <path
       d="m 8713,5445 c -236,-51 -367,-258 -292,-462 16,-43 37,-74 83,-119 54,-53 88,-74 265,-162 220,-110 284,-151 324,-209 38,-55 47,-87 47,-156 -1,-106 -49,-183 -147,-232 -52,-27 -68,-30 -153,-30 -87,0 -101,3 -162,33 -111,54 -198,163 -254,314 -16,43 -32,78 -36,78 -5,0 -8,-81 -8,-179 v -179 l 93,-31 c 153,-51 222,-63 352,-62 191,0 292,38 394,146 77,82 96,129 96,245 0,89 -2,99 -34,158 -61,112 -138,169 -431,318 -217,110 -290,184 -290,294 0,80 46,149 127,190 42,22 61,25 148,25 79,0 107,-4 135,-19 97,-52 179,-150 222,-268 11,-32 24,-55 28,-51 3,4 4,71 1,147 l -6,140 -80,29 c -154,56 -294,70 -422,42 z"
       id="path4"
       style="display:inline;fill:#0d0d0d;fill-opacity:1" />
    <path
       d="m 7342,3518.8991 c -21,-9.9247 -38,-29.7741 -48,-55.1373 -24,-63.9592 -2,-102.5554 85,-153.2817 73,-41.9043 97,-73.884 84,-113.5828 -13,-41.9044 -36,-58.4456 -78,-58.4456 -45,0 -69,19.8495 -92,74.9868 -11,28.6714 -11,27.5686 -12,-22.055 l -1,-51.829 55,-13.233 c 97,-24.2604 175,23.1577 175,105.8637 0,47.418 -31,88.2196 -93,122.4048 -69,38.5961 -87,57.3428 -87,92.6306 0,38.5962 28,66.1648 68,66.1648 31,0 54,-17.6439 79,-61.7538 10,-18.7467 12,-16.5412 12,19.8495 1,47.418 0,48.5208 -64,57.3428 -34,4.4109 -61,1.1027 -83,-9.9248 z"
       id="path5"
       style="display:inline;fill:#0d0d0d;fill-opacity:1;stroke-width:1.05012" />
    <path
       d="m 11026,3519.9814 c -142,-58.4579 -168,-276.848 -43,-368.3953 58,-41.9133 146,-41.9133 205,0 57,41.9132 76,86.0324 77,175.3738 0,59.5609 -4,79.4146 -27,116.9159 -43,72.7967 -137,105.8861 -212,76.1056 z m 123,-24.2656 c 36,-27.5745 61,-100.3711 61,-175.3738 0,-132.3576 -64,-208.4632 -154,-180.8887 -81,24.2655 -122,181.9917 -77,292.2897 24,57.355 55,81.6205 106,81.6205 22,0 51,-7.7208 64,-17.6477 z"
       id="path6"
       style="display:inline;fill:#0d0d0d;fill-opacity:1;stroke-width:1.05023" />
    <path
       d="m 7957.8741,3477.0655 1,-49.1973 15,30.8913 c 18,38.9002 43,54.9179 83,54.9179 h 31 v -188.7802 c 0,-185.3479 0,-189.9244 -22,-200.2215 -17,-6.8647 -5,-10.2971 47,-10.2971 52,0 64,3.4324 48,10.2971 -23,10.2971 -23,14.8736 -23,200.2215 v 188.7802 h 38 c 38,0 72,-27.459 85,-68.6474 3,-9.153 6,4.5765 6,32.0355 l 1,48.0531 h -155 -155 z"
       id="path7"
       style="fill:#0d0d0d;fill-opacity:1;stroke-width:1.06964" />
    <path
       d="m 8720,3517.2749 c 27,-11.1551 30,-29.0032 30,-170.6726 0,-118.2437 3,-145.0159 20,-175.1346 30,-54.6598 112,-74.739 174,-42.3893 56,30.1187 66,63.5839 66,220.8704 0,132.7454 1,141.6694 22,157.2865 21,16.7326 20,17.8481 -32,16.7326 -43,0 -50,-2.231 -33,-10.0395 30,-13.3861 35,-44.6203 31,-188.5207 -3,-117.1283 -4,-124.9368 -31,-153.94 -22,-24.5412 -37,-31.2342 -73,-31.2342 -38,0 -50,5.5775 -70,31.2342 -23,30.1187 -24,39.0427 -24,180.7121 0,130.5144 2,150.5935 18,160.633 13,8.9241 1,11.1551 -48,11.1551 -36,0 -58,-3.3465 -50,-6.693 z"
       id="path8"
       style="fill:#0d0d0d;fill-opacity:1;stroke-width:1.05618" />
    <path
       d="m 9510,3517.233 c 27,-12.5795 30,-29.7333 30,-205.8459 0,-153.2409 -2,-174.969 -17,-185.2613 -13,-9.1487 11,-11.4359 86,-12.5795 85,0 113,4.5743 145,22.8718 124,68.6153 128,290.4714 7,362.5175 -39,22.8717 -58,26.3025 -155,25.1589 -61,0 -104,-3.4307 -96,-6.8615 z m 204,-20.5846 c 76,-41.1692 107,-203.5587 56,-296.1894 -25,-46.8871 -70,-75.4768 -119,-75.4768 -62,0 -61,-3.4308 -61,201.2715 v 187.5485 h 46 c 25,0 61,-8.0051 78,-17.1538 z"
       id="path9"
       style="fill:#0d0d0d;fill-opacity:1;stroke-width:1.06939" />
    <path
       d="m 10338,3502.4931 c 21,-15.9732 22,-25.1008 22,-187.1149 0,-162.0141 -1,-171.1417 -22,-187.1149 -21,-17.1142 -19,-18.2551 42,-18.2551 57,0 62,2.2819 45,15.9732 -17,13.6914 -19,31.9465 -20,189.3968 0,158.5913 2,174.5645 19,189.3968 18,14.8323 14,15.9732 -44,15.9732 -61,0 -63,-1.1409 -42,-18.2551 z"
       id="path10"
       style="fill:#0d0d0d;fill-opacity:1;stroke-width:1.06815" />
  </g>
</svg>
