<?xml version="1.0" encoding="UTF-8" standalone="no"?>
<svg
   version="1.0"
   width="1672pt"
   height="941pt"
   viewBox="0 0 1672 941"
   preserveAspectRatio="xMidYMid"
   id="svg10"
   sodipodi:docname="logo.svg"
   inkscape:export-filename="logo-white.svg"
   inkscape:export-xdpi="96"
   inkscape:export-ydpi="96"
   xmlns:inkscape="http://www.inkscape.org/namespaces/inkscape"
   xmlns:sodipodi="http://sodipodi.sourceforge.net/DTD/sodipodi-0.dtd"
   xmlns="http://www.w3.org/2000/svg"
   xmlns:svg="http://www.w3.org/2000/svg">
  <defs
     id="defs10" />
  <sodipodi:namedview
     id="namedview10"
     pagecolor="#505050"
     bordercolor="#eeeeee"
     borderopacity="1"
     inkscape:showpageshadow="0"
     inkscape:pageopacity="0"
     inkscape:pagecheckerboard="0"
     inkscape:deskcolor="#505050"
     inkscape:document-units="pt">
    <inkscape:page
       x="0"
       y="0"
       width="1672.0001"
       height="941.00006"
       id="page2"
       margin="0"
       bleed="0" />
  </sodipodi:namedview>
  <g
     transform="matrix(0.1,0,0,-0.1,0,941)"
     fill="#000000"
     stroke="none"
     id="g10"
     style="fill:#faf9f6;fill-opacity:1">
    <path
       d="m 4248,6130 c -28,-15 -41,-31 -56,-72 -48,-126 -407,-994 -570,-1373 -142,-332 -186,-423 -241,-492 -43,-55 -107,-99 -159,-109 -85,-17 -22,-24 218,-24 243,0 311,8 209,24 -126,20 -157,99 -104,263 14,43 67,182 118,308 l 93,230 h 403 402 l 130,-327 c 129,-328 144,-381 119,-427 -12,-23 -79,-51 -120,-51 -17,0 -30,-4 -30,-10 0,-6 122,-10 346,-10 h 346 l 45,-40 c 25,-22 63,-45 84,-52 22,-6 39,-14 39,-17 0,-3 -31,-25 -69,-48 -92,-57 -174,-141 -211,-216 -139,-283 115,-525 594,-568 469,-42 827,147 887,466 43,232 -109,423 -383,479 -42,9 -217,30 -390,46 -352,34 -430,51 -472,101 -60,71 -12,163 108,208 l 60,22 90,-25 c 232,-66 465,-11 620,147 112,113 156,217 156,367 0,181 -89,342 -244,441 l -59,37 34,6 c 19,3 76,13 128,21 51,9 98,18 103,21 12,8 78,144 78,161 0,7 -3,13 -8,13 -6,0 -112,-28 -177,-47 -11,-3 -55,-41 -97,-85 -63,-66 -81,-80 -100,-75 -156,36 -177,39 -268,34 -157,-9 -284,-59 -388,-152 -219,-197 -230,-548 -26,-750 29,-28 68,-59 88,-70 39,-21 46,-35 19,-35 -10,0 -47,-14 -83,-31 -144,-68 -220,-209 -174,-323 7,-18 4,-19 -48,-13 -95,9 -164,61 -215,160 -31,61 -314,762 -581,1435 -102,259 -191,472 -197,472 -5,-1 -27,-10 -47,-20 z m -56,-327 c 15,-38 76,-189 136,-338 190,-468 212,-523 212,-529 0,-3 -171,-6 -381,-6 -317,0 -380,2 -377,14 6,28 373,926 378,926 3,0 17,-30 32,-67 z m 1844,-390 c 63,-21 151,-108 187,-185 81,-171 88,-413 17,-600 -29,-77 -103,-158 -172,-188 -108,-46 -256,-25 -340,49 -101,90 -158,249 -158,440 1,250 70,404 215,473 72,34 171,38 251,11 z M 5644,3930 c 38,-6 164,-19 280,-30 395,-38 512,-70 619,-169 62,-57 94,-158 76,-243 -43,-207 -284,-338 -621,-338 -309,0 -555,113 -644,297 -25,51 -29,69 -28,153 0,86 3,100 31,155 37,71 90,124 158,159 28,14 52,26 55,26 3,0 36,-5 74,-10 z"
       id="path1"
       style="display:inline;fill:#faf9f6;fill-opacity:1" />
    <path
       d="m 12829,6130 c -29,-15 -40,-31 -62,-87 -327,-848 -580,-1478 -676,-1686 -75,-164 -160,-256 -248,-273 -50,-9 -138,2 -171,22 -16,9 -38,31 -48,48 -18,30 -19,67 -19,926 0,715 3,902 13,932 18,51 61,84 127,99 30,7 52,16 49,20 -6,10 -340,11 -378,1 -34,-9 6,79 -405,-887 -344,-806 -335,-785 -339,-780 -6,5 -101,210 -313,667 -150,325 -246,538 -434,955 l -23,52 h -211 c -201,-1 -268,-9 -180,-23 67,-11 116,-42 141,-89 l 23,-42 v -850 c 0,-778 -1,-855 -17,-906 -10,-31 -27,-68 -40,-84 -25,-32 -91,-64 -130,-65 -16,0 -28,-4 -28,-10 0,-6 87,-10 240,-10 225,0 300,9 194,24 -93,12 -135,58 -159,173 -12,56 -15,211 -15,883 0,447 4,810 8,805 5,-6 91,-190 192,-410 100,-220 251,-548 335,-730 84,-181 187,-404 228,-495 42,-91 81,-165 87,-165 13,0 37,53 240,525 82,190 205,476 275,635 69,160 160,372 203,472 42,100 80,183 85,183 10,0 8,-1695 -2,-1749 -15,-76 -60,-117 -142,-128 -125,-17 9,-23 515,-23 371,0 566,3 566,10 0,6 -10,10 -21,10 -84,0 -147,51 -155,127 -7,57 20,145 150,483 l 75,195 390,3 c 215,1 391,0 391,-2 0,-2 39,-102 86,-222 158,-405 176,-456 170,-493 -3,-18 -12,-41 -21,-51 -17,-19 -79,-40 -119,-40 -14,0 -26,-4 -26,-10 0,-6 114,-10 322,-10 177,0 318,4 313,8 -6,5 -28,14 -51,20 -71,20 -117,62 -161,148 -44,84 -592,1452 -733,1827 -18,48 -38,87 -44,87 -6,-1 -27,-9 -47,-20 z m 136,-805 c 70,-176 133,-337 141,-357 l 13,-38 h -369 c -204,0 -370,2 -370,5 0,5 93,246 307,795 25,63 47,123 50,133 6,21 23,-18 228,-538 z"
       id="path2"
       style="display:inline;fill:#faf9f6;fill-opacity:1" />
    <path
       d="m 7863,5417 c -90,-22 -160,-43 -157,-48 3,-5 14,-9 24,-9 11,0 34,-13 52,-29 l 33,-29 3,-426 3,-425 -25,-48 c -63,-126 -162,-221 -267,-258 -55,-20 -174,-19 -232,1 -97,33 -173,133 -196,258 -7,38 -11,238 -11,553 0,381 -3,493 -12,493 -34,0 -336,-75 -332,-82 3,-4 16,-8 29,-8 40,0 82,-45 94,-101 7,-31 11,-202 11,-451 0,-425 4,-468 51,-561 31,-59 103,-125 174,-158 231,-109 521,-11 678,229 l 34,52 5,-87 c 7,-103 28,-163 71,-199 29,-25 36,-26 107,-21 41,2 107,15 145,27 l 70,23 -57,12 c -32,7 -65,18 -74,26 -43,36 -44,49 -44,688 0,335 -3,612 -7,614 -5,2 -81,-14 -170,-36 z"
       id="path3"
       style="display:inline;fill:#faf9f6;fill-opacity:1" />
    <path
       d="m 8713,5445 c -236,-51 -367,-258 -292,-462 16,-43 37,-74 83,-119 54,-53 88,-74 265,-162 220,-110 284,-151 324,-209 38,-55 47,-87 47,-156 -1,-106 -49,-183 -147,-232 -52,-27 -68,-30 -153,-30 -87,0 -101,3 -162,33 -111,54 -198,163 -254,314 -16,43 -32,78 -36,78 -5,0 -8,-81 -8,-179 v -179 l 93,-31 c 153,-51 222,-63 352,-62 191,0 292,38 394,146 77,82 96,129 96,245 0,89 -2,99 -34,158 -61,112 -138,169 -431,318 -217,110 -290,184 -290,294 0,80 46,149 127,190 42,22 61,25 148,25 79,0 107,-4 135,-19 97,-52 179,-150 222,-268 11,-32 24,-55 28,-51 3,4 4,71 1,147 l -6,140 -80,29 c -154,56 -294,70 -422,42 z"
       id="path4"
       style="display:inline;fill:#faf9f6;fill-opacity:1" />
    <path
       d="m 7342,3595 c -21,-9 -38,-27 -48,-50 -24,-58 -2,-93 85,-139 73,-38 97,-67 84,-103 -13,-38 -36,-53 -78,-53 -45,0 -69,18 -92,68 -11,26 -11,25 -12,-20 l -1,-47 55,-12 c 97,-22 175,21 175,96 0,43 -31,80 -93,111 -69,35 -87,52 -87,84 0,35 28,60 68,60 31,0 54,-16 79,-56 10,-17 12,-15 12,18 1,43 0,44 -64,52 -34,4 -61,1 -83,-9 z"
       id="path5"
       style="display:inline;fill:#faf9f6;fill-opacity:1" />
    <path
       d="m 11026,3596 c -142,-53 -168,-251 -43,-334 58,-38 146,-38 205,0 57,38 76,78 77,159 0,54 -4,72 -27,106 -43,66 -137,96 -212,69 z m 123,-22 c 36,-25 61,-91 61,-159 0,-120 -64,-189 -154,-164 -81,22 -122,165 -77,265 24,52 55,74 106,74 22,0 51,-7 64,-16 z"
       id="path6"
       style="display:inline;fill:#faf9f6;fill-opacity:1" />
    <path
       d="m 7960,3558 1,-43 15,27 c 18,34 43,48 83,48 h 31 v -165 c 0,-162 0,-166 -22,-175 -17,-6 -5,-9 47,-9 52,0 64,3 48,9 -23,9 -23,13 -23,175 v 165 h 38 c 38,0 72,-24 85,-60 3,-8 6,4 6,28 l 1,42 h -155 -155 z"
       id="path7"
       style="fill:#faf9f6;fill-opacity:1" />
    <path
       d="m 8720,3593 c 27,-10 30,-26 30,-153 0,-106 3,-130 20,-157 30,-49 112,-67 174,-38 56,27 66,57 66,198 0,119 1,127 22,141 21,15 20,16 -32,15 -43,0 -50,-2 -33,-9 30,-12 35,-40 31,-169 -3,-105 -4,-112 -31,-138 -22,-22 -37,-28 -73,-28 -38,0 -50,5 -70,28 -23,27 -24,35 -24,162 0,117 2,135 18,144 13,8 1,10 -48,10 -36,0 -58,-3 -50,-6 z"
       id="path8"
       style="fill:#faf9f6;fill-opacity:1" />
    <path
       d="m 9510,3593 c 27,-11 30,-26 30,-180 0,-134 -2,-153 -17,-162 -13,-8 11,-10 86,-11 85,0 113,4 145,20 124,60 128,254 7,317 -39,20 -58,23 -155,22 -61,0 -104,-3 -96,-6 z m 204,-18 c 76,-36 107,-178 56,-259 -25,-41 -70,-66 -119,-66 -62,0 -61,-3 -61,176 v 164 h 46 c 25,0 61,-7 78,-15 z"
       id="path9"
       style="fill:#faf9f6;fill-opacity:1" />
    <path
       d="m 10338,3584 c 21,-14 22,-22 22,-164 0,-142 -1,-150 -22,-164 -21,-15 -19,-16 42,-16 57,0 62,2 45,14 -17,12 -19,28 -20,166 0,139 2,153 19,166 18,13 14,14 -44,14 -61,0 -63,-1 -42,-16 z"
       id="path10"
       style="fill:#faf9f6;fill-opacity:1" />
  </g>
</svg>
